SplineFontDB: 3.0
FontName: DistinguishMono-ExtraLight
FullName: Distinguish Mono ExtraLight
FamilyName: Distinguish Mono
Weight: ExtraLight
Copyright: Copyright 2015 Google Inc. All Rights Reserved.
Version: 2.000;GOOG;noto-source:20170915:90ef993387c0; ttfautohint (v1.7)
ItalicAngle: 0
UnderlinePosition: -125
UnderlineWidth: 50
Ascent: 800
Descent: 200
InvalidEm: 0
sfntRevision: 0x00020000
LayerCount: 2
Layer: 0 1 "Back" 1
Layer: 1 1 "Fore" 0
XUID: [1021 269 1684064080 263037]
StyleMap: 0x0000
FSType: 0
OS2Version: 4
OS2_WeightWidthSlopeOnly: 1
OS2_UseTypoMetrics: 0
CreationTime: 1435678095
ModificationTime: 1515872616
PfmFamily: 17
TTFWeight: 200
TTFWidth: 5
LineGap: 0
VLineGap: 0
Panose: 2 11 3 9 4 5 4 2 2 4
OS2TypoAscent: 1069
OS2TypoAOffset: 0
OS2TypoDescent: -293
OS2TypoDOffset: 0
OS2TypoLinegap: 0
OS2WinAscent: 1069
OS2WinAOffset: 0
OS2WinDescent: 293
OS2WinDOffset: 0
HheadAscent: 1069
HheadAOffset: 0
HheadDescent: -293
HheadDOffset: 0
OS2SubXSize: 650
OS2SubYSize: 600
OS2SubXOff: 0
OS2SubYOff: 75
OS2SupXSize: 650
OS2SupYSize: 600
OS2SupXOff: 0
OS2SupYOff: 350
OS2StrikeYSize: 50
OS2StrikeYPos: 322
OS2CapHeight: 714
OS2XHeight: 536
OS2Vendor: 'GOOG'
OS2CodePages: 00000000.00000000
OS2UnicodeRanges: e00002ff.400038df.08000029.00100000
Lookup: 1 0 0 "'aalt' Access All Alternates lookup 0" { "'aalt' Access All Alternates lookup 0 subtable"  } ['aalt' ('DFLT' <'dflt' > 'cyrl' <'SRB ' 'dflt' > 'grek' <'dflt' > 'latn' <'CAT ' 'MAH ' 'MOL ' 'NAV ' 'ROM ' 'dflt' > ) ]
Lookup: 3 0 0 "'aalt' Access All Alternates lookup 1" { "'aalt' Access All Alternates lookup 1 subtable"  } ['aalt' ('DFLT' <'dflt' > 'cyrl' <'SRB ' 'dflt' > 'grek' <'dflt' > 'latn' <'CAT ' 'MAH ' 'MOL ' 'NAV ' 'ROM ' 'dflt' > ) ]
Lookup: 4 0 0 "'ccmp' Glyph Composition/Decomposition lookup 2" { "'ccmp' Glyph Composition/Decomposition lookup 2 subtable"  } ['ccmp' ('DFLT' <'dflt' > 'cyrl' <'SRB ' 'dflt' > 'grek' <'dflt' > 'latn' <'CAT ' 'MAH ' 'MOL ' 'NAV ' 'ROM ' 'dflt' > ) ]

StartChar: .notdef
Encoding: 65536 -1 0
Width: 600
Flags: W
LayerCount: 2
Fore
SplineSet
94 0 m 1,0,-1
 94 714 l 1,1,-1
 505 714 l 1,2,-1
 505 0 l 1,3,-1
 94 0 l 1,0,-1
145 51 m 1,4,-1
 454 51 l 1,5,-1
 454 663 l 1,6,-1
 145 663 l 1,7,-1
 145 51 l 1,4,-1
EndSplineSet
EndChar

StartChar: exclam
Encoding: 33 33 4
Width: 600
Flags: W
LayerCount: 2
Fore
SplineSet
283 180 m 1,0,-1
 278 714 l 1,1,-1
 323 714 l 1,2,-1
 318 180 l 1,3,-1
 283 180 l 1,0,-1
299 -12 m 0,4,5
 281 -12 281 -12 272.5 -0.5 c 128,-1,6
 264 11 264 11 264 30 c 256,7,8
 264 49 264 49 272.5 60.5 c 128,-1,9
 281 72 281 72 299 72 c 0,10,11
 321 72 321 72 328.5 60.5 c 128,-1,12
 336 49 336 49 336 30 c 256,13,14
 336 11 336 11 328.5 -0.5 c 128,-1,15
 321 -12 321 -12 299 -12 c 0,4,5
EndSplineSet
Substitution2: "'smcp' Lowercase to Small Capitals lookup 33 subtable" exclam.sc
Substitution2: "'c2sc' Capitals to Small Capitals lookup 32 subtable" exclam.sc
Substitution2: "'aalt' Access All Alternates lookup 0 subtable" exclam.sc
EndChar

StartChar: quotedbl
Encoding: 34 34 5
Width: 600
Flags: W
LayerCount: 2
Fore
SplineSet
363 456 m 1,0,-1
 356 714 l 1,1,-1
 398 714 l 1,2,-1
 391 456 l 1,3,-1
 363 456 l 1,0,-1
209 456 m 1,4,-1
 202 714 l 1,5,-1
 244 714 l 1,6,-1
 237 456 l 1,7,-1
 209 456 l 1,4,-1
EndSplineSet
EndChar

StartChar: numbersign
Encoding: 35 35 6
Width: 600
Flags: W
LayerCount: 2
Fore
SplineSet
104 0 m 1,0,-1
 140 227 l 1,1,-1
 22 227 l 1,2,-1
 22 259 l 1,3,-1
 145 259 l 1,4,-1
 178 464 l 1,5,-1
 55 464 l 1,6,-1
 55 496 l 1,7,-1
 183 496 l 1,8,-1
 218 714 l 1,9,-1
 252 714 l 1,10,-1
 218 496 l 1,11,-1
 374 496 l 1,12,-1
 409 714 l 1,13,-1
 442 714 l 1,14,-1
 408 496 l 1,15,-1
 526 496 l 1,16,-1
 526 464 l 1,17,-1
 403 464 l 1,18,-1
 370 259 l 1,19,-1
 493 259 l 1,20,-1
 493 227 l 1,21,-1
 365 227 l 1,22,-1
 328 0 l 1,23,-1
 294 0 l 1,24,-1
 331 227 l 1,25,-1
 174 227 l 1,26,-1
 138 0 l 1,27,-1
 104 0 l 1,0,-1
179 259 m 1,28,-1
 336 259 l 1,29,-1
 368 464 l 1,30,-1
 212 464 l 1,31,-1
 179 259 l 1,28,-1
EndSplineSet
EndChar

StartChar: dollar
Encoding: 36 36 7
Width: 600
Flags: W
LayerCount: 2
Fore
SplineSet
281 -58 m 1,0,-1
 281 23 l 1,1,2
 221 24 221 24 175.5 32.5 c 128,-1,3
 130 41 130 41 98 53 c 1,4,-1
 98 93 l 1,5,6
 132 79 132 79 180 69 c 128,-1,7
 228 59 228 59 281 58 c 1,8,-1
 281 348 l 1,9,10
 228 368 228 368 185.5 390 c 128,-1,11
 143 412 143 412 118.5 445 c 128,-1,12
 94 478 94 478 94 532 c 0,13,14
 94 606 94 606 147 647 c 128,-1,15
 200 688 200 688 281 692 c 1,16,-1
 281 759 l 1,17,-1
 313 759 l 1,18,-1
 313 693 l 1,19,20
 355 692 355 692 395.5 683 c 128,-1,21
 436 674 436 674 476 656 c 1,22,-1
 462 622 l 1,23,24
 422 640 422 640 384.5 648 c 128,-1,25
 347 656 347 656 313 657 c 1,26,-1
 313 375 l 1,27,28
 371 355 371 355 414.5 333 c 128,-1,29
 458 311 458 311 482 277.5 c 128,-1,30
 506 244 506 244 506 191 c 0,31,32
 506 113 506 113 452 71 c 128,-1,33
 398 29 398 29 313 24 c 1,34,-1
 313 -58 l 1,35,-1
 281 -58 l 1,0,-1
281 387 m 1,36,-1
 281 657 l 1,37,38
 217 653 217 653 175 622.5 c 128,-1,39
 133 592 133 592 133 533 c 0,40,41
 133 491 133 491 153 464 c 128,-1,42
 173 437 173 437 206.5 419.5 c 128,-1,43
 240 402 240 402 281 387 c 1,36,-1
313 59 m 1,44,45
 381 64 381 64 424 96.5 c 128,-1,46
 467 129 467 129 467 192 c 0,47,48
 467 231 467 231 449 256.5 c 128,-1,49
 431 282 431 282 396.5 300 c 128,-1,50
 362 318 362 318 313 336 c 1,51,-1
 313 59 l 1,44,45
EndSplineSet
EndChar

StartChar: percent
Encoding: 37 37 8
Width: 600
Flags: W
LayerCount: 2
Fore
SplineSet
140 383 m 0,0,1
 70 383 70 383 35 430.5 c 128,-1,2
 0 478 0 478 0 555 c 0,3,4
 0 628 0 628 35 675 c 128,-1,5
 70 722 70 722 140 722 c 0,6,7
 208 722 208 722 243 675 c 128,-1,8
 278 628 278 628 278 555 c 0,9,10
 278 478 278 478 243.5 430.5 c 128,-1,11
 209 383 209 383 140 383 c 0,0,1
92 0 m 1,12,-1
 459 714 l 1,13,-1
 498 714 l 1,14,-1
 131 0 l 1,15,-1
 92 0 l 1,12,-1
140 414 m 0,16,17
 192 414 192 414 217 452.5 c 128,-1,18
 242 491 242 491 242 555 c 0,19,20
 242 615 242 615 217 653 c 128,-1,21
 192 691 192 691 140 691 c 0,22,23
 86 691 86 691 61 653.5 c 128,-1,24
 36 616 36 616 36 555 c 0,25,26
 36 492 36 492 61 453 c 128,-1,27
 86 414 86 414 140 414 c 0,16,17
462 -9 m 0,28,29
 392 -9 392 -9 357 38.5 c 128,-1,30
 322 86 322 86 322 163 c 0,31,32
 322 236 322 236 357 283 c 128,-1,33
 392 330 392 330 462 330 c 0,34,35
 530 330 530 330 565 283 c 128,-1,36
 600 236 600 236 600 163 c 0,37,38
 600 86 600 86 565.5 38.5 c 128,-1,39
 531 -9 531 -9 462 -9 c 0,28,29
462 22 m 0,40,41
 514 22 514 22 539 60.5 c 128,-1,42
 564 99 564 99 564 163 c 0,43,44
 564 223 564 223 539 261 c 128,-1,45
 514 299 514 299 462 299 c 0,46,47
 408 299 408 299 383 261.5 c 128,-1,48
 358 224 358 224 358 163 c 0,49,50
 358 100 358 100 383 61 c 128,-1,51
 408 22 408 22 462 22 c 0,40,41
EndSplineSet
EndChar

StartChar: ampersand
Encoding: 38 38 9
Width: 600
Flags: W
LayerCount: 2
Fore
SplineSet
254 -10 m 0,0,1
 171 -10 171 -10 123 40 c 128,-1,2
 75 90 75 90 75 175 c 0,3,4
 75 232 75 232 95 271 c 128,-1,5
 115 310 115 310 147.5 338.5 c 128,-1,6
 180 367 180 367 218 392 c 1,7,8
 182 441 182 441 160.5 486.5 c 128,-1,9
 139 532 139 532 139 582 c 0,10,11
 139 646 139 646 175 685.5 c 128,-1,12
 211 725 211 725 271 725 c 0,13,14
 329 725 329 725 364.5 687.5 c 128,-1,15
 400 650 400 650 400 582 c 0,16,17
 400 531 400 531 380.5 494.5 c 128,-1,18
 361 458 361 458 330.5 431.5 c 128,-1,19
 300 405 300 405 267 383 c 1,20,-1
 449 151 l 1,21,22
 473 190 473 190 488 235 c 128,-1,23
 503 280 503 280 508 324 c 1,24,-1
 545 324 l 1,25,26
 537 269 537 269 519 216.5 c 128,-1,27
 501 164 501 164 473 120 c 1,28,-1
 567 0 l 1,29,-1
 520 0 l 1,30,-1
 451 90 l 1,31,32
 414 44 414 44 364.5 17 c 128,-1,33
 315 -10 315 -10 254 -10 c 0,0,1
175 583 m 0,34,35
 175 538 175 538 196 494.5 c 128,-1,36
 217 451 217 451 247 411 c 1,37,38
 275 430 275 430 301.5 453.5 c 128,-1,39
 328 477 328 477 345.5 509 c 128,-1,40
 363 541 363 541 363 583 c 0,41,42
 363 632 363 632 338.5 661.5 c 128,-1,43
 314 691 314 691 271 691 c 0,44,45
 226 691 226 691 200.5 661 c 128,-1,46
 175 631 175 631 175 583 c 0,34,35
113 175 m 0,47,48
 113 107 113 107 151.5 66.5 c 128,-1,49
 190 26 190 26 256 26 c 0,50,51
 309 26 309 26 352.5 52 c 128,-1,52
 396 78 396 78 428 119 c 1,53,-1
 239 365 l 1,54,55
 206 342 206 342 177 316.5 c 128,-1,56
 148 291 148 291 130.5 257 c 128,-1,57
 113 223 113 223 113 175 c 0,47,48
EndSplineSet
Substitution2: "'smcp' Lowercase to Small Capitals lookup 33 subtable" ampersand.sc
Substitution2: "'c2sc' Capitals to Small Capitals lookup 32 subtable" ampersand.sc
Substitution2: "'aalt' Access All Alternates lookup 0 subtable" ampersand.sc
EndChar

StartChar: quotesingle
Encoding: 39 39 10
Width: 600
Flags: W
LayerCount: 2
Fore
SplineSet
286 456 m 1,0,-1
 279 714 l 1,1,-1
 321 714 l 1,2,-1
 313 456 l 1,3,-1
 286 456 l 1,0,-1
EndSplineSet
EndChar

StartChar: parenleft
Encoding: 40 40 11
Width: 600
Flags: W
LayerCount: 2
Fore
SplineSet
363 -158 m 1,0,1
 293 -73 293 -73 255.5 36 c 128,-1,2
 218 145 218 145 218 274 c 0,3,4
 218 404 218 404 255.5 517.5 c 128,-1,5
 293 631 293 631 363 714 c 1,6,-1
 404 714 l 1,7,8
 328 625 328 625 292.5 512.5 c 128,-1,9
 257 400 257 400 257 275 c 0,10,11
 257 152 257 152 293 42 c 128,-1,12
 329 -68 329 -68 403 -158 c 1,13,-1
 363 -158 l 1,0,1
EndSplineSet
Substitution2: "'smcp' Lowercase to Small Capitals lookup 33 subtable" parenleft.sc
Substitution2: "'c2sc' Capitals to Small Capitals lookup 32 subtable" parenleft.sc
Substitution2: "'sups' Superscript lookup 21 subtable" uni207D
Substitution2: "'subs' Subscript lookup 20 subtable" uni208D
AlternateSubs2: "'aalt' Access All Alternates lookup 1 subtable" uni208D uni207D parenleft.sc
EndChar

StartChar: asterisk
Encoding: 42 42 13
Width: 600
Flags: W
LayerCount: 2
Fore
SplineSet
427 352 m 1,0,-1
 318 517 l 1,1,-1
 210 353 l 1,2,-1
 177 376 l 1,3,-1
 296 532 l 1,4,-1
 108 582 l 1,5,-1
 118 619 l 1,6,-1
 305 559 l 1,7,-1
 299 756 l 1,8,-1
 337 756 l 1,9,-1
 331 559 l 1,10,-1
 520 620 l 1,11,-1
 529 582 l 1,12,-1
 342 532 l 1,13,-1
 461 375 l 1,14,-1
 427 352 l 1,0,-1
EndSplineSet
EndChar

StartChar: plus
Encoding: 43 43 14
Width: 600
Flags: W
LayerCount: 2
Fore
SplineSet
283 123 m 1,0,-1
 283 336 l 1,1,-1
 72 336 l 1,2,-1
 72 370 l 1,3,-1
 283 370 l 1,4,-1
 283 583 l 1,5,-1
 317 583 l 1,6,-1
 317 370 l 1,7,-1
 528 370 l 1,8,-1
 528 336 l 1,9,-1
 317 336 l 1,10,-1
 317 123 l 1,11,-1
 283 123 l 1,0,-1
EndSplineSet
Substitution2: "'sups' Superscript lookup 21 subtable" uni207A
Substitution2: "'subs' Subscript lookup 20 subtable" uni208A
AlternateSubs2: "'aalt' Access All Alternates lookup 1 subtable" uni208A uni207A
EndChar

StartChar: comma
Encoding: 44 44 15
Width: 600
Flags: W
LayerCount: 2
Fore
SplineSet
240 -131 m 1,0,1
 261 -60 261 -60 274.5 1 c 128,-1,2
 288 62 288 62 296 119 c 1,3,-1
 340 119 l 1,4,-1
 344 107 l 1,5,6
 332 51 332 51 314 -13.5 c 128,-1,7
 296 -78 296 -78 273 -131 c 1,8,-1
 240 -131 l 1,0,1
EndSplineSet
EndChar

StartChar: hyphen
Encoding: 45 45 16
Width: 600
Flags: W
LayerCount: 2
Fore
SplineSet
150 258 m 1,0,-1
 150 294 l 1,1,-1
 450 294 l 1,2,-1
 450 258 l 1,3,-1
 150 258 l 1,0,-1
EndSplineSet
EndChar

StartChar: period
Encoding: 46 46 17
Width: 600
Flags: W
LayerCount: 2
Fore
SplineSet
300 -12 m 256,0,1
 280 -12 280 -12 272 -0.5 c 128,-1,2
 264 11 264 11 264 30 c 256,3,4
 264 49 264 49 272 60.5 c 128,-1,5
 280 72 280 72 300 72 c 256,6,7
 320 72 320 72 328 60.5 c 128,-1,8
 336 49 336 49 336 30 c 256,9,10
 336 11 336 11 328 -0.5 c 128,-1,11
 320 -12 320 -12 300 -12 c 256,0,1
EndSplineSet
EndChar

StartChar: slash
Encoding: 47 47 18
Width: 600
Flags: W
LayerCount: 2
Fore
SplineSet
146 0 m 1,0,-1
 415 714 l 1,1,-1
 454 714 l 1,2,-1
 185 0 l 1,3,-1
 146 0 l 1,0,-1
EndSplineSet
Substitution2: "'frac' Diagonal Fractions lookup 24 subtable" fraction
Substitution2: "'aalt' Access All Alternates lookup 0 subtable" fraction
EndChar

StartChar: zero
Encoding: 48 48 19
Width: 600
Flags: W
LayerCount: 2
Fore
SplineSet
301 -10 m 0,0,1
 192 -10 192 -10 137 81 c 128,-1,2
 82 172 82 172 82 359 c 0,3,4
 82 468 82 468 103 550.5 c 128,-1,5
 124 633 124 633 172 679 c 128,-1,6
 220 725 220 725 302 725 c 256,7,8
 384 725 384 725 431 679 c 128,-1,9
 478 633 478 633 498 551.5 c 128,-1,10
 518 470 518 470 518 364 c 0,11,12
 518 178 518 178 465.5 84 c 128,-1,13
 413 -10 413 -10 301 -10 c 0,0,1
120 360 m 0,14,15
 120 222 120 222 149 143 c 1,16,-1
 430 621 l 1,17,18
 409 654 409 654 377.5 671.5 c 128,-1,19
 346 689 346 689 302 689 c 0,20,21
 234 689 234 689 194 648 c 128,-1,22
 154 607 154 607 137 533 c 128,-1,23
 120 459 120 459 120 360 c 0,14,15
301 26 m 0,24,25
 395 26 395 26 437.5 108.5 c 128,-1,26
 480 191 480 191 480 362 c 0,27,28
 480 429 480 429 473 485 c 128,-1,29
 466 541 466 541 449 583 c 1,30,-1
 167 105 l 1,31,32
 211 26 211 26 301 26 c 0,24,25
EndSplineSet
Substitution2: "'zero' Slashed Zero lookup 36 subtable" zero.slash
Substitution2: "'onum' Oldstyle Figures lookup 31 subtable" zero.osf
Substitution2: "'frac' Diagonal Fractions lookup 25 subtable" zero.numr
Substitution2: "'dnom' Denominators lookup 23 subtable" zero.dnom
Substitution2: "'numr' Numerators lookup 22 subtable" zero.numr
Substitution2: "'sups' Superscript lookup 21 subtable" uni2070
Substitution2: "'subs' Subscript lookup 20 subtable" uni2080
AlternateSubs2: "'aalt' Access All Alternates lookup 1 subtable" uni2070 zero.osf zero.dnom zero.numr uni2080
EndChar

StartChar: one
Encoding: 49 49 20
Width: 600
Flags: W
LayerCount: 2
Fore
SplineSet
186 0 m 1,0,-1
 186 28 l 1,1,-1
 323 33 l 1,2,-1
 323 539 l 2,3,4
 323 582 323 582 323 616 c 128,-1,5
 323 650 323 650 324 672 c 1,6,7
 311 662 311 662 299.5 653.5 c 128,-1,8
 288 645 288 645 268 631 c 2,9,-1
 153 550 l 1,10,-1
 132 580 l 1,11,-1
 328 714 l 1,12,-1
 361 714 l 1,13,-1
 361 33 l 1,14,-1
 493 28 l 1,15,-1
 493 0 l 1,16,-1
 186 0 l 1,0,-1
EndSplineSet
Substitution2: "'onum' Oldstyle Figures lookup 31 subtable" one.osf
Substitution2: "'frac' Diagonal Fractions lookup 25 subtable" one.numr
Substitution2: "'dnom' Denominators lookup 23 subtable" one.dnom
Substitution2: "'numr' Numerators lookup 22 subtable" one.numr
Substitution2: "'sups' Superscript lookup 21 subtable" uni00B9
Substitution2: "'subs' Subscript lookup 20 subtable" uni2081
AlternateSubs2: "'aalt' Access All Alternates lookup 1 subtable" uni00B9 one.osf one.dnom one.numr uni2081
EndChar

StartChar: two
Encoding: 50 50 21
Width: 600
Flags: W
LayerCount: 2
Fore
SplineSet
101 0 m 1,0,-1
 101 34 l 1,1,-1
 318 261 l 2,2,3
 364 310 364 310 393.5 352 c 128,-1,4
 423 394 423 394 437 438 c 128,-1,5
 451 482 451 482 451 536 c 0,6,7
 451 609 451 609 409.5 648.5 c 128,-1,8
 368 688 368 688 297 688 c 0,9,10
 254 688 254 688 209 671.5 c 128,-1,11
 164 655 164 655 125 623 c 1,12,-1
 103 652 l 1,13,14
 148 689 148 689 198 706.5 c 128,-1,15
 248 724 248 724 299 724 c 0,16,17
 387 724 387 724 439 673.5 c 128,-1,18
 491 623 491 623 491 537 c 0,19,20
 491 478 491 478 475.5 429.5 c 128,-1,21
 460 381 460 381 429 336.5 c 128,-1,22
 398 292 398 292 351 243 c 2,23,-1
 154 39 l 1,24,-1
 154 36 l 1,25,-1
 526 36 l 1,26,-1
 526 0 l 1,27,-1
 101 0 l 1,0,-1
EndSplineSet
Substitution2: "'onum' Oldstyle Figures lookup 31 subtable" two.osf
Substitution2: "'frac' Diagonal Fractions lookup 25 subtable" two.numr
Substitution2: "'dnom' Denominators lookup 23 subtable" two.dnom
Substitution2: "'numr' Numerators lookup 22 subtable" two.numr
Substitution2: "'sups' Superscript lookup 21 subtable" uni00B2
Substitution2: "'subs' Subscript lookup 20 subtable" uni2082
AlternateSubs2: "'aalt' Access All Alternates lookup 1 subtable" uni00B2 two.osf two.dnom two.numr uni2082
EndChar

StartChar: three
Encoding: 51 51 22
Width: 600
Flags: W
LayerCount: 2
Fore
SplineSet
279 -10 m 0,0,1
 230 -10 230 -10 181.5 1 c 128,-1,2
 133 12 133 12 93 31 c 1,3,-1
 93 71 l 1,4,5
 132 52 132 52 182 39 c 128,-1,6
 232 26 232 26 284 26 c 0,7,8
 382 26 382 26 432.5 72.5 c 128,-1,9
 483 119 483 119 483 196 c 0,10,11
 483 282 483 282 425 317.5 c 128,-1,12
 367 353 367 353 274 353 c 2,13,-1
 193 353 l 1,14,-1
 193 389 l 1,15,-1
 274 389 l 2,16,17
 324 389 324 389 367 406.5 c 128,-1,18
 410 424 410 424 435.5 459.5 c 128,-1,19
 461 495 461 495 461 550 c 0,20,21
 461 619 461 619 419 653.5 c 128,-1,22
 377 688 377 688 306 688 c 0,23,24
 255 688 255 688 210.5 671 c 128,-1,25
 166 654 166 654 121 622 c 1,26,-1
 100 650 l 1,27,28
 143 683 143 683 194 703.5 c 128,-1,29
 245 724 245 724 308 724 c 0,30,31
 396 724 396 724 448.5 678 c 128,-1,32
 501 632 501 632 501 553 c 0,33,34
 501 479 501 479 460.5 433 c 128,-1,35
 420 387 420 387 357 375 c 1,36,-1
 357 373 l 1,37,38
 437 362 437 362 480 318 c 128,-1,39
 523 274 523 274 523 196 c 0,40,41
 523 104 523 104 462 47 c 128,-1,42
 401 -10 401 -10 279 -10 c 0,0,1
EndSplineSet
Substitution2: "'onum' Oldstyle Figures lookup 31 subtable" three.osf
Substitution2: "'frac' Diagonal Fractions lookup 25 subtable" three.numr
Substitution2: "'dnom' Denominators lookup 23 subtable" three.dnom
Substitution2: "'numr' Numerators lookup 22 subtable" three.numr
Substitution2: "'sups' Superscript lookup 21 subtable" uni00B3
Substitution2: "'subs' Subscript lookup 20 subtable" uni2083
AlternateSubs2: "'aalt' Access All Alternates lookup 1 subtable" uni00B3 three.osf three.dnom three.numr uni2083
EndChar

StartChar: four
Encoding: 52 52 23
Width: 600
Flags: W
LayerCount: 2
Fore
SplineSet
392 0 m 1,0,-1
 392 188 l 1,1,-1
 58 188 l 1,2,-1
 58 217 l 1,3,-1
 384 718 l 1,4,-1
 430 718 l 1,5,-1
 430 223 l 1,6,-1
 542 223 l 1,7,-1
 542 188 l 1,8,-1
 430 188 l 1,9,-1
 430 0 l 1,10,-1
 392 0 l 1,0,-1
103 223 m 1,11,-1
 392 223 l 1,12,-1
 392 502 l 2,13,14
 392 544 392 544 392.5 573 c 128,-1,15
 393 602 393 602 393.5 625.5 c 128,-1,16
 394 649 394 649 394 674 c 1,17,-1
 391 674 l 1,18,19
 377 648 377 648 364.5 627 c 128,-1,20
 352 606 352 606 333 577 c 2,21,-1
 103 223 l 1,11,-1
EndSplineSet
Substitution2: "'onum' Oldstyle Figures lookup 31 subtable" four.osf
Substitution2: "'frac' Diagonal Fractions lookup 25 subtable" four.numr
Substitution2: "'dnom' Denominators lookup 23 subtable" four.dnom
Substitution2: "'numr' Numerators lookup 22 subtable" four.numr
Substitution2: "'sups' Superscript lookup 21 subtable" uni2074
Substitution2: "'subs' Subscript lookup 20 subtable" uni2084
AlternateSubs2: "'aalt' Access All Alternates lookup 1 subtable" uni2074 four.osf four.dnom four.numr uni2084
EndChar

StartChar: five
Encoding: 53 53 24
Width: 600
Flags: W
LayerCount: 2
Fore
SplineSet
272 -10 m 0,0,1
 224 -10 224 -10 176.5 2 c 128,-1,2
 129 14 129 14 99 31 c 1,3,-1
 99 73 l 1,4,5
 134 51 134 51 179.5 38.5 c 128,-1,6
 225 26 225 26 272 26 c 0,7,8
 364 26 364 26 416 76 c 128,-1,9
 468 126 468 126 468 216 c 0,10,11
 468 300 468 300 421.5 347 c 128,-1,12
 375 394 375 394 282 394 c 0,13,14
 216 394 216 394 145 372 c 1,15,-1
 121 390 l 1,16,-1
 151 714 l 1,17,-1
 473 714 l 1,18,-1
 473 678 l 1,19,-1
 185 678 l 1,20,-1
 160 410 l 1,21,22
 176 415 176 415 212 421.5 c 128,-1,23
 248 428 248 428 288 428 c 0,24,25
 391 428 391 428 449.5 374 c 128,-1,26
 508 320 508 320 508 219 c 0,27,28
 508 113 508 113 446.5 51.5 c 128,-1,29
 385 -10 385 -10 272 -10 c 0,0,1
EndSplineSet
Substitution2: "'onum' Oldstyle Figures lookup 31 subtable" five.osf
Substitution2: "'frac' Diagonal Fractions lookup 25 subtable" five.numr
Substitution2: "'dnom' Denominators lookup 23 subtable" five.dnom
Substitution2: "'numr' Numerators lookup 22 subtable" five.numr
Substitution2: "'sups' Superscript lookup 21 subtable" uni2075
Substitution2: "'subs' Subscript lookup 20 subtable" uni2085
AlternateSubs2: "'aalt' Access All Alternates lookup 1 subtable" uni2075 five.osf five.dnom five.numr uni2085
EndChar

StartChar: six
Encoding: 54 54 25
Width: 600
Flags: W
LayerCount: 2
Fore
SplineSet
311 -10 m 0,0,1
 229 -10 229 -10 179 34.5 c 128,-1,2
 129 79 129 79 106.5 154.5 c 128,-1,3
 84 230 84 230 84 323 c 0,4,5
 84 520 84 520 160 623 c 128,-1,6
 236 726 236 726 369 726 c 0,7,8
 418 726 418 726 460 713 c 1,9,-1
 460 676 l 1,10,11
 442 683 442 683 417.5 686.5 c 128,-1,12
 393 690 393 690 369 690 c 0,13,14
 297 690 297 690 241.5 653 c 128,-1,15
 186 616 186 616 154 536.5 c 128,-1,16
 122 457 122 457 122 331 c 1,17,-1
 125 331 l 1,18,19
 138 358 138 358 163 383.5 c 128,-1,20
 188 409 188 409 226 425.5 c 128,-1,21
 264 442 264 442 316 442 c 0,22,23
 410 442 410 442 464.5 383.5 c 128,-1,24
 519 325 519 325 519 226 c 0,25,26
 519 156 519 156 494.5 103 c 128,-1,27
 470 50 470 50 423 20 c 128,-1,28
 376 -10 376 -10 311 -10 c 0,0,1
311 25 m 0,29,30
 391 25 391 25 435.5 78.5 c 128,-1,31
 480 132 480 132 480 226 c 0,32,33
 480 309 480 309 439 358.5 c 128,-1,34
 398 408 398 408 313 408 c 0,35,36
 256 408 256 408 214.5 385.5 c 128,-1,37
 173 363 173 363 150 325.5 c 128,-1,38
 127 288 127 288 127 245 c 0,39,40
 127 221 127 221 135 184.5 c 128,-1,41
 143 148 143 148 163 111.5 c 128,-1,42
 183 75 183 75 219 50 c 128,-1,43
 255 25 255 25 311 25 c 0,29,30
EndSplineSet
Substitution2: "'onum' Oldstyle Figures lookup 31 subtable" six.osf
Substitution2: "'frac' Diagonal Fractions lookup 25 subtable" six.numr
Substitution2: "'dnom' Denominators lookup 23 subtable" six.dnom
Substitution2: "'numr' Numerators lookup 22 subtable" six.numr
Substitution2: "'sups' Superscript lookup 21 subtable" uni2076
Substitution2: "'subs' Subscript lookup 20 subtable" uni2086
AlternateSubs2: "'aalt' Access All Alternates lookup 1 subtable" uni2076 six.osf six.dnom six.numr uni2086
EndChar

StartChar: seven
Encoding: 55 55 26
Width: 600
Flags: W
LayerCount: 2
Fore
SplineSet
205 0 m 1,0,-1
 474 678 l 1,1,-1
 114 678 l 1,2,-1
 114 714 l 1,3,-1
 516 714 l 1,4,-1
 516 686 l 1,5,-1
 247 0 l 1,6,-1
 205 0 l 1,0,-1
EndSplineSet
Substitution2: "'onum' Oldstyle Figures lookup 31 subtable" seven.osf
Substitution2: "'frac' Diagonal Fractions lookup 25 subtable" seven.numr
Substitution2: "'dnom' Denominators lookup 23 subtable" seven.dnom
Substitution2: "'numr' Numerators lookup 22 subtable" seven.numr
Substitution2: "'sups' Superscript lookup 21 subtable" uni2077
Substitution2: "'subs' Subscript lookup 20 subtable" uni2087
AlternateSubs2: "'aalt' Access All Alternates lookup 1 subtable" uni2077 seven.osf seven.dnom seven.numr uni2087
EndChar

StartChar: eight
Encoding: 56 56 27
Width: 600
Flags: W
LayerCount: 2
Fore
SplineSet
281 -10 m 0,0,1
 220 -10 220 -10 173 13 c 128,-1,2
 126 36 126 36 99.5 78.5 c 128,-1,3
 73 121 73 121 73 177 c 0,4,5
 73 256 73 256 119.5 303.5 c 128,-1,6
 166 351 166 351 243 380 c 1,7,8
 203 397 203 397 169.5 420 c 128,-1,9
 136 443 136 443 116 476.5 c 128,-1,10
 96 510 96 510 96 557 c 0,11,12
 96 634 96 634 150 679 c 128,-1,13
 204 724 204 724 290 724 c 0,14,15
 344 724 344 724 386 705 c 128,-1,16
 428 686 428 686 452.5 649.5 c 128,-1,17
 477 613 477 613 477 562 c 0,18,19
 477 494 477 494 437 453 c 128,-1,20
 397 412 397 412 326 381 c 1,21,22
 409 349 409 349 455 302 c 128,-1,23
 501 255 501 255 501 181 c 0,24,25
 501 121 501 121 472.5 78.5 c 128,-1,26
 444 36 444 36 394 13 c 128,-1,27
 344 -10 344 -10 281 -10 c 0,0,1
287 399 m 1,28,29
 361 428 361 428 399.5 463.5 c 128,-1,30
 438 499 438 499 438 562 c 0,31,32
 438 622 438 622 398 655.5 c 128,-1,33
 358 689 358 689 289 689 c 256,34,35
 220 689 220 689 177.5 655 c 128,-1,36
 135 621 135 621 135 558 c 0,37,38
 135 514 135 514 154.5 485 c 128,-1,39
 174 456 174 456 208 436 c 128,-1,40
 242 416 242 416 287 399 c 1,28,29
282 25 m 0,41,42
 362 25 362 25 412 65.5 c 128,-1,43
 462 106 462 106 462 183 c 0,44,45
 462 224 462 224 444.5 255 c 128,-1,46
 427 286 427 286 387.5 311.5 c 128,-1,47
 348 337 348 337 282 362 c 1,48,49
 234 344 234 344 195.5 320 c 128,-1,50
 157 296 157 296 134.5 261.5 c 128,-1,51
 112 227 112 227 112 177 c 0,52,53
 112 109 112 109 157.5 67 c 128,-1,54
 203 25 203 25 282 25 c 0,41,42
EndSplineSet
Substitution2: "'onum' Oldstyle Figures lookup 31 subtable" eight.osf
Substitution2: "'frac' Diagonal Fractions lookup 25 subtable" eight.numr
Substitution2: "'dnom' Denominators lookup 23 subtable" eight.dnom
Substitution2: "'numr' Numerators lookup 22 subtable" eight.numr
Substitution2: "'sups' Superscript lookup 21 subtable" uni2078
Substitution2: "'subs' Subscript lookup 20 subtable" uni2088
AlternateSubs2: "'aalt' Access All Alternates lookup 1 subtable" uni2078 eight.osf eight.dnom eight.numr uni2088
EndChar

StartChar: nine
Encoding: 57 57 28
Width: 600
Flags: W
LayerCount: 2
Fore
SplineSet
227 -10 m 0,0,1
 197 -10 197 -10 169.5 -6.5 c 128,-1,2
 142 -3 142 -3 123 2 c 1,3,-1
 123 41 l 1,4,5
 140 34 140 34 168 29.5 c 128,-1,6
 196 25 196 25 226 25 c 0,7,8
 299 25 299 25 354 61.5 c 128,-1,9
 409 98 409 98 441 177.5 c 128,-1,10
 473 257 473 257 476 385 c 1,11,-1
 474 385 l 1,12,13
 460 357 460 357 434.5 331.5 c 128,-1,14
 409 306 409 306 370.5 290 c 128,-1,15
 332 274 332 274 280 274 c 0,16,17
 184 274 184 274 131 332 c 128,-1,18
 78 390 78 390 78 490 c 0,19,20
 78 560 78 560 103 613.5 c 128,-1,21
 128 667 128 667 175 696.5 c 128,-1,22
 222 726 222 726 288 726 c 0,23,24
 368 726 368 726 417.5 682 c 128,-1,25
 467 638 467 638 490.5 564 c 128,-1,26
 514 490 514 490 514 399 c 0,27,28
 514 196 514 196 438.5 93 c 128,-1,29
 363 -10 363 -10 227 -10 c 0,0,1
283 308 m 0,30,31
 340 308 340 308 382.5 331.5 c 128,-1,32
 425 355 425 355 448 390.5 c 128,-1,33
 471 426 471 426 471 462 c 0,34,35
 471 491 471 491 462.5 529.5 c 128,-1,36
 454 568 454 568 434 605 c 128,-1,37
 414 642 414 642 378 666 c 128,-1,38
 342 690 342 690 288 690 c 0,39,40
 206 690 206 690 161.5 637 c 128,-1,41
 117 584 117 584 117 490 c 0,42,43
 117 404 117 404 159 356 c 128,-1,44
 201 308 201 308 283 308 c 0,30,31
EndSplineSet
Substitution2: "'onum' Oldstyle Figures lookup 31 subtable" nine.osf
Substitution2: "'frac' Diagonal Fractions lookup 25 subtable" nine.numr
Substitution2: "'dnom' Denominators lookup 23 subtable" nine.dnom
Substitution2: "'numr' Numerators lookup 22 subtable" nine.numr
Substitution2: "'sups' Superscript lookup 21 subtable" uni2079
Substitution2: "'subs' Subscript lookup 20 subtable" uni2089
AlternateSubs2: "'aalt' Access All Alternates lookup 1 subtable" uni2079 nine.osf nine.dnom nine.numr uni2089
EndChar

StartChar: colon
Encoding: 58 58 29
Width: 600
Flags: W
LayerCount: 2
Fore
SplineSet
300 455 m 256,0,1
 280 455 280 455 272 466 c 128,-1,2
 264 477 264 477 264 496 c 256,3,4
 264 515 264 515 272 526.5 c 128,-1,5
 280 538 280 538 300 538 c 256,6,7
 320 538 320 538 327.5 526.5 c 128,-1,8
 335 515 335 515 335 496 c 256,9,10
 335 477 335 477 327.5 466 c 128,-1,11
 320 455 320 455 300 455 c 256,0,1
300 -12 m 256,12,13
 280 -12 280 -12 272 -0.5 c 128,-1,14
 264 11 264 11 264 30 c 256,15,16
 264 49 264 49 272 60.5 c 128,-1,17
 280 72 280 72 300 72 c 256,18,19
 320 72 320 72 327.5 60.5 c 128,-1,20
 335 49 335 49 335 30 c 256,21,22
 335 11 335 11 327.5 -0.5 c 128,-1,23
 320 -12 320 -12 300 -12 c 256,12,13
EndSplineSet
EndChar

StartChar: semicolon
Encoding: 59 59 30
Width: 600
Flags: W
LayerCount: 2
Fore
SplineSet
313 458 m 0,0,1
 296 458 296 458 288 468.5 c 128,-1,2
 280 479 280 479 280 496 c 256,3,4
 280 513 280 513 288 524 c 128,-1,5
 296 535 296 535 313 535 c 0,6,7
 332 535 332 535 339.5 524 c 128,-1,8
 347 513 347 513 347 496 c 256,9,10
 347 479 347 479 339.5 468.5 c 128,-1,11
 332 458 332 458 313 458 c 0,0,1
233 -131 m 1,12,13
 253 -60 253 -60 266.5 1 c 128,-1,14
 280 62 280 62 288 119 c 1,15,-1
 332 119 l 1,16,-1
 336 107 l 1,17,18
 324 51 324 51 306 -13.5 c 128,-1,19
 288 -78 288 -78 265 -131 c 1,20,-1
 233 -131 l 1,12,13
EndSplineSet
EndChar

StartChar: equal
Encoding: 61 61 32
Width: 600
Flags: W
LayerCount: 2
Fore
SplineSet
70 435 m 1,0,-1
 70 471 l 1,1,-1
 530 471 l 1,2,-1
 530 435 l 1,3,-1
 70 435 l 1,0,-1
70 235 m 1,4,-1
 70 271 l 1,5,-1
 530 271 l 1,6,-1
 530 235 l 1,7,-1
 70 235 l 1,4,-1
EndSplineSet
Substitution2: "'sups' Superscript lookup 21 subtable" uni207C
Substitution2: "'subs' Subscript lookup 20 subtable" uni208C
AlternateSubs2: "'aalt' Access All Alternates lookup 1 subtable" uni208C uni207C
EndChar

StartChar: greater
Encoding: 62 62 33
Width: 600
Flags: W
LayerCount: 2
Fore
SplineSet
75 134 m 1,0,-1
 75 170 l 1,1,-1
 478 360 l 1,2,-1
 75 554 l 1,3,-1
 75 590 l 1,4,-1
 525 371 l 1,5,-1
 525 347 l 1,6,-1
 75 134 l 1,0,-1
EndSplineSet
EndChar

StartChar: question
Encoding: 63 63 34
Width: 600
Flags: W
LayerCount: 2
Fore
SplineSet
236 180 m 1,0,-1
 236 193 l 2,1,2
 236 240 236 240 243.5 271 c 128,-1,3
 251 302 251 302 270.5 326 c 128,-1,4
 290 350 290 350 325 375 c 256,5,6
 360 400 360 400 385.5 424 c 128,-1,7
 411 448 411 448 424.5 478 c 128,-1,8
 438 508 438 508 438 552 c 0,9,10
 438 621 438 621 395.5 654.5 c 128,-1,11
 353 688 353 688 285 688 c 0,12,13
 245 688 245 688 210 679 c 128,-1,14
 175 670 175 670 138 652 c 1,15,-1
 123 688 l 1,16,17
 166 706 166 706 202 715 c 128,-1,18
 238 724 238 724 284 724 c 0,19,20
 372 724 372 724 424.5 681 c 128,-1,21
 477 638 477 638 477 553 c 0,22,23
 477 504 477 504 461 468.5 c 128,-1,24
 445 433 445 433 416.5 405.5 c 128,-1,25
 388 378 388 378 349 350 c 0,26,27
 320 330 320 330 303 309.5 c 128,-1,28
 286 289 286 289 279 261 c 128,-1,29
 272 233 272 233 272 191 c 2,30,-1
 272 180 l 1,31,-1
 236 180 l 1,0,-1
256 -12 m 0,32,33
 238 -12 238 -12 229.5 -0.5 c 128,-1,34
 221 11 221 11 221 30 c 256,35,36
 221 49 221 49 229.5 60.5 c 128,-1,37
 238 72 238 72 256 72 c 0,38,39
 278 72 278 72 285.5 60.5 c 128,-1,40
 293 49 293 49 293 30 c 256,41,42
 293 11 293 11 285.5 -0.5 c 128,-1,43
 278 -12 278 -12 256 -12 c 0,32,33
EndSplineSet
Substitution2: "'smcp' Lowercase to Small Capitals lookup 33 subtable" question.sc
Substitution2: "'c2sc' Capitals to Small Capitals lookup 32 subtable" question.sc
Substitution2: "'aalt' Access All Alternates lookup 0 subtable" question.sc
EndChar

StartChar: at
Encoding: 64 64 35
Width: 600
Flags: W
LayerCount: 2
Fore
SplineSet
325 -89 m 0,0,1
 226 -89 226 -89 157 -42 c 128,-1,2
 88 5 88 5 51.5 90.5 c 128,-1,3
 15 176 15 176 15 294 c 0,4,5
 15 426 15 426 53 519.5 c 128,-1,6
 91 613 91 613 159.5 663 c 128,-1,7
 228 713 228 713 318 713 c 0,8,9
 402 713 402 713 461.5 669.5 c 128,-1,10
 521 626 521 626 553 546 c 128,-1,11
 585 466 585 466 585 356 c 0,12,13
 585 290 585 290 572.5 235 c 128,-1,14
 560 180 560 180 534.5 146.5 c 128,-1,15
 509 113 509 113 470 113 c 0,16,17
 436 113 436 113 415 136.5 c 128,-1,18
 394 160 394 160 390 197 c 1,19,-1
 388 197 l 1,20,21
 374 158 374 158 345 135.5 c 128,-1,22
 316 113 316 113 278 113 c 0,23,24
 223 113 223 113 193 160 c 128,-1,25
 163 207 163 207 163 289 c 0,26,27
 163 355 163 355 182.5 405.5 c 128,-1,28
 202 456 202 456 239 485 c 128,-1,29
 276 514 276 514 327 514 c 0,30,31
 351 514 351 514 377 508.5 c 128,-1,32
 403 503 403 503 425 494 c 1,33,-1
 417 337 l 2,34,35
 416 321 416 321 415 298 c 128,-1,36
 414 275 414 275 414 257 c 0,37,38
 414 201 414 201 427 173.5 c 128,-1,39
 440 146 440 146 469 146 c 256,40,41
 498 146 498 146 515.5 173.5 c 128,-1,42
 533 201 533 201 541.5 248.5 c 128,-1,43
 550 296 550 296 550 354 c 0,44,45
 550 506 550 506 490 593 c 128,-1,46
 430 680 430 680 320 680 c 0,47,48
 239 680 239 680 178.5 634 c 128,-1,49
 118 588 118 588 84.5 501.5 c 128,-1,50
 51 415 51 415 51 293 c 0,51,52
 51 186 51 186 83 107.5 c 128,-1,53
 115 29 115 29 176 -13 c 128,-1,54
 237 -55 237 -55 324 -55 c 0,55,56
 369 -55 369 -55 412.5 -44 c 128,-1,57
 456 -33 456 -33 496 -13 c 1,58,-1
 496 -49 l 1,59,60
 459 -68 459 -68 415.5 -78.5 c 128,-1,61
 372 -89 372 -89 325 -89 c 0,0,1
283 146 m 0,62,63
 370 146 370 146 380 323 c 2,64,-1
 389 468 l 1,65,66
 356 482 356 482 326 482 c 0,67,68
 265 482 265 482 233 428.5 c 128,-1,69
 201 375 201 375 201 289 c 0,70,71
 201 220 201 220 221.5 183 c 128,-1,72
 242 146 242 146 283 146 c 0,62,63
EndSplineSet
EndChar

StartChar: A
Encoding: 65 65 36
Width: 600
GlyphClass: 2
Flags: W
AnchorPoint: "Anchor-4" 580 714 basechar 0
AnchorPoint: "Anchor-3" 300 714 basechar 0
AnchorPoint: "Anchor-2" 540 10 basechar 0
AnchorPoint: "Anchor-0" 300 0 basechar 0
LayerCount: 2
Fore
SplineSet
20 0 m 1,0,-1
 281 716 l 1,1,-1
 320 716 l 1,2,-1
 580 0 l 1,3,-1
 539 0 l 1,4,-1
 446 260 l 1,5,-1
 154 260 l 1,6,-1
 61 0 l 1,7,-1
 20 0 l 1,0,-1
268 576 m 2,8,-1
 168 297 l 1,9,-1
 433 297 l 1,10,-1
 333 576 l 2,11,12
 326 595 326 595 317 620 c 128,-1,13
 308 645 308 645 300 669 c 1,14,15
 292 645 292 645 284 620.5 c 128,-1,16
 276 596 276 596 268 576 c 2,8,-1
EndSplineSet
Substitution2: "'c2sc' Capitals to Small Capitals lookup 32 subtable" a.sc
Substitution2: "Single Substitution lookup 30 subtable" ordfeminine
AlternateSubs2: "'aalt' Access All Alternates lookup 1 subtable" ordfeminine a.sc
EndChar

StartChar: B
Encoding: 66 66 37
Width: 600
GlyphClass: 2
Flags: W
AnchorPoint: "Anchor-4" 580 714 basechar 0
AnchorPoint: "Anchor-3" 300 714 basechar 0
AnchorPoint: "Anchor-0" 300 0 basechar 0
LayerCount: 2
Fore
SplineSet
111 0 m 1,0,-1
 111 714 l 1,1,-1
 281 714 l 2,2,3
 408 714 408 714 465.5 672 c 128,-1,4
 523 630 523 630 523 541 c 0,5,6
 523 479 523 479 487.5 434 c 128,-1,7
 452 389 452 389 384 377 c 1,8,-1
 384 375 l 1,9,10
 467 362 467 362 504 318 c 128,-1,11
 541 274 541 274 541 204 c 0,12,13
 541 132 541 132 509 87 c 128,-1,14
 477 42 477 42 420.5 21 c 128,-1,15
 364 0 364 0 292 0 c 2,16,-1
 111 0 l 1,0,-1
149 393 m 1,17,-1
 288 393 l 2,18,19
 483 393 483 393 483 539 c 0,20,21
 483 613 483 613 434 645.5 c 128,-1,22
 385 678 385 678 275 678 c 2,23,-1
 149 678 l 1,24,-1
 149 393 l 1,17,-1
149 36 m 1,25,-1
 287 36 l 2,26,27
 390 36 390 36 445.5 77 c 128,-1,28
 501 118 501 118 501 204 c 0,29,30
 501 289 501 289 445 323 c 128,-1,31
 389 357 389 357 285 357 c 2,32,-1
 149 357 l 1,33,-1
 149 36 l 1,25,-1
EndSplineSet
Substitution2: "'c2sc' Capitals to Small Capitals lookup 32 subtable" b.sc
Substitution2: "'aalt' Access All Alternates lookup 0 subtable" b.sc
EndChar

StartChar: C
Encoding: 67 67 38
Width: 600
GlyphClass: 2
Flags: W
AnchorPoint: "Anchor-4" 580 714 basechar 0
AnchorPoint: "Anchor-3" 360 714 basechar 0
AnchorPoint: "Anchor-0" 348 0 basechar 0
LayerCount: 2
Fore
SplineSet
364 -10 m 0,0,1
 264 -10 264 -10 199 36 c 128,-1,2
 134 82 134 82 101.5 163.5 c 128,-1,3
 69 245 69 245 69 351 c 0,4,5
 69 464 69 464 105.5 548 c 128,-1,6
 142 632 142 632 211 678 c 128,-1,7
 280 724 280 724 379 724 c 0,8,9
 422 724 422 724 466 715 c 128,-1,10
 510 706 510 706 550 686 c 1,11,-1
 535 652 l 1,12,13
 494 672 494 672 453.5 680 c 128,-1,14
 413 688 413 688 380 688 c 0,15,16
 250 688 250 688 179.5 598 c 128,-1,17
 109 508 109 508 109 351 c 0,18,19
 109 255 109 255 137.5 182 c 128,-1,20
 166 109 166 109 223.5 68 c 128,-1,21
 281 27 281 27 368 27 c 0,22,23
 411 27 411 27 454 36.5 c 128,-1,24
 497 46 497 46 533 59 c 1,25,-1
 533 21 l 1,26,27
 499 8 499 8 457 -1 c 128,-1,28
 415 -10 415 -10 364 -10 c 0,0,1
EndSplineSet
Substitution2: "'c2sc' Capitals to Small Capitals lookup 32 subtable" c.sc
Substitution2: "'aalt' Access All Alternates lookup 0 subtable" c.sc
EndChar

StartChar: D
Encoding: 68 68 39
Width: 600
GlyphClass: 2
Flags: W
AnchorPoint: "Anchor-4" 600 714 basechar 0
AnchorPoint: "Anchor-3" 297 714 basechar 0
AnchorPoint: "Anchor-1" 287 357 basechar 0
AnchorPoint: "Anchor-0" 269 0 basechar 0
LayerCount: 2
Fore
SplineSet
90 0 m 1,0,-1
 90 714 l 1,1,-1
 238 714 l 2,2,3
 391 714 391 714 469 624.5 c 128,-1,4
 547 535 547 535 547 363 c 0,5,6
 547 184 547 184 465.5 92 c 128,-1,7
 384 0 384 0 227 0 c 2,8,-1
 90 0 l 1,0,-1
129 36 m 1,9,-1
 216 36 l 2,10,11
 364 36 364 36 435.5 117 c 128,-1,12
 507 198 507 198 507 362 c 0,13,14
 507 518 507 518 439.5 598 c 128,-1,15
 372 678 372 678 228 678 c 2,16,-1
 129 678 l 1,17,-1
 129 36 l 1,9,-1
EndSplineSet
Substitution2: "'c2sc' Capitals to Small Capitals lookup 32 subtable" d.sc
Substitution2: "'aalt' Access All Alternates lookup 0 subtable" d.sc
EndChar

StartChar: E
Encoding: 69 69 40
Width: 600
GlyphClass: 2
Flags: W
AnchorPoint: "Anchor-4" 580 714 basechar 0
AnchorPoint: "Anchor-3" 309 714 basechar 0
AnchorPoint: "Anchor-2" 457 10 basechar 0
AnchorPoint: "Anchor-0" 309 0 basechar 0
LayerCount: 2
Fore
SplineSet
111 0 m 1,0,-1
 111 714 l 1,1,-1
 511 714 l 1,2,-1
 511 678 l 1,3,-1
 150 678 l 1,4,-1
 150 394 l 1,5,-1
 491 394 l 1,6,-1
 491 358 l 1,7,-1
 150 358 l 1,8,-1
 150 36 l 1,9,-1
 511 36 l 1,10,-1
 511 0 l 1,11,-1
 111 0 l 1,0,-1
EndSplineSet
Substitution2: "'c2sc' Capitals to Small Capitals lookup 32 subtable" e.sc
Substitution2: "'aalt' Access All Alternates lookup 0 subtable" e.sc
EndChar

StartChar: F
Encoding: 70 70 41
Width: 600
GlyphClass: 2
Flags: W
AnchorPoint: "Anchor-4" 580 714 basechar 0
AnchorPoint: "Anchor-3" 321 714 basechar 0
AnchorPoint: "Anchor-0" 314 0 basechar 0
LayerCount: 2
Fore
SplineSet
111 0 m 1,0,-1
 111 714 l 1,1,-1
 511 714 l 1,2,-1
 511 678 l 1,3,-1
 150 678 l 1,4,-1
 150 360 l 1,5,-1
 492 360 l 1,6,-1
 492 324 l 1,7,-1
 150 324 l 1,8,-1
 150 0 l 1,9,-1
 111 0 l 1,0,-1
EndSplineSet
Substitution2: "'c2sc' Capitals to Small Capitals lookup 32 subtable" f.sc
Substitution2: "'aalt' Access All Alternates lookup 0 subtable" f.sc
EndChar

StartChar: G
Encoding: 71 71 42
Width: 600
GlyphClass: 2
Flags: W
AnchorPoint: "Anchor-4" 580 714 basechar 0
AnchorPoint: "Anchor-3" 325 714 basechar 0
AnchorPoint: "Anchor-0" 331 0 basechar 0
LayerCount: 2
Fore
SplineSet
327 -10 m 0,0,1
 192 -10 192 -10 122.5 84 c 128,-1,2
 53 178 53 178 53 344 c 0,3,4
 53 461 53 461 86.5 546.5 c 128,-1,5
 120 632 120 632 184 679 c 128,-1,6
 248 726 248 726 340 726 c 0,7,8
 380 726 380 726 422 716 c 128,-1,9
 464 706 464 706 502 684 c 1,10,-1
 486 651 l 1,11,12
 448 674 448 674 410 681.5 c 128,-1,13
 372 689 372 689 340 689 c 0,14,15
 221 689 221 689 157 597.5 c 128,-1,16
 93 506 93 506 93 344 c 0,17,18
 93 186 93 186 154.5 106 c 128,-1,19
 216 26 216 26 330 26 c 0,20,21
 370 26 370 26 406 35.5 c 128,-1,22
 442 45 442 45 472 59 c 1,23,-1
 472 319 l 1,24,-1
 316 319 l 1,25,-1
 316 355 l 1,26,-1
 510 355 l 1,27,-1
 510 34 l 1,28,29
 470 12 470 12 422 1 c 128,-1,30
 374 -10 374 -10 327 -10 c 0,0,1
EndSplineSet
Substitution2: "'c2sc' Capitals to Small Capitals lookup 32 subtable" g.sc
Substitution2: "'aalt' Access All Alternates lookup 0 subtable" g.sc
EndChar

StartChar: H
Encoding: 72 72 43
Width: 600
GlyphClass: 2
Flags: W
AnchorPoint: "Anchor-4" 600 714 basechar 0
AnchorPoint: "Anchor-3" 300 714 basechar 0
AnchorPoint: "Anchor-1" 300 377 basechar 0
AnchorPoint: "Anchor-0" 300 0 basechar 0
LayerCount: 2
Fore
SplineSet
90 0 m 1,0,-1
 90 714 l 1,1,-1
 129 714 l 1,2,-1
 129 393 l 1,3,-1
 471 393 l 1,4,-1
 471 714 l 1,5,-1
 510 714 l 1,6,-1
 510 0 l 1,7,-1
 471 0 l 1,8,-1
 471 357 l 1,9,-1
 129 357 l 1,10,-1
 129 0 l 1,11,-1
 90 0 l 1,0,-1
EndSplineSet
Substitution2: "'c2sc' Capitals to Small Capitals lookup 32 subtable" h.sc
Substitution2: "'aalt' Access All Alternates lookup 0 subtable" h.sc
EndChar

StartChar: I
Encoding: 73 73 44
Width: 600
GlyphClass: 2
Flags: W
AnchorPoint: "Anchor-4" 580 714 basechar 0
AnchorPoint: "Anchor-3" 300 714 basechar 0
AnchorPoint: "Anchor-2" 343 10 basechar 0
AnchorPoint: "Anchor-0" 300 0 basechar 0
LayerCount: 2
Fore
SplineSet
150 0 m 1,0,-1
 150 29 l 1,1,-1
 280 34 l 1,2,-1
 280 680 l 1,3,-1
 150 685 l 1,4,-1
 150 714 l 1,5,-1
 450 714 l 1,6,-1
 450 685 l 1,7,-1
 319 680 l 1,8,-1
 319 34 l 1,9,-1
 450 29 l 1,10,-1
 450 0 l 1,11,-1
 150 0 l 1,0,-1
EndSplineSet
Substitution2: "'c2sc' Capitals to Small Capitals lookup 32 subtable" i.sc
Substitution2: "'aalt' Access All Alternates lookup 0 subtable" i.sc
EndChar

StartChar: J
Encoding: 74 74 45
Width: 600
GlyphClass: 2
Flags: W
AnchorPoint: "Anchor-4" 580 714 basechar 0
AnchorPoint: "Anchor-3" 410 714 basechar 0
AnchorPoint: "Anchor-0" 300 0 basechar 0
LayerCount: 2
Fore
SplineSet
254 -14 m 0,0,1
 213 -14 213 -14 179 -3 c 128,-1,2
 145 8 145 8 116 25 c 1,3,-1
 116 65 l 1,4,5
 143 48 143 48 176.5 35 c 128,-1,6
 210 22 210 22 253 22 c 0,7,8
 326 22 326 22 358 68.5 c 128,-1,9
 390 115 390 115 390 209 c 2,10,-1
 390 714 l 1,11,-1
 429 714 l 1,12,-1
 429 200 l 2,13,14
 429 100 429 100 389 43 c 128,-1,15
 349 -14 349 -14 254 -14 c 0,0,1
EndSplineSet
Substitution2: "'c2sc' Capitals to Small Capitals lookup 32 subtable" j.sc
Substitution2: "'aalt' Access All Alternates lookup 0 subtable" j.sc
EndChar

StartChar: K
Encoding: 75 75 46
Width: 600
GlyphClass: 2
Flags: W
AnchorPoint: "Anchor-4" 580 714 basechar 0
AnchorPoint: "Anchor-3" 300 714 basechar 0
AnchorPoint: "Anchor-0" 318 0 basechar 0
LayerCount: 2
Fore
SplineSet
90 0 m 1,0,-1
 90 714 l 1,1,-1
 129 714 l 1,2,-1
 129 324 l 1,3,4
 143 342 143 342 155.5 357 c 128,-1,5
 168 372 168 372 185 389 c 2,6,-1
 485 714 l 1,7,-1
 535 714 l 1,8,-1
 257 412 l 1,9,-1
 542 0 l 1,10,-1
 497 0 l 1,11,-1
 231 386 l 1,12,-1
 129 282 l 1,13,-1
 129 0 l 1,14,-1
 90 0 l 1,0,-1
EndSplineSet
Substitution2: "'c2sc' Capitals to Small Capitals lookup 32 subtable" k.sc
Substitution2: "'aalt' Access All Alternates lookup 0 subtable" k.sc
EndChar

StartChar: L
Encoding: 76 76 47
Width: 600
GlyphClass: 2
Flags: W
AnchorPoint: "Anchor-4" 428 714 basechar 0
AnchorPoint: "Anchor-3" 163 714 basechar 0
AnchorPoint: "Anchor-1" 300 357 basechar 0
AnchorPoint: "Anchor-0" 338 0 basechar 0
LayerCount: 2
Fore
SplineSet
143 0 m 1,0,-1
 143 714 l 1,1,-1
 182 714 l 1,2,-1
 182 37 l 1,3,-1
 511 37 l 1,4,-1
 511 0 l 1,5,-1
 143 0 l 1,0,-1
EndSplineSet
Substitution2: "'c2sc' Capitals to Small Capitals lookup 32 subtable" l.sc
Substitution2: "'aalt' Access All Alternates lookup 0 subtable" l.sc
EndChar

StartChar: M
Encoding: 77 77 48
Width: 600
GlyphClass: 2
Flags: W
AnchorPoint: "Anchor-4" 600 714 basechar 0
AnchorPoint: "Anchor-3" 304 714 basechar 0
AnchorPoint: "Anchor-0" 300 0 basechar 0
LayerCount: 2
Fore
SplineSet
58 0 m 1,0,-1
 58 714 l 1,1,-1
 113 714 l 1,2,-1
 298 247 l 1,3,-1
 301 247 l 1,4,-1
 485 714 l 1,5,-1
 542 714 l 1,6,-1
 542 0 l 1,7,-1
 504 0 l 1,8,-1
 504 542 l 2,9,10
 504 573 504 573 504.5 604 c 128,-1,11
 505 635 505 635 506 664 c 1,12,-1
 504 664 l 1,13,-1
 319 198 l 1,14,-1
 280 198 l 1,15,-1
 94 665 l 1,16,-1
 92 665 l 1,17,18
 94 629 94 629 95 601.5 c 128,-1,19
 96 574 96 574 96 546 c 2,20,-1
 96 0 l 1,21,-1
 58 0 l 1,0,-1
EndSplineSet
Substitution2: "'c2sc' Capitals to Small Capitals lookup 32 subtable" m.sc
Substitution2: "'aalt' Access All Alternates lookup 0 subtable" m.sc
EndChar

StartChar: N
Encoding: 78 78 49
Width: 600
GlyphClass: 2
Flags: W
AnchorPoint: "Anchor-4" 600 714 basechar 0
AnchorPoint: "Anchor-3" 305 714 basechar 0
AnchorPoint: "Anchor-0" 300 0 basechar 0
LayerCount: 2
Fore
SplineSet
90 0 m 1,0,-1
 90 714 l 1,1,-1
 136 714 l 1,2,-1
 472 66 l 1,3,-1
 474 66 l 1,4,5
 472 106 472 106 472 146 c 128,-1,6
 472 186 472 186 472 220 c 2,7,-1
 472 714 l 1,8,-1
 510 714 l 1,9,-1
 510 0 l 1,10,-1
 466 0 l 1,11,-1
 127 656 l 1,12,-1
 125 656 l 1,13,14
 126 619 126 619 127 583 c 128,-1,15
 128 547 128 547 128 503 c 2,16,-1
 128 0 l 1,17,-1
 90 0 l 1,0,-1
EndSplineSet
Substitution2: "'c2sc' Capitals to Small Capitals lookup 32 subtable" n.sc
Substitution2: "'aalt' Access All Alternates lookup 0 subtable" n.sc
EndChar

StartChar: O
Encoding: 79 79 50
Width: 600
GlyphClass: 2
Flags: W
AnchorPoint: "Anchor-4" 600 714 basechar 0
AnchorPoint: "Anchor-3" 300 714 basechar 0
AnchorPoint: "Anchor-2" 301 10 basechar 0
AnchorPoint: "Anchor-1" 300 357 basechar 0
AnchorPoint: "Anchor-0" 300 0 basechar 0
LayerCount: 2
Fore
SplineSet
301 -10 m 0,0,1
 213 -10 213 -10 158.5 39.5 c 128,-1,2
 104 89 104 89 78.5 172.5 c 128,-1,3
 53 256 53 256 53 359 c 0,4,5
 53 528 53 528 116.5 626 c 128,-1,6
 180 724 180 724 302 724 c 0,7,8
 385 724 385 724 439.5 678.5 c 128,-1,9
 494 633 494 633 520.5 551.5 c 128,-1,10
 547 470 547 470 547 360 c 0,11,12
 547 255 547 255 521.5 171.5 c 128,-1,13
 496 88 496 88 442 39 c 128,-1,14
 388 -10 388 -10 301 -10 c 0,0,1
302 26 m 0,15,16
 406 26 406 26 456.5 115 c 128,-1,17
 507 204 507 204 507 358 c 0,18,19
 507 516 507 516 455.5 602 c 128,-1,20
 404 688 404 688 302 688 c 0,21,22
 232 688 232 688 185.5 647.5 c 128,-1,23
 139 607 139 607 115.5 532.5 c 128,-1,24
 92 458 92 458 92 358 c 0,25,26
 92 257 92 257 115 182.5 c 128,-1,27
 138 108 138 108 184.5 67 c 128,-1,28
 231 26 231 26 302 26 c 0,15,16
EndSplineSet
Substitution2: "'c2sc' Capitals to Small Capitals lookup 32 subtable" o.sc
Substitution2: "Single Substitution lookup 30 subtable" ordmasculine
AlternateSubs2: "'aalt' Access All Alternates lookup 1 subtable" ordmasculine o.sc
EndChar

StartChar: P
Encoding: 80 80 51
Width: 600
GlyphClass: 2
Flags: W
AnchorPoint: "Anchor-4" 600 714 basechar 0
AnchorPoint: "Anchor-3" 300 714 basechar 0
AnchorPoint: "Anchor-0" 300 0 basechar 0
LayerCount: 2
Fore
SplineSet
111 0 m 1,0,-1
 111 714 l 1,1,-1
 295 714 l 2,2,3
 418 714 418 714 479.5 666.5 c 128,-1,4
 541 619 541 619 541 514 c 0,5,6
 541 404 541 404 475 351.5 c 128,-1,7
 409 299 409 299 281 299 c 2,8,-1
 150 299 l 1,9,-1
 150 0 l 1,10,-1
 111 0 l 1,0,-1
150 335 m 1,11,-1
 278 335 l 2,12,13
 345 335 345 335 395 351 c 128,-1,14
 445 367 445 367 473 406 c 128,-1,15
 501 445 501 445 501 513 c 0,16,17
 501 602 501 602 449.5 640 c 128,-1,18
 398 678 398 678 290 678 c 2,19,-1
 150 678 l 1,20,-1
 150 335 l 1,11,-1
EndSplineSet
Substitution2: "'c2sc' Capitals to Small Capitals lookup 32 subtable" p.sc
Substitution2: "'aalt' Access All Alternates lookup 0 subtable" p.sc
EndChar

StartChar: Q
Encoding: 81 81 52
Width: 600
GlyphClass: 2
Flags: W
AnchorPoint: "Anchor-4" 600 714 basechar 0
AnchorPoint: "Anchor-3" 300 714 basechar 0
AnchorPoint: "Anchor-2" 301 10 basechar 0
AnchorPoint: "Anchor-1" 300 357 basechar 0
AnchorPoint: "Anchor-0" 300 -212 basechar 0
LayerCount: 2
Fore
SplineSet
301 -10 m 0,0,1
 213 -10 213 -10 158.5 39.5 c 128,-1,2
 104 89 104 89 78.5 172.5 c 128,-1,3
 53 256 53 256 53 359 c 0,4,5
 53 528 53 528 116.5 626 c 128,-1,6
 180 724 180 724 302 724 c 0,7,8
 385 724 385 724 439.5 678.5 c 128,-1,9
 494 633 494 633 520.5 551.5 c 128,-1,10
 547 470 547 470 547 360 c 0,11,12
 547 278 547 278 531.5 208.5 c 128,-1,13
 516 139 516 139 484 88 c 128,-1,14
 452 37 452 37 401 12 c 1,15,-1
 506 -172 l 1,16,-1
 462 -172 l 1,17,-1
 365 -2 l 1,18,19
 335 -10 335 -10 301 -10 c 0,0,1
302 26 m 0,20,21
 406 26 406 26 456.5 115 c 128,-1,22
 507 204 507 204 507 358 c 0,23,24
 507 516 507 516 455.5 602 c 128,-1,25
 404 688 404 688 302 688 c 0,26,27
 232 688 232 688 185.5 647.5 c 128,-1,28
 139 607 139 607 115.5 532.5 c 128,-1,29
 92 458 92 458 92 358 c 0,30,31
 92 257 92 257 115 182.5 c 128,-1,32
 138 108 138 108 184.5 67 c 128,-1,33
 231 26 231 26 302 26 c 0,20,21
EndSplineSet
Substitution2: "'c2sc' Capitals to Small Capitals lookup 32 subtable" q.sc
Substitution2: "'aalt' Access All Alternates lookup 0 subtable" q.sc
EndChar

StartChar: R
Encoding: 82 82 53
Width: 600
GlyphClass: 2
Flags: W
AnchorPoint: "Anchor-4" 580 714 basechar 0
AnchorPoint: "Anchor-3" 300 714 basechar 0
AnchorPoint: "Anchor-0" 338 0 basechar 0
LayerCount: 2
Fore
SplineSet
111 0 m 1,0,-1
 111 714 l 1,1,-1
 273 714 l 2,2,3
 352 714 352 714 409 695.5 c 128,-1,4
 466 677 466 677 496.5 634.5 c 128,-1,5
 527 592 527 592 527 519 c 0,6,7
 527 434 527 434 486 389 c 128,-1,8
 445 344 445 344 371 325 c 1,9,-1
 566 0 l 1,10,-1
 522 0 l 1,11,-1
 334 314 l 1,12,-1
 150 314 l 1,13,-1
 150 0 l 1,14,-1
 111 0 l 1,0,-1
150 350 m 1,15,-1
 297 350 l 2,16,17
 381 350 381 350 433.5 390 c 128,-1,18
 486 430 486 430 486 519 c 256,19,20
 486 608 486 608 429 643 c 128,-1,21
 372 678 372 678 268 678 c 2,22,-1
 150 678 l 1,23,-1
 150 350 l 1,15,-1
EndSplineSet
Substitution2: "'c2sc' Capitals to Small Capitals lookup 32 subtable" r.sc
Substitution2: "'aalt' Access All Alternates lookup 0 subtable" r.sc
EndChar

StartChar: S
Encoding: 83 83 54
Width: 600
GlyphClass: 2
Flags: W
AnchorPoint: "Anchor-4" 580 714 basechar 0
AnchorPoint: "Anchor-3" 321 714 basechar 0
AnchorPoint: "Anchor-0" 300 0 basechar 0
LayerCount: 2
Fore
SplineSet
279 -10 m 0,0,1
 222 -10 222 -10 171.5 0 c 128,-1,2
 121 10 121 10 89 21 c 1,3,-1
 89 61 l 1,4,5
 129 45 129 45 179.5 35.5 c 128,-1,6
 230 26 230 26 279 26 c 0,7,8
 339 26 339 26 385.5 42.5 c 128,-1,9
 432 59 432 59 459 93.5 c 128,-1,10
 486 128 486 128 486 182 c 0,11,12
 486 230 486 230 464 258 c 128,-1,13
 442 286 442 286 398.5 306 c 128,-1,14
 355 326 355 326 292 348 c 0,15,16
 236 368 236 368 192.5 389.5 c 128,-1,17
 149 411 149 411 124 446 c 128,-1,18
 99 481 99 481 99 539 c 0,19,20
 99 602 99 602 129 643 c 128,-1,21
 159 684 159 684 211 704 c 128,-1,22
 263 724 263 724 329 724 c 0,23,24
 374 724 374 724 419 715 c 128,-1,25
 464 706 464 706 507 687 c 1,26,-1
 492 653 l 1,27,28
 448 672 448 672 405.5 680 c 128,-1,29
 363 688 363 688 328 688 c 0,30,31
 278 688 278 688 235 673.5 c 128,-1,32
 192 659 192 659 165.5 626.5 c 128,-1,33
 139 594 139 594 139 540 c 0,34,35
 139 492 139 492 161.5 463.5 c 128,-1,36
 184 435 184 435 224 416.5 c 128,-1,37
 264 398 264 398 316 380 c 0,38,39
 377 358 377 358 424.5 336 c 128,-1,40
 472 314 472 314 499 279 c 128,-1,41
 526 244 526 244 526 183 c 0,42,43
 526 86 526 86 458.5 38 c 128,-1,44
 391 -10 391 -10 279 -10 c 0,0,1
EndSplineSet
Substitution2: "'c2sc' Capitals to Small Capitals lookup 32 subtable" s.sc
Substitution2: "'aalt' Access All Alternates lookup 0 subtable" s.sc
EndChar

StartChar: T
Encoding: 84 84 55
Width: 600
GlyphClass: 2
Flags: W
AnchorPoint: "Anchor-4" 580 714 basechar 0
AnchorPoint: "Anchor-3" 300 714 basechar 0
AnchorPoint: "Anchor-1" 300 357 basechar 0
AnchorPoint: "Anchor-0" 299 0 basechar 0
LayerCount: 2
Fore
SplineSet
280 0 m 1,0,-1
 280 678 l 1,1,-1
 49 678 l 1,2,-1
 49 714 l 1,3,-1
 551 714 l 1,4,-1
 551 678 l 1,5,-1
 320 678 l 1,6,-1
 320 0 l 1,7,-1
 280 0 l 1,0,-1
EndSplineSet
Substitution2: "'c2sc' Capitals to Small Capitals lookup 32 subtable" t.sc
Substitution2: "'aalt' Access All Alternates lookup 0 subtable" t.sc
EndChar

StartChar: U
Encoding: 85 85 56
Width: 600
GlyphClass: 2
Flags: W
AnchorPoint: "Anchor-4" 580 714 basechar 0
AnchorPoint: "Anchor-3" 300 714 basechar 0
AnchorPoint: "Anchor-2" 540 10 basechar 0
AnchorPoint: "Anchor-0" 300 0 basechar 0
LayerCount: 2
Fore
SplineSet
296 -10 m 0,0,1
 188 -10 188 -10 139 58 c 128,-1,2
 90 126 90 126 90 254 c 2,3,-1
 90 714 l 1,4,-1
 129 714 l 1,5,-1
 129 258 l 2,6,7
 129 145 129 145 168.5 85.5 c 128,-1,8
 208 26 208 26 298 26 c 0,9,10
 386 26 386 26 428.5 84 c 128,-1,11
 471 142 471 142 471 258 c 2,12,-1
 471 714 l 1,13,-1
 510 714 l 1,14,-1
 510 252 l 2,15,16
 510 123 510 123 456 56.5 c 128,-1,17
 402 -10 402 -10 296 -10 c 0,0,1
EndSplineSet
Substitution2: "'c2sc' Capitals to Small Capitals lookup 32 subtable" u.sc
Substitution2: "'aalt' Access All Alternates lookup 0 subtable" u.sc
EndChar

StartChar: V
Encoding: 86 86 57
Width: 600
GlyphClass: 2
Flags: W
AnchorPoint: "Anchor-4" 580 714 basechar 0
AnchorPoint: "Anchor-3" 300 714 basechar 0
AnchorPoint: "Anchor-0" 300 0 basechar 0
LayerCount: 2
Fore
SplineSet
280 0 m 1,0,-1
 37 714 l 1,1,-1
 78 714 l 1,2,-1
 264 165 l 2,3,4
 275 129 275 129 283.5 99.5 c 128,-1,5
 292 70 292 70 300 45 c 1,6,-1
 302 45 l 1,7,8
 310 70 310 70 318 100 c 128,-1,9
 326 130 326 130 338 165 c 2,10,-1
 521 714 l 1,11,-1
 563 714 l 1,12,-1
 321 0 l 1,13,-1
 280 0 l 1,0,-1
EndSplineSet
Substitution2: "'c2sc' Capitals to Small Capitals lookup 32 subtable" v.sc
Substitution2: "'aalt' Access All Alternates lookup 0 subtable" v.sc
EndChar

StartChar: W
Encoding: 87 87 58
Width: 600
GlyphClass: 2
Flags: W
AnchorPoint: "Anchor-4" 580 714 basechar 0
AnchorPoint: "Anchor-3" 300 714 basechar 0
AnchorPoint: "Anchor-0" 300 0 basechar 0
LayerCount: 2
Fore
SplineSet
145 0 m 1,0,-1
 37 714 l 1,1,-1
 75 714 l 1,2,3
 94 586 94 586 113 458 c 128,-1,4
 132 330 132 330 151 202 c 0,5,6
 158 148 158 148 162.5 110.5 c 128,-1,7
 167 73 167 73 170 43 c 1,8,-1
 172 43 l 1,9,10
 177 74 177 74 183.5 103.5 c 128,-1,11
 190 133 190 133 201 183 c 2,12,-1
 280 530 l 1,13,-1
 320 530 l 1,14,-1
 398 186 l 2,15,16
 408 144 408 144 415 111.5 c 128,-1,17
 422 79 422 79 428 43 c 1,18,-1
 430 43 l 1,19,20
 435 78 435 78 439 119 c 128,-1,21
 443 160 443 160 449 206 c 0,22,23
 468 333 468 333 487 460 c 128,-1,24
 506 587 506 587 525 714 c 1,25,-1
 563 714 l 1,26,-1
 455 0 l 1,27,-1
 408 0 l 1,28,-1
 323 376 l 2,29,30
 315 413 315 413 310.5 435 c 128,-1,31
 306 457 306 457 301 486 c 1,32,-1
 299 486 l 1,33,34
 294 457 294 457 289 435 c 128,-1,35
 284 413 284 413 276 376 c 2,36,-1
 192 0 l 1,37,-1
 145 0 l 1,0,-1
EndSplineSet
Substitution2: "'c2sc' Capitals to Small Capitals lookup 32 subtable" w.sc
Substitution2: "'aalt' Access All Alternates lookup 0 subtable" w.sc
EndChar

StartChar: X
Encoding: 88 88 59
Width: 600
GlyphClass: 2
Flags: W
AnchorPoint: "Anchor-4" 580 714 basechar 0
AnchorPoint: "Anchor-3" 300 714 basechar 0
AnchorPoint: "Anchor-0" 300 0 basechar 0
LayerCount: 2
Fore
SplineSet
47 0 m 1,0,-1
 282 371 l 1,1,-1
 70 714 l 1,2,-1
 114 714 l 1,3,-1
 302 403 l 1,4,-1
 492 714 l 1,5,-1
 536 714 l 1,6,-1
 321 372 l 1,7,-1
 553 0 l 1,8,-1
 509 0 l 1,9,-1
 302 341 l 1,10,-1
 91 0 l 1,11,-1
 47 0 l 1,0,-1
EndSplineSet
Substitution2: "'c2sc' Capitals to Small Capitals lookup 32 subtable" x.sc
Substitution2: "'aalt' Access All Alternates lookup 0 subtable" x.sc
EndChar

StartChar: Y
Encoding: 89 89 60
Width: 600
GlyphClass: 2
Flags: W
AnchorPoint: "Anchor-4" 580 714 basechar 0
AnchorPoint: "Anchor-3" 300 714 basechar 0
AnchorPoint: "Anchor-0" 300 0 basechar 0
LayerCount: 2
Fore
SplineSet
282 0 m 1,0,-1
 282 272 l 1,1,-1
 47 714 l 1,2,-1
 90 714 l 1,3,-1
 302 306 l 1,4,-1
 510 714 l 1,5,-1
 553 714 l 1,6,-1
 321 272 l 1,7,-1
 321 0 l 1,8,-1
 282 0 l 1,0,-1
EndSplineSet
Substitution2: "'c2sc' Capitals to Small Capitals lookup 32 subtable" y.sc
Substitution2: "'aalt' Access All Alternates lookup 0 subtable" y.sc
EndChar

StartChar: Z
Encoding: 90 90 61
Width: 600
GlyphClass: 2
Flags: W
AnchorPoint: "Anchor-4" 580 714 basechar 0
AnchorPoint: "Anchor-3" 316 714 basechar 0
AnchorPoint: "Anchor-0" 318 0 basechar 0
LayerCount: 2
Fore
SplineSet
111 0 m 1,0,-1
 111 29 l 1,1,-1
 442 678 l 1,2,-1
 137 678 l 1,3,-1
 137 714 l 1,4,-1
 487 714 l 1,5,-1
 487 685 l 1,6,-1
 157 36 l 1,7,-1
 497 36 l 1,8,-1
 497 0 l 1,9,-1
 111 0 l 1,0,-1
EndSplineSet
Substitution2: "'c2sc' Capitals to Small Capitals lookup 32 subtable" z.sc
Substitution2: "'aalt' Access All Alternates lookup 0 subtable" z.sc
EndChar

StartChar: bracketleft
Encoding: 91 91 62
Width: 600
Flags: W
LayerCount: 2
Fore
SplineSet
238 -158 m 1,0,-1
 238 714 l 1,1,-1
 443 714 l 1,2,-1
 443 680 l 1,3,-1
 276 680 l 1,4,-1
 276 -123 l 1,5,-1
 443 -123 l 1,6,-1
 443 -158 l 1,7,-1
 238 -158 l 1,0,-1
EndSplineSet
Substitution2: "'smcp' Lowercase to Small Capitals lookup 33 subtable" bracketleft.sc
Substitution2: "'c2sc' Capitals to Small Capitals lookup 32 subtable" bracketleft.sc
Substitution2: "'aalt' Access All Alternates lookup 0 subtable" bracketleft.sc
EndChar

StartChar: asciicircum
Encoding: 94 94 65
Width: 600
Flags: W
LayerCount: 2
Fore
SplineSet
59 276 m 1,0,-1
 290 719 l 1,1,-1
 319 719 l 1,2,-1
 541 276 l 1,3,-1
 502 276 l 1,4,-1
 304 674 l 1,5,-1
 98 276 l 1,6,-1
 59 276 l 1,0,-1
EndSplineSet
EndChar

StartChar: underscore
Encoding: 95 95 66
Width: 600
Flags: W
LayerCount: 2
Fore
SplineSet
0 -119 m 1,0,-1
 0 -83 l 1,1,-1
 600 -83 l 1,2,-1
 600 -119 l 1,3,-1
 0 -119 l 1,0,-1
EndSplineSet
EndChar

StartChar: grave
Encoding: 96 96 67
Width: 600
Flags: W
LayerCount: 2
Fore
SplineSet
353 606 m 1,0,1
 328 627 328 627 300 654.5 c 128,-1,2
 272 682 272 682 247.5 709 c 128,-1,3
 223 736 223 736 207 758 c 1,4,-1
 207 766 l 1,5,-1
 252 766 l 1,6,7
 266 744 266 744 288.5 716 c 128,-1,8
 311 688 311 688 336 660.5 c 128,-1,9
 361 633 361 633 382 613 c 1,10,-1
 382 606 l 1,11,-1
 353 606 l 1,0,1
EndSplineSet
EndChar

StartChar: a
Encoding: 97 97 68
Width: 600
GlyphClass: 2
Flags: W
AnchorPoint: "Anchor-4" 580 530 basechar 0
AnchorPoint: "Anchor-3" 305 530 basechar 0
AnchorPoint: "Anchor-2" 540 10 basechar 0
AnchorPoint: "Anchor-0" 305 0 basechar 0
LayerCount: 2
Fore
SplineSet
252 -10 m 0,0,1
 172 -10 172 -10 129 28 c 128,-1,2
 86 66 86 66 86 132 c 0,3,4
 86 217 86 217 153 256 c 128,-1,5
 220 295 220 295 335 300 c 2,6,-1
 457 305 l 1,7,-1
 457 344 l 2,8,9
 457 432 457 432 418 468 c 128,-1,10
 379 504 379 504 302 504 c 0,11,12
 264 504 264 504 225.5 494.5 c 128,-1,13
 187 485 187 485 146 464 c 1,14,-1
 133 497 l 1,15,16
 172 516 172 516 214.5 527.5 c 128,-1,17
 257 539 257 539 304 539 c 0,18,19
 398 539 398 539 446 494 c 128,-1,20
 494 449 494 449 494 352 c 2,21,-1
 494 0 l 1,22,-1
 462 0 l 1,23,-1
 457 97 l 1,24,-1
 454 97 l 1,25,26
 429 50 429 50 379 20 c 128,-1,27
 329 -10 329 -10 252 -10 c 0,0,1
257 25 m 0,28,29
 352 25 352 25 404.5 78 c 128,-1,30
 457 131 457 131 457 219 c 2,31,-1
 457 272 l 1,32,-1
 343 268 l 2,33,34
 243 264 243 264 184 233 c 128,-1,35
 125 202 125 202 125 132 c 0,36,37
 125 81 125 81 158.5 53 c 128,-1,38
 192 25 192 25 257 25 c 0,28,29
EndSplineSet
Substitution2: "'smcp' Lowercase to Small Capitals lookup 33 subtable" a.sc
Substitution2: "Single Substitution lookup 30 subtable" ordfeminine
AlternateSubs2: "'aalt' Access All Alternates lookup 1 subtable" ordfeminine a.sc
EndChar

StartChar: b
Encoding: 98 98 69
Width: 600
GlyphClass: 2
Flags: W
AnchorPoint: "Anchor-4" 580 760 basechar 0
AnchorPoint: "Anchor-3" 300 760 basechar 0
AnchorPoint: "Anchor-0" 300 0 basechar 0
LayerCount: 2
Fore
SplineSet
313 -10 m 0,0,1
 243 -10 243 -10 200.5 20.5 c 128,-1,2
 158 51 158 51 140 97 c 1,3,-1
 137 97 l 1,4,-1
 132 0 l 1,5,-1
 100 0 l 1,6,-1
 100 760 l 1,7,-1
 138 760 l 1,8,-1
 138 535 l 2,9,10
 138 510 138 510 138 476.5 c 128,-1,11
 138 443 138 443 136 412 c 1,12,-1
 138 412 l 1,13,14
 155 465 155 465 203 502 c 128,-1,15
 251 539 251 539 326 539 c 0,16,17
 426 539 426 539 479.5 469 c 128,-1,18
 533 399 533 399 533 272 c 0,19,20
 533 190 533 190 510 126 c 128,-1,21
 487 62 487 62 438.5 26 c 128,-1,22
 390 -10 390 -10 313 -10 c 0,0,1
310 25 m 0,23,24
 400 25 400 25 446.5 88 c 128,-1,25
 493 151 493 151 493 271 c 0,26,27
 493 380 493 380 451.5 442 c 128,-1,28
 410 504 410 504 321 504 c 0,29,30
 230 504 230 504 184 440.5 c 128,-1,31
 138 377 138 377 138 259 c 0,32,33
 138 144 138 144 180 84.5 c 128,-1,34
 222 25 222 25 310 25 c 0,23,24
EndSplineSet
Substitution2: "'smcp' Lowercase to Small Capitals lookup 33 subtable" b.sc
Substitution2: "'aalt' Access All Alternates lookup 0 subtable" b.sc
EndChar

StartChar: c
Encoding: 99 99 70
Width: 600
GlyphClass: 2
Flags: W
AnchorPoint: "Anchor-4" 580 530 basechar 0
AnchorPoint: "Anchor-3" 330 530 basechar 0
AnchorPoint: "Anchor-0" 334 0 basechar 0
LayerCount: 2
Fore
SplineSet
348 -10 m 0,0,1
 260 -10 260 -10 202.5 24 c 128,-1,2
 145 58 145 58 117 118.5 c 128,-1,3
 89 179 89 179 89 258 c 0,4,5
 89 391 89 391 163.5 465 c 128,-1,6
 238 539 238 539 366 539 c 0,7,8
 441 539 441 539 501 512 c 1,9,-1
 492 477 l 1,10,11
 461 490 461 490 428 496.5 c 128,-1,12
 395 503 395 503 365 503 c 0,13,14
 253 503 253 503 191 437.5 c 128,-1,15
 129 372 129 372 129 259 c 0,16,17
 129 192 129 192 152 139.5 c 128,-1,18
 175 87 175 87 224 56.5 c 128,-1,19
 273 26 273 26 350 26 c 0,20,21
 389 26 389 26 428.5 33.5 c 128,-1,22
 468 41 468 41 497 54 c 1,23,-1
 497 17 l 1,24,25
 471 6 471 6 431.5 -2 c 128,-1,26
 392 -10 392 -10 348 -10 c 0,0,1
EndSplineSet
Substitution2: "'smcp' Lowercase to Small Capitals lookup 33 subtable" c.sc
Substitution2: "'aalt' Access All Alternates lookup 0 subtable" c.sc
EndChar

StartChar: d
Encoding: 100 100 71
Width: 600
GlyphClass: 2
Flags: W
AnchorPoint: "Anchor-4" 580 760 basechar 0
AnchorPoint: "Anchor-3" 300 760 basechar 0
AnchorPoint: "Anchor-1" 300 265 basechar 0
AnchorPoint: "Anchor-0" 300 0 basechar 0
LayerCount: 2
Fore
SplineSet
280 -10 m 0,0,1
 175 -10 175 -10 121 59 c 128,-1,2
 67 128 67 128 67 257 c 0,3,4
 67 394 67 394 124.5 466.5 c 128,-1,5
 182 539 182 539 288 539 c 0,6,7
 362 539 362 539 403 503.5 c 128,-1,8
 444 468 444 468 461 421 c 1,9,-1
 464 421 l 1,10,11
 462 451 462 451 461.5 483 c 128,-1,12
 461 515 461 515 461 544 c 2,13,-1
 461 760 l 1,14,-1
 500 760 l 1,15,-1
 500 0 l 1,16,-1
 468 0 l 1,17,-1
 464 105 l 1,18,-1
 461 105 l 1,19,20
 441 55 441 55 398 22.5 c 128,-1,21
 355 -10 355 -10 280 -10 c 0,0,1
285 25 m 0,22,23
 380 25 380 25 420.5 87 c 128,-1,24
 461 149 461 149 461 260 c 2,25,-1
 461 266 l 2,26,27
 461 379 461 379 420 441.5 c 128,-1,28
 379 504 379 504 290 504 c 0,29,30
 203 504 203 504 155 442.5 c 128,-1,31
 107 381 107 381 107 256 c 0,32,33
 107 25 107 25 285 25 c 0,22,23
EndSplineSet
Substitution2: "'smcp' Lowercase to Small Capitals lookup 33 subtable" d.sc
Substitution2: "'aalt' Access All Alternates lookup 0 subtable" d.sc
EndChar

StartChar: e
Encoding: 101 101 72
Width: 600
GlyphClass: 2
Flags: W
AnchorPoint: "Anchor-4" 580 530 basechar 0
AnchorPoint: "Anchor-3" 303 530 basechar 0
AnchorPoint: "Anchor-2" 313 10 basechar 0
AnchorPoint: "Anchor-0" 310 0 basechar 0
LayerCount: 2
Fore
SplineSet
336 -10 m 0,0,1
 243 -10 243 -10 185 24 c 128,-1,2
 127 58 127 58 99.5 118 c 128,-1,3
 72 178 72 178 72 256 c 0,4,5
 72 336 72 336 99 400 c 128,-1,6
 126 464 126 464 180.5 501.5 c 128,-1,7
 235 539 235 539 317 539 c 0,8,9
 390 539 390 539 436.5 507 c 128,-1,10
 483 475 483 475 505.5 418.5 c 128,-1,11
 528 362 528 362 528 291 c 2,12,-1
 528 263 l 1,13,-1
 112 263 l 1,14,15
 113 148 113 148 167 86.5 c 128,-1,16
 221 25 221 25 338 25 c 0,17,18
 386 25 386 25 427.5 35 c 128,-1,19
 469 45 469 45 511 63 c 1,20,-1
 511 24 l 1,21,22
 470 7 470 7 425 -1.5 c 128,-1,23
 380 -10 380 -10 336 -10 c 0,0,1
113 298 m 1,24,-1
 488 298 l 1,25,26
 487 392 487 392 445 448 c 128,-1,27
 403 504 403 504 317 504 c 0,28,29
 234 504 234 504 178.5 451 c 128,-1,30
 123 398 123 398 113 298 c 1,24,-1
EndSplineSet
Substitution2: "'smcp' Lowercase to Small Capitals lookup 33 subtable" e.sc
Substitution2: "'aalt' Access All Alternates lookup 0 subtable" e.sc
EndChar

StartChar: f
Encoding: 102 102 73
Width: 600
GlyphClass: 2
Flags: W
AnchorPoint: "Anchor-4" 580 765 basechar 0
AnchorPoint: "Anchor-3" 417 765 basechar 0
AnchorPoint: "Anchor-0" 300 0 basechar 0
LayerCount: 2
Fore
SplineSet
266 0 m 1,0,-1
 266 494 l 1,1,-1
 88 494 l 1,2,-1
 88 524 l 1,3,-1
 266 530 l 1,4,-1
 266 602 l 2,5,6
 266 765 266 765 443 765 c 0,7,8
 473 765 473 765 507.5 760.5 c 128,-1,9
 542 756 542 756 562 751 c 1,10,-1
 555 717 l 1,11,12
 534 723 534 723 503.5 726.5 c 128,-1,13
 473 730 473 730 444 730 c 0,14,15
 374 730 374 730 340 700 c 128,-1,16
 306 670 306 670 306 591 c 2,17,-1
 306 530 l 1,18,-1
 529 530 l 1,19,-1
 529 494 l 1,20,-1
 306 494 l 1,21,-1
 306 0 l 1,22,-1
 266 0 l 1,0,-1
EndSplineSet
Substitution2: "'smcp' Lowercase to Small Capitals lookup 33 subtable" f.sc
Substitution2: "'aalt' Access All Alternates lookup 0 subtable" f.sc
EndChar

StartChar: g
Encoding: 103 103 74
Width: 600
GlyphClass: 2
Flags: W
AnchorPoint: "Anchor-4" 580 530 basechar 0
AnchorPoint: "Anchor-3" 300 530 basechar 0
AnchorPoint: "Anchor-0" 300 -247 basechar 0
LayerCount: 2
Fore
SplineSet
274 -247 m 0,0,1
 218 -247 218 -247 174.5 -236 c 128,-1,2
 131 -225 131 -225 95 -209 c 1,3,-1
 95 -169 l 1,4,5
 130 -188 130 -188 177 -200 c 128,-1,6
 224 -212 224 -212 275 -212 c 0,7,8
 378 -212 378 -212 420 -162 c 128,-1,9
 462 -112 462 -112 462 -28 c 2,10,-1
 462 15 l 2,11,12
 462 40 462 40 462 61 c 128,-1,13
 462 82 462 82 464 111 c 1,14,-1
 462 111 l 1,15,16
 442 52 442 52 395 21 c 128,-1,17
 348 -10 348 -10 280 -10 c 0,18,19
 180 -10 180 -10 123.5 58 c 128,-1,20
 67 126 67 126 67 259 c 0,21,22
 67 390 67 390 123.5 464.5 c 128,-1,23
 180 539 180 539 288 539 c 0,24,25
 358 539 358 539 397 511 c 128,-1,26
 436 483 436 483 459 440 c 1,27,-1
 462 440 l 1,28,-1
 468 530 l 1,29,-1
 500 530 l 1,30,-1
 500 -33 l 2,31,32
 500 -132 500 -132 448.5 -189.5 c 128,-1,33
 397 -247 397 -247 274 -247 c 0,0,1
286 25 m 0,34,35
 354 25 354 25 393 56.5 c 128,-1,36
 432 88 432 88 447.5 139 c 128,-1,37
 463 190 463 190 463 246 c 2,38,-1
 463 289 l 2,39,40
 463 352 463 352 446.5 400.5 c 128,-1,41
 430 449 430 449 393 476.5 c 128,-1,42
 356 504 356 504 292 504 c 0,43,44
 197 504 197 504 152 439 c 128,-1,45
 107 374 107 374 107 260 c 0,46,47
 107 144 107 144 151.5 84.5 c 128,-1,48
 196 25 196 25 286 25 c 0,34,35
EndSplineSet
Substitution2: "'smcp' Lowercase to Small Capitals lookup 33 subtable" g.sc
Substitution2: "'aalt' Access All Alternates lookup 0 subtable" g.sc
EndChar

StartChar: h
Encoding: 104 104 75
Width: 600
GlyphClass: 2
Flags: W
AnchorPoint: "Anchor-4" 580 760 basechar 0
AnchorPoint: "Anchor-3" 118 760 basechar 0
AnchorPoint: "Anchor-1" 300 265 basechar 0
AnchorPoint: "Anchor-0" 300 0 basechar 0
LayerCount: 2
Fore
SplineSet
100 0 m 1,0,-1
 100 760 l 1,1,-1
 139 760 l 1,2,-1
 139 506 l 2,3,4
 139 483 139 483 138.5 462.5 c 128,-1,5
 138 442 138 442 137 420 c 1,6,-1
 139 420 l 1,7,8
 156 470 156 470 201.5 504.5 c 128,-1,9
 247 539 247 539 324 539 c 0,10,11
 408 539 408 539 456.5 493 c 128,-1,12
 505 447 505 447 505 350 c 2,13,-1
 505 0 l 1,14,-1
 466 0 l 1,15,-1
 466 342 l 2,16,17
 466 427 466 427 427 465.5 c 128,-1,18
 388 504 388 504 318 504 c 0,19,20
 238 504 238 504 188.5 453 c 128,-1,21
 139 402 139 402 139 297 c 2,22,-1
 139 0 l 1,23,-1
 100 0 l 1,0,-1
EndSplineSet
Substitution2: "'smcp' Lowercase to Small Capitals lookup 33 subtable" h.sc
Substitution2: "'subs' Subscript lookup 20 subtable" uni2095
AlternateSubs2: "'aalt' Access All Alternates lookup 1 subtable" h.sc uni2095
EndChar

StartChar: i
Encoding: 105 105 76
Width: 600
GlyphClass: 2
Flags: W
AnchorPoint: "Anchor-4" 492 739 basechar 0
AnchorPoint: "Anchor-3" 313 739 basechar 0
AnchorPoint: "Anchor-0" 321 0 basechar 0
LayerCount: 2
Fore
SplineSet
315 655 m 0,0,1
 295 655 295 655 286 666.5 c 128,-1,2
 277 678 277 678 277 697 c 0,3,4
 277 715 277 715 285.5 727 c 128,-1,5
 294 739 294 739 315 739 c 0,6,7
 334 739 334 739 343 727 c 128,-1,8
 352 715 352 715 352 697 c 0,9,10
 352 680 352 680 344 667.5 c 128,-1,11
 336 655 336 655 315 655 c 0,0,1
96 0 m 1,12,-1
 96 29 l 1,13,-1
 300 35 l 1,14,-1
 300 494 l 1,15,-1
 114 500 l 1,16,-1
 114 530 l 1,17,-1
 339 530 l 1,18,-1
 339 35 l 1,19,-1
 532 29 l 1,20,-1
 532 0 l 1,21,-1
 96 0 l 1,12,-1
EndSplineSet
Substitution2: "'smcp' Lowercase to Small Capitals lookup 33 subtable" i.sc
Substitution2: "Single Substitution lookup 5 subtable" dotlessi
Substitution2: "Single Substitution lookup 4 subtable" dotlessi
AlternateSubs2: "'aalt' Access All Alternates lookup 1 subtable" dotlessi i.sc
EndChar

StartChar: j
Encoding: 106 106 77
Width: 600
GlyphClass: 2
Flags: W
AnchorPoint: "Anchor-4" 580 739 basechar 0
AnchorPoint: "Anchor-3" 340 739 basechar 0
AnchorPoint: "Anchor-0" 249 -247 basechar 0
LayerCount: 2
Fore
SplineSet
340 655 m 0,0,1
 320 655 320 655 311 666.5 c 128,-1,2
 302 678 302 678 302 697 c 0,3,4
 302 715 302 715 310.5 727 c 128,-1,5
 319 739 319 739 340 739 c 0,6,7
 360 739 360 739 368.5 727 c 128,-1,8
 377 715 377 715 377 697 c 0,9,10
 377 680 377 680 369 667.5 c 128,-1,11
 361 655 361 655 340 655 c 0,0,1
199 -247 m 0,12,13
 163 -247 163 -247 127 -240 c 128,-1,14
 91 -233 91 -233 76 -228 c 1,15,-1
 76 -190 l 1,16,17
 88 -195 88 -195 108.5 -200 c 128,-1,18
 129 -205 129 -205 153 -208 c 128,-1,19
 177 -211 177 -211 197 -211 c 0,20,21
 263 -211 263 -211 294 -174.5 c 128,-1,22
 325 -138 325 -138 325 -72 c 2,23,-1
 325 494 l 1,24,-1
 139 500 l 1,25,-1
 139 530 l 1,26,-1
 364 530 l 1,27,-1
 364 -81 l 2,28,29
 364 -164 364 -164 319.5 -205.5 c 128,-1,30
 275 -247 275 -247 199 -247 c 0,12,13
EndSplineSet
Substitution2: "'smcp' Lowercase to Small Capitals lookup 33 subtable" j.sc
Substitution2: "Single Substitution lookup 5 subtable" uni0237
Substitution2: "Single Substitution lookup 4 subtable" uni0237
AlternateSubs2: "'aalt' Access All Alternates lookup 1 subtable" uni0237 j.sc
EndChar

StartChar: k
Encoding: 107 107 78
Width: 600
GlyphClass: 2
Flags: W
AnchorPoint: "Anchor-4" 580 760 basechar 0
AnchorPoint: "Anchor-3" 340 760 basechar 0
AnchorPoint: "Anchor-0" 335 0 basechar 0
LayerCount: 2
Fore
SplineSet
133 0 m 1,0,-1
 133 760 l 1,1,-1
 172 760 l 1,2,-1
 172 387 l 2,3,4
 172 342 172 342 171.5 298.5 c 128,-1,5
 171 255 171 255 170 210 c 1,6,-1
 172 210 l 1,7,8
 204 244 204 244 241 282 c 2,9,-1
 482 530 l 1,10,-1
 531 530 l 1,11,-1
 323 313 l 1,12,-1
 550 0 l 1,13,-1
 504 0 l 1,14,-1
 297 288 l 1,15,-1
 172 169 l 1,16,-1
 172 0 l 1,17,-1
 133 0 l 1,0,-1
EndSplineSet
Substitution2: "'smcp' Lowercase to Small Capitals lookup 33 subtable" k.sc
Substitution2: "'subs' Subscript lookup 20 subtable" uni2096
AlternateSubs2: "'aalt' Access All Alternates lookup 1 subtable" k.sc uni2096
EndChar

StartChar: l
Encoding: 108 108 79
Width: 600
GlyphClass: 2
Flags: W
AnchorPoint: "Anchor-4" 487 760 basechar 0
AnchorPoint: "Anchor-3" 300 760 basechar 0
AnchorPoint: "Anchor-1" 316 381 basechar 0
AnchorPoint: "Anchor-0" 316 0 basechar 0
LayerCount: 2
Fore
SplineSet
96 0 m 1,0,-1
 96 29 l 1,1,-1
 296 35 l 1,2,-1
 296 725 l 1,3,-1
 115 731 l 1,4,-1
 115 760 l 1,5,-1
 335 760 l 1,6,-1
 335 35 l 1,7,-1
 532 29 l 1,8,-1
 532 0 l 1,9,-1
 96 0 l 1,0,-1
EndSplineSet
Substitution2: "'smcp' Lowercase to Small Capitals lookup 33 subtable" l.sc
Substitution2: "'subs' Subscript lookup 20 subtable" uni2097
AlternateSubs2: "'aalt' Access All Alternates lookup 1 subtable" l.sc uni2097
EndChar

StartChar: m
Encoding: 109 109 80
Width: 600
GlyphClass: 2
Flags: W
AnchorPoint: "Anchor-4" 580 530 basechar 0
AnchorPoint: "Anchor-3" 314 530 basechar 0
AnchorPoint: "Anchor-0" 303 0 basechar 0
LayerCount: 2
Fore
SplineSet
66 0 m 1,0,-1
 66 529 l 1,1,-1
 94 529 l 1,2,-1
 99 440 l 1,3,-1
 101 440 l 1,4,5
 110 464 110 464 123 486.5 c 128,-1,6
 136 509 136 509 157 524 c 128,-1,7
 178 539 178 539 211 539 c 0,8,9
 260 539 260 539 282.5 509.5 c 128,-1,10
 305 480 305 480 312 439 c 1,11,-1
 315 439 l 1,12,13
 330 482 330 482 356 510.5 c 128,-1,14
 382 539 382 539 430 539 c 0,15,16
 482 539 482 539 510 499 c 128,-1,17
 538 459 538 459 538 375 c 2,18,-1
 538 0 l 1,19,-1
 501 0 l 1,20,-1
 501 364 l 2,21,22
 501 439 501 439 480.5 471 c 128,-1,23
 460 503 460 503 423 503 c 0,24,25
 376 503 376 503 349 455 c 128,-1,26
 322 407 322 407 322 326 c 2,27,-1
 322 0 l 1,28,-1
 285 0 l 1,29,-1
 285 351 l 2,30,31
 285 438 285 438 262.5 470.5 c 128,-1,32
 240 503 240 503 205 503 c 0,33,34
 168 503 168 503 145.5 475 c 128,-1,35
 123 447 123 447 113 404 c 128,-1,36
 103 361 103 361 103 316 c 2,37,-1
 103 0 l 1,38,-1
 66 0 l 1,0,-1
EndSplineSet
Substitution2: "'smcp' Lowercase to Small Capitals lookup 33 subtable" m.sc
Substitution2: "'subs' Subscript lookup 20 subtable" uni2098
AlternateSubs2: "'aalt' Access All Alternates lookup 1 subtable" m.sc uni2098
EndChar

StartChar: n
Encoding: 110 110 81
Width: 600
GlyphClass: 2
Flags: W
AnchorPoint: "Anchor-4" 580 530 basechar 0
AnchorPoint: "Anchor-3" 309 530 basechar 0
AnchorPoint: "Anchor-0" 308 0 basechar 0
LayerCount: 2
Fore
SplineSet
100 0 m 1,0,-1
 100 530 l 1,1,-1
 132 530 l 1,2,-1
 137 425 l 1,3,-1
 140 425 l 1,4,5
 158 471 158 471 202 505 c 128,-1,6
 246 539 246 539 325 539 c 0,7,8
 408 539 408 539 456.5 493.5 c 128,-1,9
 505 448 505 448 505 355 c 2,10,-1
 505 0 l 1,11,-1
 466 0 l 1,12,-1
 466 344 l 2,13,14
 466 428 466 428 428 466 c 128,-1,15
 390 504 390 504 319 504 c 0,16,17
 236 504 236 504 187.5 453 c 128,-1,18
 139 402 139 402 139 297 c 2,19,-1
 139 0 l 1,20,-1
 100 0 l 1,0,-1
EndSplineSet
Substitution2: "'smcp' Lowercase to Small Capitals lookup 33 subtable" n.sc
Substitution2: "'sups' Superscript lookup 21 subtable" nsuperior
Substitution2: "'subs' Subscript lookup 20 subtable" uni2099
AlternateSubs2: "'aalt' Access All Alternates lookup 1 subtable" nsuperior n.sc uni2099
EndChar

StartChar: o
Encoding: 111 111 82
Width: 600
GlyphClass: 2
Flags: W
AnchorPoint: "Anchor-4" 580 530 basechar 0
AnchorPoint: "Anchor-3" 300 530 basechar 0
AnchorPoint: "Anchor-2" 300 10 basechar 0
AnchorPoint: "Anchor-1" 300 265 basechar 0
AnchorPoint: "Anchor-0" 300 0 basechar 0
LayerCount: 2
Fore
SplineSet
300 -10 m 0,0,1
 224 -10 224 -10 172 25 c 128,-1,2
 120 60 120 60 93.5 122 c 128,-1,3
 67 184 67 184 67 265 c 0,4,5
 67 394 67 394 130.5 466.5 c 128,-1,6
 194 539 194 539 304 539 c 0,7,8
 382 539 382 539 433 503.5 c 128,-1,9
 484 468 484 468 508.5 407 c 128,-1,10
 533 346 533 346 533 267 c 0,11,12
 533 185 533 185 507 122.5 c 128,-1,13
 481 60 481 60 429 25 c 128,-1,14
 377 -10 377 -10 300 -10 c 0,0,1
300 25 m 0,15,16
 366 25 366 25 409 55.5 c 128,-1,17
 452 86 452 86 472.5 140.5 c 128,-1,18
 493 195 493 195 493 266 c 0,19,20
 493 334 493 334 474 387.5 c 128,-1,21
 455 441 455 441 413.5 472.5 c 128,-1,22
 372 504 372 504 304 504 c 0,23,24
 210 504 210 504 158.5 440.5 c 128,-1,25
 107 377 107 377 107 264 c 0,26,27
 107 157 107 157 154.5 91 c 128,-1,28
 202 25 202 25 300 25 c 0,15,16
EndSplineSet
Substitution2: "'smcp' Lowercase to Small Capitals lookup 33 subtable" o.sc
Substitution2: "Single Substitution lookup 30 subtable" ordmasculine
AlternateSubs2: "'aalt' Access All Alternates lookup 1 subtable" ordmasculine o.sc
EndChar

StartChar: p
Encoding: 112 112 83
Width: 600
GlyphClass: 2
Flags: W
AnchorPoint: "Anchor-4" 580 530 basechar 0
AnchorPoint: "Anchor-3" 318 530 basechar 0
AnchorPoint: "Anchor-0" 318 -240 basechar 0
LayerCount: 2
Fore
SplineSet
100 -240 m 1,0,-1
 100 530 l 1,1,-1
 132 530 l 1,2,-1
 136 412 l 1,3,-1
 139 412 l 1,4,5
 151 445 151 445 175.5 474 c 128,-1,6
 200 503 200 503 238 521 c 128,-1,7
 276 539 276 539 328 539 c 0,8,9
 427 539 427 539 480 470.5 c 128,-1,10
 533 402 533 402 533 271 c 0,11,12
 533 134 533 134 476.5 62 c 128,-1,13
 420 -10 420 -10 319 -10 c 0,14,15
 245 -10 245 -10 201 25.5 c 128,-1,16
 157 61 157 61 139 109 c 1,17,-1
 136 109 l 1,18,19
 139 48 139 48 139 -14 c 2,20,-1
 139 -240 l 1,21,-1
 100 -240 l 1,0,-1
316 25 m 0,22,23
 402 25 402 25 447.5 86.5 c 128,-1,24
 493 148 493 148 493 272 c 0,25,26
 493 390 493 390 451 447 c 128,-1,27
 409 504 409 504 324 504 c 0,28,29
 234 504 234 504 186.5 442.5 c 128,-1,30
 139 381 139 381 139 270 c 2,31,-1
 139 263 l 2,32,33
 139 143 139 143 185.5 84 c 128,-1,34
 232 25 232 25 316 25 c 0,22,23
EndSplineSet
Substitution2: "'smcp' Lowercase to Small Capitals lookup 33 subtable" p.sc
Substitution2: "'subs' Subscript lookup 20 subtable" uni209A
AlternateSubs2: "'aalt' Access All Alternates lookup 1 subtable" p.sc uni209A
EndChar

StartChar: q
Encoding: 113 113 84
Width: 600
GlyphClass: 2
Flags: W
AnchorPoint: "Anchor-4" 580 530 basechar 0
AnchorPoint: "Anchor-3" 288 530 basechar 0
AnchorPoint: "Anchor-0" 288 -240 basechar 0
LayerCount: 2
Fore
SplineSet
461 -240 m 1,0,-1
 461 0 l 2,1,2
 461 23 461 23 461.5 56 c 128,-1,3
 462 89 462 89 463 113 c 1,4,-1
 461 113 l 1,5,6
 441 60 441 60 396 25 c 128,-1,7
 351 -10 351 -10 276 -10 c 0,8,9
 175 -10 175 -10 121 59.5 c 128,-1,10
 67 129 67 129 67 257 c 0,11,12
 67 340 67 340 90.5 403.5 c 128,-1,13
 114 467 114 467 162 503 c 128,-1,14
 210 539 210 539 284 539 c 0,15,16
 356 539 356 539 398.5 506.5 c 128,-1,17
 441 474 441 474 460 431 c 1,18,-1
 462 431 l 1,19,-1
 468 530 l 1,20,-1
 500 530 l 1,21,-1
 500 -240 l 1,22,-1
 461 -240 l 1,0,-1
280 25 m 0,23,24
 371 25 371 25 416 87 c 128,-1,25
 461 149 461 149 461 261 c 2,26,-1
 461 273 l 2,27,28
 461 386 461 386 417.5 445 c 128,-1,29
 374 504 374 504 286 504 c 0,30,31
 197 504 197 504 152 440 c 128,-1,32
 107 376 107 376 107 258 c 0,33,34
 107 145 107 145 149.5 85 c 128,-1,35
 192 25 192 25 280 25 c 0,23,24
EndSplineSet
Substitution2: "'smcp' Lowercase to Small Capitals lookup 33 subtable" q.sc
Substitution2: "'aalt' Access All Alternates lookup 0 subtable" q.sc
EndChar

StartChar: r
Encoding: 114 114 85
Width: 600
GlyphClass: 2
Flags: W
AnchorPoint: "Anchor-4" 580 530 basechar 0
AnchorPoint: "Anchor-3" 345 530 basechar 0
AnchorPoint: "Anchor-0" 283 0 basechar 0
LayerCount: 2
Fore
SplineSet
92 0 m 1,0,-1
 92 29 l 1,1,-1
 264 35 l 1,2,-1
 264 494 l 1,3,-1
 110 500 l 1,4,-1
 110 530 l 1,5,-1
 299 530 l 1,6,-1
 302 413 l 1,7,-1
 305 413 l 1,8,9
 321 467 321 467 363 502.5 c 128,-1,10
 405 538 405 538 471 538 c 0,11,12
 499 538 499 538 525 533.5 c 128,-1,13
 551 529 551 529 568 523 c 1,14,-1
 558 486 l 1,15,16
 540 493 540 493 517.5 497 c 128,-1,17
 495 501 495 501 470 501 c 0,18,19
 388 501 388 501 345.5 438 c 128,-1,20
 303 375 303 375 303 272 c 2,21,-1
 303 35 l 1,22,-1
 494 29 l 1,23,-1
 494 0 l 1,24,-1
 92 0 l 1,0,-1
EndSplineSet
Substitution2: "'smcp' Lowercase to Small Capitals lookup 33 subtable" r.sc
Substitution2: "'aalt' Access All Alternates lookup 0 subtable" r.sc
EndChar

StartChar: s
Encoding: 115 115 86
Width: 600
GlyphClass: 2
Flags: W
AnchorPoint: "Anchor-4" 580 530 basechar 0
AnchorPoint: "Anchor-3" 301 530 basechar 0
AnchorPoint: "Anchor-0" 301 0 basechar 0
LayerCount: 2
Fore
SplineSet
288 -10 m 0,0,1
 238 -10 238 -10 192 1 c 128,-1,2
 146 12 146 12 117 25 c 1,3,-1
 117 65 l 1,4,5
 156 46 156 46 199 35.5 c 128,-1,6
 242 25 242 25 289 25 c 0,7,8
 373 25 373 25 408 54 c 128,-1,9
 443 83 443 83 443 133 c 0,10,11
 443 171 443 171 424.5 193 c 128,-1,12
 406 215 406 215 373 229 c 128,-1,13
 340 243 340 243 295 258 c 0,14,15
 252 272 252 272 215 287.5 c 128,-1,16
 178 303 178 303 155 329.5 c 128,-1,17
 132 356 132 356 132 404 c 0,18,19
 132 470 132 470 180 504.5 c 128,-1,20
 228 539 228 539 316 539 c 0,21,22
 361 539 361 539 399 530.5 c 128,-1,23
 437 522 437 522 471 509 c 1,24,-1
 457 475 l 1,25,26
 394 504 394 504 316 504 c 0,27,28
 172 504 172 504 172 405 c 0,29,30
 172 370 172 370 189 350 c 128,-1,31
 206 330 206 330 237.5 317 c 128,-1,32
 269 304 269 304 312 290 c 0,33,34
 363 273 363 273 401.5 255.5 c 128,-1,35
 440 238 440 238 461.5 211 c 128,-1,36
 483 184 483 184 483 136 c 0,37,38
 483 68 483 68 435.5 29 c 128,-1,39
 388 -10 388 -10 288 -10 c 0,0,1
EndSplineSet
Substitution2: "'smcp' Lowercase to Small Capitals lookup 33 subtable" s.sc
Substitution2: "'subs' Subscript lookup 20 subtable" uni209B
AlternateSubs2: "'aalt' Access All Alternates lookup 1 subtable" s.sc uni209B
EndChar

StartChar: t
Encoding: 116 116 87
Width: 600
GlyphClass: 2
Flags: W
AnchorPoint: "Anchor-4" 580 663 basechar 0
AnchorPoint: "Anchor-3" 267 663 basechar 0
AnchorPoint: "Anchor-1" 264 265 basechar 0
AnchorPoint: "Anchor-0" 384 0 basechar 0
LayerCount: 2
Fore
SplineSet
409 -10 m 0,0,1
 320 -10 320 -10 282 38 c 128,-1,2
 244 86 244 86 244 177 c 2,3,-1
 244 494 l 1,4,-1
 78 494 l 1,5,-1
 78 524 l 1,6,-1
 243 530 l 1,7,-1
 251 663 l 1,8,-1
 283 663 l 1,9,-1
 283 530 l 1,10,-1
 499 530 l 1,11,-1
 499 494 l 1,12,-1
 283 494 l 1,13,-1
 283 182 l 2,14,15
 283 106 283 106 309.5 65.5 c 128,-1,16
 336 25 336 25 410 25 c 0,17,18
 436 25 436 25 457 28.5 c 128,-1,19
 478 32 478 32 495 38 c 1,20,-1
 495 4 l 1,21,22
 477 -2 477 -2 457 -6 c 128,-1,23
 437 -10 437 -10 409 -10 c 0,0,1
EndSplineSet
Substitution2: "'smcp' Lowercase to Small Capitals lookup 33 subtable" t.sc
Substitution2: "'subs' Subscript lookup 20 subtable" uni209C
AlternateSubs2: "'aalt' Access All Alternates lookup 1 subtable" t.sc uni209C
EndChar

StartChar: u
Encoding: 117 117 88
Width: 600
GlyphClass: 2
Flags: W
AnchorPoint: "Anchor-4" 580 530 basechar 0
AnchorPoint: "Anchor-3" 300 530 basechar 0
AnchorPoint: "Anchor-2" 540 10 basechar 0
AnchorPoint: "Anchor-0" 300 0 basechar 0
LayerCount: 2
Fore
SplineSet
277 -10 m 0,0,1
 95 -10 95 -10 95 191 c 2,2,-1
 95 530 l 1,3,-1
 134 530 l 1,4,-1
 134 197 l 2,5,6
 134 108 134 108 171 66.5 c 128,-1,7
 208 25 208 25 282 25 c 0,8,9
 364 25 364 25 412.5 76.5 c 128,-1,10
 461 128 461 128 461 233 c 2,11,-1
 461 530 l 1,12,-1
 500 530 l 1,13,-1
 500 0 l 1,14,-1
 468 0 l 1,15,-1
 463 104 l 1,16,-1
 460 104 l 1,17,18
 441 58 441 58 397.5 24 c 128,-1,19
 354 -10 354 -10 277 -10 c 0,0,1
EndSplineSet
Substitution2: "'smcp' Lowercase to Small Capitals lookup 33 subtable" u.sc
Substitution2: "'aalt' Access All Alternates lookup 0 subtable" u.sc
EndChar

StartChar: v
Encoding: 118 118 89
Width: 600
GlyphClass: 2
Flags: W
AnchorPoint: "Anchor-4" 580 530 basechar 0
AnchorPoint: "Anchor-3" 300 530 basechar 0
AnchorPoint: "Anchor-0" 300 0 basechar 0
LayerCount: 2
Fore
SplineSet
280 0 m 1,0,-1
 77 530 l 1,1,-1
 118 530 l 1,2,-1
 259 154 l 2,3,4
 270 122 270 122 279.5 96.5 c 128,-1,5
 289 71 289 71 299 43 c 1,6,-1
 301 43 l 1,7,8
 311 71 311 71 320 96.5 c 128,-1,9
 329 122 329 122 341 154 c 2,10,-1
 482 530 l 1,11,-1
 523 530 l 1,12,-1
 319 0 l 1,13,-1
 280 0 l 1,0,-1
EndSplineSet
Substitution2: "'smcp' Lowercase to Small Capitals lookup 33 subtable" v.sc
Substitution2: "'aalt' Access All Alternates lookup 0 subtable" v.sc
EndChar

StartChar: w
Encoding: 119 119 90
Width: 600
GlyphClass: 2
Flags: W
AnchorPoint: "Anchor-4" 580 530 basechar 0
AnchorPoint: "Anchor-3" 305 530 basechar 0
AnchorPoint: "Anchor-0" 305 0 basechar 0
LayerCount: 2
Fore
SplineSet
146 0 m 1,0,-1
 23 530 l 1,1,-1
 60 530 l 1,2,-1
 143 176 l 2,3,4
 153 130 153 130 157.5 103 c 128,-1,5
 162 76 162 76 167 45 c 1,6,-1
 169 45 l 1,7,8
 175 68 175 68 182.5 98.5 c 128,-1,9
 190 129 190 129 204 173 c 2,10,-1
 284 433 l 1,11,-1
 324 433 l 1,12,-1
 405 173 l 2,13,14
 418 130 418 130 426 100 c 128,-1,15
 434 70 434 70 441 45 c 1,16,-1
 443 45 l 1,17,18
 447 76 447 76 450.5 103 c 128,-1,19
 454 130 454 130 464 176 c 2,20,-1
 540 530 l 1,21,-1
 577 530 l 1,22,-1
 464 0 l 1,23,-1
 423 0 l 1,24,-1
 339 270 l 2,25,26
 330 299 330 299 321 328.5 c 128,-1,27
 312 358 312 358 305 389 c 1,28,-1
 303 389 l 1,29,30
 296 358 296 358 287 328.5 c 128,-1,31
 278 299 278 299 270 271 c 2,32,-1
 186 0 l 1,33,-1
 146 0 l 1,0,-1
EndSplineSet
Substitution2: "'smcp' Lowercase to Small Capitals lookup 33 subtable" w.sc
Substitution2: "'aalt' Access All Alternates lookup 0 subtable" w.sc
EndChar

StartChar: x
Encoding: 120 120 91
Width: 600
GlyphClass: 2
Flags: W
AnchorPoint: "Anchor-4" 580 530 basechar 0
AnchorPoint: "Anchor-3" 300 530 basechar 0
AnchorPoint: "Anchor-0" 300 0 basechar 0
LayerCount: 2
Fore
SplineSet
77 0 m 1,0,-1
 276 271 l 1,1,-1
 88 530 l 1,2,-1
 133 530 l 1,3,-1
 298 298 l 1,4,-1
 467 530 l 1,5,-1
 512 530 l 1,6,-1
 322 272 l 1,7,-1
 523 0 l 1,8,-1
 478 0 l 1,9,-1
 299 244 l 1,10,-1
 122 0 l 1,11,-1
 77 0 l 1,0,-1
EndSplineSet
Substitution2: "'smcp' Lowercase to Small Capitals lookup 33 subtable" x.sc
Substitution2: "'aalt' Access All Alternates lookup 0 subtable" x.sc
EndChar

StartChar: y
Encoding: 121 121 92
Width: 600
GlyphClass: 2
Flags: W
AnchorPoint: "Anchor-4" 580 530 basechar 0
AnchorPoint: "Anchor-3" 300 530 basechar 0
AnchorPoint: "Anchor-0" 300 -247 basechar 0
LayerCount: 2
Fore
SplineSet
138 -247 m 0,0,1
 123 -247 123 -247 109 -244.5 c 128,-1,2
 95 -242 95 -242 81 -237 c 1,3,-1
 81 -202 l 1,4,5
 94 -206 94 -206 107.5 -209 c 128,-1,6
 121 -212 121 -212 135 -212 c 0,7,8
 176 -212 176 -212 200 -186.5 c 128,-1,9
 224 -161 224 -161 246 -100 c 2,10,-1
 284 4 l 1,11,-1
 82 530 l 1,12,-1
 121 530 l 1,13,-1
 256 175 l 2,14,15
 272 134 272 134 282 106 c 128,-1,16
 292 78 292 78 303 47 c 1,17,-1
 305 47 l 1,18,19
 316 79 316 79 326 107 c 128,-1,20
 336 135 336 135 352 179 c 2,21,-1
 482 530 l 1,22,-1
 523 530 l 1,23,-1
 281 -109 l 2,24,25
 256 -177 256 -177 225.5 -212 c 128,-1,26
 195 -247 195 -247 138 -247 c 0,0,1
EndSplineSet
Substitution2: "'smcp' Lowercase to Small Capitals lookup 33 subtable" y.sc
Substitution2: "'aalt' Access All Alternates lookup 0 subtable" y.sc
EndChar

StartChar: z
Encoding: 122 122 93
Width: 600
GlyphClass: 2
Flags: W
AnchorPoint: "Anchor-4" 580 530 basechar 0
AnchorPoint: "Anchor-3" 310 530 basechar 0
AnchorPoint: "Anchor-0" 310 0 basechar 0
LayerCount: 2
Fore
SplineSet
110 0 m 1,0,-1
 110 26 l 1,1,-1
 438 496 l 1,2,-1
 135 496 l 1,3,-1
 135 530 l 1,4,-1
 488 530 l 1,5,-1
 488 503 l 1,6,-1
 160 35 l 1,7,-1
 488 35 l 1,8,-1
 488 0 l 1,9,-1
 110 0 l 1,0,-1
EndSplineSet
Substitution2: "'smcp' Lowercase to Small Capitals lookup 33 subtable" z.sc
Substitution2: "'aalt' Access All Alternates lookup 0 subtable" z.sc
EndChar

StartChar: braceleft
Encoding: 123 123 94
Width: 600
Flags: W
LayerCount: 2
Fore
SplineSet
444 -158 m 1,0,1
 353 -158 353 -158 313 -125 c 128,-1,2
 273 -92 273 -92 273 -21 c 2,3,-1
 273 150 l 2,4,5
 273 210 273 210 247 235.5 c 128,-1,6
 221 261 221 261 161 261 c 1,7,-1
 161 296 l 1,8,9
 221 296 221 296 247 321.5 c 128,-1,10
 273 347 273 347 273 408 c 2,11,-1
 273 577 l 2,12,13
 273 648 273 648 314 681 c 128,-1,14
 355 714 355 714 444 714 c 1,15,-1
 444 679 l 1,16,17
 370 679 370 679 341 655 c 128,-1,18
 312 631 312 631 312 573 c 2,19,-1
 312 403 l 2,20,21
 312 353 312 353 293 320.5 c 128,-1,22
 274 288 274 288 227 281 c 1,23,-1
 227 278 l 1,24,25
 274 269 274 269 293 236.5 c 128,-1,26
 312 204 312 204 312 155 c 2,27,-1
 312 -17 l 2,28,29
 312 -75 312 -75 341 -99 c 128,-1,30
 370 -123 370 -123 444 -123 c 1,31,-1
 444 -158 l 1,0,1
EndSplineSet
Substitution2: "'smcp' Lowercase to Small Capitals lookup 33 subtable" braceleft.sc
Substitution2: "'c2sc' Capitals to Small Capitals lookup 32 subtable" braceleft.sc
Substitution2: "'aalt' Access All Alternates lookup 0 subtable" braceleft.sc
EndChar

StartChar: bar
Encoding: 124 124 95
Width: 600
Flags: W
LayerCount: 2
Fore
SplineSet
282 -240 m 1,0,-1
 282 760 l 1,1,-1
 317 760 l 1,2,-1
 317 -240 l 1,3,-1
 282 -240 l 1,0,-1
EndSplineSet
EndChar

StartChar: asciitilde
Encoding: 126 126 97
Width: 600
Flags: W
LayerCount: 2
Fore
SplineSet
74 304 m 1,0,-1
 74 345 l 1,1,2
 96 368 96 368 127.5 384.5 c 128,-1,3
 159 401 159 401 195 401 c 256,4,5
 231 401 231 401 255.5 392 c 128,-1,6
 280 383 280 383 311 368 c 0,7,8
 339 354 339 354 361.5 346 c 128,-1,9
 384 338 384 338 412 338 c 0,10,11
 469 338 469 338 526 398 c 1,12,-1
 526 359 l 1,13,14
 506 337 506 337 476.5 321 c 128,-1,15
 447 305 447 305 411 305 c 0,16,17
 377 305 377 305 351.5 313.5 c 128,-1,18
 326 322 326 322 294 337 c 0,19,20
 267 350 267 350 245 359 c 128,-1,21
 223 368 223 368 193 368 c 0,22,23
 162 368 162 368 132 350 c 128,-1,24
 102 332 102 332 74 304 c 1,0,-1
EndSplineSet
EndChar

StartChar: cent
Encoding: 162 162 100
Width: 600
Flags: W
LayerCount: 2
Fore
SplineSet
317 -10 m 1,0,-1
 317 90 l 1,1,2
 204 97 204 97 149 170.5 c 128,-1,3
 94 244 94 244 94 361 c 0,4,5
 94 477 94 477 153.5 551.5 c 128,-1,6
 213 626 213 626 317 637 c 1,7,-1
 317 724 l 1,8,-1
 351 724 l 1,9,-1
 351 638 l 1,10,11
 391 638 391 638 423.5 632.5 c 128,-1,12
 456 627 456 627 484 614 c 1,13,-1
 475 579 l 1,14,15
 446 592 446 592 415 598 c 128,-1,16
 384 604 384 604 354 604 c 0,17,18
 285 604 285 604 235.5 573.5 c 128,-1,19
 186 543 186 543 160 488.5 c 128,-1,20
 134 434 134 434 134 361 c 0,21,22
 134 293 134 293 155.5 239.5 c 128,-1,23
 177 186 177 186 222.5 155.5 c 128,-1,24
 268 125 268 125 340 125 c 0,25,26
 378 125 378 125 414 132.5 c 128,-1,27
 450 140 450 140 479 152 c 1,28,-1
 479 116 l 1,29,30
 455 106 455 106 422.5 98 c 128,-1,31
 390 90 390 90 351 89 c 1,32,-1
 351 -10 l 1,33,-1
 317 -10 l 1,0,-1
EndSplineSet
EndChar

StartChar: sterling
Encoding: 163 163 101
Width: 600
Flags: W
LayerCount: 2
Fore
SplineSet
92 0 m 1,0,-1
 92 33 l 1,1,2
 148 44 148 44 178 82.5 c 128,-1,3
 208 121 208 121 208 193 c 2,4,-1
 208 332 l 1,5,-1
 105 332 l 1,6,-1
 105 365 l 1,7,-1
 208 365 l 1,8,-1
 208 520 l 2,9,10
 208 622 208 622 253.5 672.5 c 128,-1,11
 299 723 299 723 385 723 c 0,12,13
 428 723 428 723 463.5 712 c 128,-1,14
 499 701 499 701 528 684 c 1,15,-1
 514 651 l 1,16,17
 481 670 481 670 450.5 679 c 128,-1,18
 420 688 420 688 386 688 c 0,19,20
 316 688 316 688 281.5 647 c 128,-1,21
 247 606 247 606 247 515 c 2,22,-1
 247 365 l 1,23,-1
 426 365 l 1,24,-1
 426 332 l 1,25,-1
 247 332 l 1,26,-1
 247 186 l 2,27,28
 247 128 247 128 225 90.5 c 128,-1,29
 203 53 203 53 171 36 c 1,30,-1
 535 36 l 1,31,-1
 535 0 l 1,32,-1
 92 0 l 1,0,-1
EndSplineSet
EndChar

StartChar: currency
Encoding: 164 164 102
Width: 600
Flags: W
LayerCount: 2
Fore
SplineSet
503 125 m 1,0,-1
 428 201 l 1,1,2
 400 177 400 177 367.5 166 c 128,-1,3
 335 155 335 155 300 155 c 256,4,5
 265 155 265 155 232.5 166 c 128,-1,6
 200 177 200 177 173 201 c 1,7,-1
 97 127 l 1,8,-1
 73 151 l 1,9,-1
 147 225 l 1,10,11
 100 283 100 283 100 355 c 0,12,13
 100 390 100 390 111 423 c 128,-1,14
 122 456 122 456 145 483 c 1,15,-1
 70 559 l 1,16,-1
 94 583 l 1,17,-1
 170 508 l 1,18,19
 198 532 198 532 231.5 544 c 128,-1,20
 265 556 265 556 300 556 c 256,21,22
 335 556 335 556 369 544 c 128,-1,23
 403 532 403 532 431 508 c 1,24,-1
 506 583 l 1,25,-1
 529 559 l 1,26,-1
 455 483 l 1,27,28
 478 456 478 456 489.5 423 c 128,-1,29
 501 390 501 390 501 355 c 256,30,31
 501 320 501 320 489 286.5 c 128,-1,32
 477 253 477 253 453 225 c 1,33,-1
 528 150 l 1,34,-1
 503 125 l 1,0,-1
299 189 m 0,35,36
 346 189 346 189 383.5 211.5 c 128,-1,37
 421 234 421 234 443.5 272 c 128,-1,38
 466 310 466 310 466 357 c 0,39,40
 466 403 466 403 445 440.5 c 128,-1,41
 424 478 424 478 387 500.5 c 128,-1,42
 350 523 350 523 303 523 c 0,43,44
 254 523 254 523 215.5 500.5 c 128,-1,45
 177 478 177 478 155.5 440 c 128,-1,46
 134 402 134 402 134 354 c 256,47,48
 134 306 134 306 156.5 269 c 128,-1,49
 179 232 179 232 216.5 210.5 c 128,-1,50
 254 189 254 189 299 189 c 0,35,36
EndSplineSet
EndChar

StartChar: yen
Encoding: 165 165 103
Width: 600
Flags: W
LayerCount: 2
Fore
SplineSet
282 0 m 1,0,-1
 282 155 l 1,1,-1
 112 155 l 1,2,-1
 112 188 l 1,3,-1
 282 188 l 1,4,-1
 282 293 l 1,5,-1
 112 293 l 1,6,-1
 112 326 l 1,7,-1
 268 326 l 1,8,-1
 39 714 l 1,9,-1
 83 714 l 1,10,-1
 301 342 l 1,11,-1
 518 714 l 1,12,-1
 561 714 l 1,13,-1
 331 326 l 1,14,-1
 489 326 l 1,15,-1
 489 293 l 1,16,-1
 320 293 l 1,17,-1
 320 188 l 1,18,-1
 489 188 l 1,19,-1
 489 155 l 1,20,-1
 320 155 l 1,21,-1
 320 0 l 1,22,-1
 282 0 l 1,0,-1
EndSplineSet
EndChar

StartChar: brokenbar
Encoding: 166 166 104
Width: 600
Flags: W
LayerCount: 2
Fore
SplineSet
282 392 m 1,0,-1
 282 762 l 1,1,-1
 317 762 l 1,2,-1
 317 392 l 1,3,-1
 282 392 l 1,0,-1
282 -249 m 1,4,-1
 282 122 l 1,5,-1
 317 122 l 1,6,-1
 317 -249 l 1,7,-1
 282 -249 l 1,4,-1
EndSplineSet
EndChar

StartChar: section
Encoding: 167 167 105
Width: 600
Flags: W
LayerCount: 2
Fore
SplineSet
290 -3 m 0,0,1
 237 -3 237 -3 193.5 7 c 128,-1,2
 150 17 150 17 122 30 c 1,3,-1
 122 68 l 1,4,5
 159 50 159 50 202 39.5 c 128,-1,6
 245 29 245 29 290 29 c 0,7,8
 374 29 374 29 410.5 57.5 c 128,-1,9
 447 86 447 86 447 132 c 0,10,11
 447 180 447 180 406.5 203 c 128,-1,12
 366 226 366 226 298 247 c 0,13,14
 253 262 253 262 216.5 278 c 128,-1,15
 180 294 180 294 158.5 321 c 128,-1,16
 137 348 137 348 137 395 c 0,17,18
 137 444 137 444 166 475 c 128,-1,19
 195 506 195 506 239 522 c 1,20,21
 196 538 196 538 169 563 c 128,-1,22
 142 588 142 588 142 634 c 0,23,24
 142 693 142 693 190 726.5 c 128,-1,25
 238 760 238 760 321 760 c 0,26,27
 368 760 368 760 407 752 c 128,-1,28
 446 744 446 744 478 730 c 1,29,-1
 464 698 l 1,30,31
 404 728 404 728 320 728 c 0,32,33
 252 728 252 728 216 704 c 128,-1,34
 180 680 180 680 180 634 c 0,35,36
 180 603 180 603 198 585 c 128,-1,37
 216 567 216 567 247.5 555.5 c 128,-1,38
 279 544 279 544 320 530 c 0,39,40
 364 516 364 516 402.5 499.5 c 128,-1,41
 441 483 441 483 465 455.5 c 128,-1,42
 489 428 489 428 489 381 c 0,43,44
 489 333 489 333 463.5 298.5 c 128,-1,45
 438 264 438 264 400 245 c 1,46,47
 437 228 437 228 460.5 202.5 c 128,-1,48
 484 177 484 177 484 133 c 0,49,50
 484 71 484 71 435 34 c 128,-1,51
 386 -3 386 -3 290 -3 c 0,0,1
367 260 m 1,52,53
 405 276 405 276 429.5 307 c 128,-1,54
 454 338 454 338 454 379 c 0,55,56
 454 430 454 430 410 457 c 128,-1,57
 366 484 366 484 280 507 c 1,58,59
 235 495 235 495 203.5 469 c 128,-1,60
 172 443 172 443 172 397 c 0,61,62
 172 360 172 360 190 339 c 128,-1,63
 208 318 208 318 240.5 304.5 c 128,-1,64
 273 291 273 291 315 277 c 2,65,-1
 367 260 l 1,52,53
EndSplineSet
EndChar

StartChar: dieresis
Encoding: 168 168 106
Width: 600
GlyphClass: 2
Flags: W
AnchorPoint: "Anchor-13" 300 640 basemark 0
AnchorPoint: "Anchor-13" 300 530 mark 0
AnchorPoint: "Anchor-8" 300 530 mark 0
AnchorPoint: "Anchor-3" 300 530 mark 0
LayerCount: 2
Fore
SplineSet
401 639 m 0,0,1
 384 639 384 639 376.5 650 c 128,-1,2
 369 661 369 661 369 679 c 0,3,4
 369 696 369 696 376.5 707 c 128,-1,5
 384 718 384 718 401 718 c 0,6,7
 420 718 420 718 426.5 706.5 c 128,-1,8
 433 695 433 695 433 679 c 0,9,10
 433 662 433 662 426.5 650.5 c 128,-1,11
 420 639 420 639 401 639 c 0,0,1
198 639 m 0,12,13
 181 639 181 639 173.5 650 c 128,-1,14
 166 661 166 661 166 679 c 0,15,16
 166 718 166 718 198 718 c 0,17,18
 217 718 217 718 224 706.5 c 128,-1,19
 231 695 231 695 231 679 c 0,20,21
 231 662 231 662 224 650.5 c 128,-1,22
 217 639 217 639 198 639 c 0,12,13
EndSplineSet
EndChar

StartChar: copyright
Encoding: 169 169 107
Width: 600
Flags: W
LayerCount: 2
Fore
SplineSet
297 101 m 0,0,1
 222 101 222 101 164 133.5 c 128,-1,2
 106 166 106 166 73.5 224 c 128,-1,3
 41 282 41 282 41 357 c 0,4,5
 41 436 41 436 75.5 494.5 c 128,-1,6
 110 553 110 553 169 585.5 c 128,-1,7
 228 618 228 618 301 618 c 0,8,9
 376 618 376 618 434.5 584.5 c 128,-1,10
 493 551 493 551 526 492.5 c 128,-1,11
 559 434 559 434 559 359 c 0,12,13
 559 282 559 282 524.5 224 c 128,-1,14
 490 166 490 166 430.5 133.5 c 128,-1,15
 371 101 371 101 297 101 c 0,0,1
298 129 m 0,16,17
 365 129 365 129 417.5 158 c 128,-1,18
 470 187 470 187 500 238.5 c 128,-1,19
 530 290 530 290 530 358 c 0,20,21
 530 425 530 425 500.5 477 c 128,-1,22
 471 529 471 529 419.5 559 c 128,-1,23
 368 589 368 589 300 589 c 0,24,25
 234 589 234 589 182 560 c 128,-1,26
 130 531 130 531 100 479.5 c 128,-1,27
 70 428 70 428 70 359 c 0,28,29
 70 292 70 292 99 240.5 c 128,-1,30
 128 189 128 189 179 159 c 128,-1,31
 230 129 230 129 298 129 c 0,16,17
314 202 m 0,32,33
 245 202 245 202 205 242 c 128,-1,34
 165 282 165 282 165 356 c 256,35,36
 165 430 165 430 206 473 c 128,-1,37
 247 516 247 516 321 516 c 0,38,39
 343 516 343 516 365 511.5 c 128,-1,40
 387 507 387 507 405 497 c 1,41,-1
 394 472 l 1,42,43
 359 488 359 488 319 488 c 0,44,45
 260 488 260 488 228 453 c 128,-1,46
 196 418 196 418 196 356 c 256,47,48
 196 294 196 294 228.5 262 c 128,-1,49
 261 230 261 230 319 230 c 0,50,51
 335 230 335 230 354 233 c 128,-1,52
 373 236 373 236 393 244 c 1,53,-1
 393 217 l 1,54,55
 376 210 376 210 356 206 c 128,-1,56
 336 202 336 202 314 202 c 0,32,33
EndSplineSet
EndChar

StartChar: ordfeminine
Encoding: 170 170 108
Width: 600
Flags: W
LayerCount: 2
Fore
SplineSet
275 391 m 0,0,1
 229 391 229 391 199.5 414 c 128,-1,2
 170 437 170 437 170 484 c 0,3,4
 170 534 170 534 207.5 558.5 c 128,-1,5
 245 583 245 583 321 585 c 2,6,-1
 392 587 l 1,7,-1
 392 617 l 2,8,9
 392 656 392 656 367 674.5 c 128,-1,10
 342 693 342 693 298 693 c 0,11,12
 272 693 272 693 248.5 686.5 c 128,-1,13
 225 680 225 680 202 668 c 1,14,-1
 190 695 l 1,15,16
 213 707 213 707 240.5 714.5 c 128,-1,17
 268 722 268 722 301 722 c 0,18,19
 424 722 424 722 424 619 c 2,20,-1
 424 395 l 1,21,-1
 398 395 l 1,22,-1
 392 444 l 1,23,24
 378 422 378 422 348 406.5 c 128,-1,25
 318 391 318 391 275 391 c 0,0,1
282 420 m 0,26,27
 337 420 337 420 364.5 447.5 c 128,-1,28
 392 475 392 475 392 522 c 2,29,-1
 392 561 l 1,30,-1
 322 559 l 2,31,32
 260 558 260 558 231 539 c 128,-1,33
 202 520 202 520 202 485 c 0,34,35
 202 451 202 451 224 435.5 c 128,-1,36
 246 420 246 420 282 420 c 0,26,27
EndSplineSet
EndChar

StartChar: guillemotleft
Encoding: 171 171 109
Width: 600
Flags: W
LayerCount: 2
Fore
SplineSet
444 76 m 1,0,-1
 289 265 l 1,1,-1
 289 278 l 1,2,-1
 444 469 l 1,3,-1
 469 451 l 1,4,-1
 332 272 l 1,5,-1
 469 93 l 1,6,-1
 444 76 l 1,0,-1
270 76 m 1,7,-1
 114 265 l 1,8,-1
 114 278 l 1,9,-1
 270 469 l 1,10,-1
 294 450 l 1,11,-1
 158 272 l 1,12,-1
 294 93 l 1,13,-1
 270 76 l 1,7,-1
EndSplineSet
EndChar

StartChar: logicalnot
Encoding: 172 172 110
Width: 600
Flags: W
LayerCount: 2
Fore
SplineSet
468 131 m 1,0,-1
 468 336 l 1,1,-1
 59 336 l 1,2,-1
 59 370 l 1,3,-1
 501 370 l 1,4,-1
 501 131 l 1,5,-1
 468 131 l 1,0,-1
EndSplineSet
EndChar

StartChar: registered
Encoding: 174 174 112
Width: 600
Flags: W
LayerCount: 2
Fore
SplineSet
297 101 m 0,0,1
 222 101 222 101 164 133.5 c 128,-1,2
 106 166 106 166 73.5 224 c 128,-1,3
 41 282 41 282 41 357 c 0,4,5
 41 436 41 436 75.5 494.5 c 128,-1,6
 110 553 110 553 169 585.5 c 128,-1,7
 228 618 228 618 301 618 c 0,8,9
 376 618 376 618 434.5 584.5 c 128,-1,10
 493 551 493 551 526 492.5 c 128,-1,11
 559 434 559 434 559 359 c 0,12,13
 559 282 559 282 524.5 224 c 128,-1,14
 490 166 490 166 430.5 133.5 c 128,-1,15
 371 101 371 101 297 101 c 0,0,1
298 129 m 0,16,17
 365 129 365 129 417.5 158 c 128,-1,18
 470 187 470 187 500 238.5 c 128,-1,19
 530 290 530 290 530 358 c 0,20,21
 530 425 530 425 500.5 477 c 128,-1,22
 471 529 471 529 419.5 559 c 128,-1,23
 368 589 368 589 300 589 c 0,24,25
 234 589 234 589 182 560 c 128,-1,26
 130 531 130 531 100 479.5 c 128,-1,27
 70 428 70 428 70 359 c 0,28,29
 70 292 70 292 99 240.5 c 128,-1,30
 128 189 128 189 179 159 c 128,-1,31
 230 129 230 129 298 129 c 0,16,17
209 193 m 1,32,-1
 209 530 l 1,33,-1
 304 530 l 2,34,35
 356 530 356 530 386.5 506.5 c 128,-1,36
 417 483 417 483 417 435 c 0,37,38
 417 394 417 394 396 371.5 c 128,-1,39
 375 349 375 349 346 340 c 1,40,-1
 436 193 l 1,41,-1
 402 193 l 1,42,-1
 318 334 l 1,43,-1
 237 334 l 1,44,-1
 237 193 l 1,45,-1
 209 193 l 1,32,-1
237 359 m 1,46,-1
 302 359 l 2,47,48
 340 359 340 359 364 376.5 c 128,-1,49
 388 394 388 394 388 434 c 0,50,51
 388 472 388 472 365 487.5 c 128,-1,52
 342 503 342 503 303 503 c 2,53,-1
 237 503 l 1,54,-1
 237 359 l 1,46,-1
EndSplineSet
EndChar

StartChar: overscore
Encoding: 175 175 113
Width: 600
Flags: W
LayerCount: 2
Fore
SplineSet
168 631 m 1,0,-1
 168 664 l 1,1,-1
 431 664 l 1,2,-1
 431 631 l 1,3,-1
 168 631 l 1,0,-1
EndSplineSet
EndChar

StartChar: degree
Encoding: 176 176 114
Width: 600
Flags: W
LayerCount: 2
Fore
SplineSet
301 437 m 0,0,1
 241 437 241 437 199 475.5 c 128,-1,2
 157 514 157 514 157 580 c 0,3,4
 157 624 157 624 176.5 656 c 128,-1,5
 196 688 196 688 228 706 c 128,-1,6
 260 724 260 724 300 724 c 256,7,8
 340 724 340 724 372 705.5 c 128,-1,9
 404 687 404 687 423.5 654.5 c 128,-1,10
 443 622 443 622 443 579 c 0,11,12
 443 514 443 514 401.5 475.5 c 128,-1,13
 360 437 360 437 301 437 c 0,0,1
300 467 m 256,14,15
 346 467 346 467 378.5 498 c 128,-1,16
 411 529 411 529 411 580 c 256,17,18
 411 631 411 631 378.5 662 c 128,-1,19
 346 693 346 693 299 693 c 0,20,21
 253 693 253 693 221 662 c 128,-1,22
 189 631 189 631 189 581 c 256,23,24
 189 531 189 531 221.5 499 c 128,-1,25
 254 467 254 467 300 467 c 256,14,15
EndSplineSet
EndChar

StartChar: plusminus
Encoding: 177 177 115
Width: 600
Flags: W
LayerCount: 2
Fore
SplineSet
283 123 m 1,0,-1
 283 337 l 1,1,-1
 71 337 l 1,2,-1
 71 370 l 1,3,-1
 283 370 l 1,4,-1
 283 584 l 1,5,-1
 316 584 l 1,6,-1
 316 370 l 1,7,-1
 528 370 l 1,8,-1
 528 337 l 1,9,-1
 316 337 l 1,10,-1
 316 123 l 1,11,-1
 283 123 l 1,0,-1
72 0 m 1,12,-1
 72 34 l 1,13,-1
 528 34 l 1,14,-1
 528 0 l 1,15,-1
 72 0 l 1,12,-1
EndSplineSet
EndChar

StartChar: uni00B2
Encoding: 178 178 116
Width: 600
Flags: W
LayerCount: 2
Fore
SplineSet
157 416 m 1,0,-1
 157 444 l 1,1,-1
 278 567 l 2,2,3
 334 623 334 623 363.5 659.5 c 128,-1,4
 393 696 393 696 393 739 c 0,5,6
 393 776 393 776 369 799.5 c 128,-1,7
 345 823 345 823 299 823 c 0,8,9
 268 823 268 823 241.5 812.5 c 128,-1,10
 215 802 215 802 188 781 c 1,11,-1
 170 807 l 1,12,13
 198 830 198 830 230 842.5 c 128,-1,14
 262 855 262 855 299 855 c 0,15,16
 360 855 360 855 394 822.5 c 128,-1,17
 428 790 428 790 428 740 c 0,18,19
 428 706 428 706 413 677 c 128,-1,20
 398 648 398 648 370 618 c 128,-1,21
 342 588 342 588 302 548 c 2,22,-1
 204 449 l 1,23,-1
 441 449 l 1,24,-1
 441 416 l 1,25,-1
 157 416 l 1,0,-1
EndSplineSet
EndChar

StartChar: uni00B3
Encoding: 179 179 117
Width: 600
Flags: W
LayerCount: 2
Fore
SplineSet
280 411 m 0,0,1
 246 411 246 411 214 418 c 128,-1,2
 182 425 182 425 156 437 c 1,3,-1
 156 472 l 1,4,5
 187 458 187 458 217 450.5 c 128,-1,6
 247 443 247 443 280 443 c 0,7,8
 339 443 339 443 370 468.5 c 128,-1,9
 401 494 401 494 401 539 c 0,10,11
 401 626 401 626 283 626 c 2,12,-1
 218 626 l 1,13,-1
 218 655 l 1,14,-1
 283 655 l 2,15,16
 335 655 335 655 362.5 678.5 c 128,-1,17
 390 702 390 702 390 742 c 0,18,19
 390 780 390 780 365.5 800 c 128,-1,20
 341 820 341 820 296 820 c 0,21,22
 264 820 264 820 235.5 809.5 c 128,-1,23
 207 799 207 799 179 782 c 1,24,-1
 163 809 l 1,25,26
 192 828 192 828 225 839.5 c 128,-1,27
 258 851 258 851 298 851 c 0,28,29
 358 851 358 851 392 823 c 128,-1,30
 426 795 426 795 426 745 c 0,31,32
 426 704 426 704 405 677.5 c 128,-1,33
 384 651 384 651 352 643 c 1,34,-1
 352 641 l 1,35,36
 436 623 436 623 436 538 c 0,37,38
 436 479 436 479 395.5 445 c 128,-1,39
 355 411 355 411 280 411 c 0,0,1
EndSplineSet
EndChar

StartChar: acute
Encoding: 180 180 118
Width: 600
Flags: W
LayerCount: 2
Fore
SplineSet
268 606 m 1,0,-1
 268 613 l 1,1,2
 289 633 289 633 314 660.5 c 128,-1,3
 339 688 339 688 361.5 716 c 128,-1,4
 384 744 384 744 398 766 c 1,5,-1
 444 766 l 1,6,-1
 444 758 l 1,7,8
 428 736 428 736 403 709 c 128,-1,9
 378 682 378 682 350.5 654.5 c 128,-1,10
 323 627 323 627 297 606 c 1,11,-1
 268 606 l 1,0,-1
EndSplineSet
EndChar

StartChar: uni00B5
Encoding: 181 181 119
Width: 600
GlyphClass: 2
Flags: W
AnchorPoint: "Anchor-4" 580 530 basechar 0
AnchorPoint: "Anchor-3" 300 530 basechar 0
AnchorPoint: "Anchor-2" 540 10 basechar 0
AnchorPoint: "Anchor-0" 300 0 basechar 0
LayerCount: 2
Fore
SplineSet
95 -240 m 1,0,-1
 95 530 l 1,1,-1
 134 530 l 1,2,-1
 134 197 l 2,3,4
 134 108 134 108 171 66.5 c 128,-1,5
 208 25 208 25 282 25 c 0,6,7
 364 25 364 25 412.5 76.5 c 128,-1,8
 461 128 461 128 461 233 c 2,9,-1
 461 530 l 1,10,-1
 500 530 l 1,11,-1
 500 0 l 1,12,-1
 468 0 l 1,13,-1
 463 104 l 1,14,-1
 460 104 l 1,15,16
 441 58 441 58 397.5 24 c 128,-1,17
 354 -10 354 -10 277 -10 c 0,18,19
 180 -10 180 -10 134 49 c 1,20,-1
 134 -240 l 1,21,-1
 95 -240 l 1,0,-1
EndSplineSet
EndChar

StartChar: paragraph
Encoding: 182 182 120
Width: 600
Flags: W
LayerCount: 2
Fore
SplineSet
288 -127 m 1,0,-1
 288 338 l 1,1,2
 273 334 273 334 257.5 331.5 c 128,-1,3
 242 329 242 329 223 329 c 0,4,5
 148 329 148 329 110 388 c 128,-1,6
 72 447 72 447 72 546 c 0,7,8
 72 760 72 760 242 760 c 2,9,-1
 494 760 l 1,10,-1
 494 -127 l 1,11,-1
 463 -127 l 1,12,-1
 463 728 l 1,13,-1
 320 728 l 1,14,-1
 320 -127 l 1,15,-1
 288 -127 l 1,0,-1
EndSplineSet
EndChar

StartChar: cedilla
Encoding: 184 184 122
Width: 600
Flags: W
LayerCount: 2
Fore
SplineSet
279 -240 m 0,0,1
 249 -240 249 -240 228 -234 c 1,2,-1
 228 -204 l 1,3,4
 252 -210 252 -210 277 -210 c 0,5,6
 369 -210 369 -210 369 -146 c 0,7,8
 369 -115 369 -115 344.5 -100.5 c 128,-1,9
 320 -86 320 -86 268 -85 c 1,10,-1
 311 1 l 1,11,-1
 344 1 l 1,12,-1
 312 -63 l 1,13,14
 353 -66 353 -66 378 -86 c 128,-1,15
 403 -106 403 -106 403 -145 c 0,16,17
 403 -188 403 -188 370.5 -214 c 128,-1,18
 338 -240 338 -240 279 -240 c 0,0,1
EndSplineSet
EndChar

StartChar: uni00B9
Encoding: 185 185 123
Width: 600
Flags: W
LayerCount: 2
Fore
SplineSet
188 416 m 1,0,-1
 188 442 l 1,1,-1
 294 447 l 1,2,-1
 294 695 l 2,3,4
 294 723 294 723 294 752.5 c 128,-1,5
 294 782 294 782 295 807 c 1,6,7
 279 796 279 796 264.5 787.5 c 128,-1,8
 250 779 250 779 228 768 c 2,9,-1
 179 741 l 1,10,-1
 163 770 l 1,11,-1
 299 844 l 1,12,-1
 328 844 l 1,13,-1
 328 447 l 1,14,-1
 431 442 l 1,15,-1
 431 416 l 1,16,-1
 188 416 l 1,0,-1
EndSplineSet
EndChar

StartChar: ordmasculine
Encoding: 186 186 124
Width: 600
Flags: W
LayerCount: 2
Fore
SplineSet
300 392 m 0,0,1
 235 392 235 392 201 438 c 128,-1,2
 167 484 167 484 167 558 c 0,3,4
 167 634 167 634 203.5 679 c 128,-1,5
 240 724 240 724 302 724 c 0,6,7
 369 724 369 724 401.5 676.5 c 128,-1,8
 434 629 434 629 434 558 c 0,9,10
 434 485 434 485 400 438.5 c 128,-1,11
 366 392 366 392 300 392 c 0,0,1
300 422 m 0,12,13
 351 422 351 422 375.5 460 c 128,-1,14
 400 498 400 498 400 558 c 0,15,16
 400 615 400 615 377 654.5 c 128,-1,17
 354 694 354 694 302 694 c 0,18,19
 254 694 254 694 227.5 657.5 c 128,-1,20
 201 621 201 621 201 558 c 0,21,22
 201 497 201 497 225.5 459.5 c 128,-1,23
 250 422 250 422 300 422 c 0,12,13
EndSplineSet
EndChar

StartChar: AE
Encoding: 198 198 136
Width: 600
GlyphClass: 2
Flags: W
AnchorPoint: "Anchor-3" 353 714 basechar 0
AnchorPoint: "Anchor-0" 300 0 basechar 0
LayerCount: 2
Fore
SplineSet
20 0 m 1,0,-1
 255 714 l 1,1,-1
 576 714 l 1,2,-1
 576 678 l 1,3,-1
 347 678 l 1,4,-1
 347 394 l 1,5,-1
 560 394 l 1,6,-1
 560 358 l 1,7,-1
 347 358 l 1,8,-1
 347 36 l 1,9,-1
 576 36 l 1,10,-1
 576 0 l 1,11,-1
 309 0 l 1,12,-1
 309 264 l 1,13,-1
 146 264 l 1,14,-1
 60 0 l 1,15,-1
 20 0 l 1,0,-1
280 678 m 1,16,-1
 157 299 l 1,17,-1
 309 299 l 1,18,-1
 309 678 l 1,19,-1
 280 678 l 1,16,-1
EndSplineSet
Substitution2: "'c2sc' Capitals to Small Capitals lookup 32 subtable" ae.sc
Substitution2: "'aalt' Access All Alternates lookup 0 subtable" ae.sc
EndChar

StartChar: Eth
Encoding: 208 208 146
Width: 600
GlyphClass: 2
Flags: W
AnchorPoint: "Anchor-4" 610 714 basechar 0
AnchorPoint: "Anchor-3" 300 714 basechar 0
AnchorPoint: "Anchor-1" 297 357 basechar 0
AnchorPoint: "Anchor-0" 300 0 basechar 0
LayerCount: 2
Fore
SplineSet
100 0 m 1,0,-1
 100 345 l 1,1,-1
 0 345 l 1,2,-1
 0 381 l 1,3,-1
 100 381 l 1,4,-1
 100 714 l 1,5,-1
 248 714 l 2,6,7
 401 714 401 714 479 624.5 c 128,-1,8
 557 535 557 535 557 363 c 0,9,10
 557 184 557 184 475.5 92 c 128,-1,11
 394 0 394 0 237 0 c 2,12,-1
 100 0 l 1,0,-1
139 36 m 1,13,-1
 226 36 l 2,14,15
 374 36 374 36 445.5 117 c 128,-1,16
 517 198 517 198 517 362 c 0,17,18
 517 518 517 518 449.5 598 c 128,-1,19
 382 678 382 678 238 678 c 2,20,-1
 139 678 l 1,21,-1
 139 381 l 1,22,-1
 278 381 l 1,23,-1
 278 345 l 1,24,-1
 139 345 l 1,25,-1
 139 36 l 1,13,-1
EndSplineSet
Substitution2: "'c2sc' Capitals to Small Capitals lookup 32 subtable" eth.sc
Substitution2: "'aalt' Access All Alternates lookup 0 subtable" eth.sc
EndChar

StartChar: multiply
Encoding: 215 215 153
Width: 600
Flags: W
LayerCount: 2
Fore
SplineSet
110 139 m 1,0,-1
 86 162 l 1,1,-1
 276 353 l 1,2,-1
 86 544 l 1,3,-1
 110 567 l 1,4,-1
 300 376 l 1,5,-1
 491 567 l 1,6,-1
 514 544 l 1,7,-1
 324 353 l 1,8,-1
 514 162 l 1,9,-1
 491 139 l 1,10,-1
 300 329 l 1,11,-1
 110 139 l 1,0,-1
EndSplineSet
EndChar

StartChar: Oslash
Encoding: 216 216 154
Width: 600
GlyphClass: 2
Flags: W
AnchorPoint: "Anchor-4" 600 714 basechar 0
AnchorPoint: "Anchor-3" 300 714 basechar 0
AnchorPoint: "Anchor-2" 301 10 basechar 0
AnchorPoint: "Anchor-1" 300 357 basechar 0
AnchorPoint: "Anchor-0" 300 0 basechar 0
LayerCount: 2
Fore
SplineSet
97 -30 m 1,0,-1
 66 -13 l 1,1,-1
 121 83 l 1,2,3
 86 133 86 133 69.5 204.5 c 128,-1,4
 53 276 53 276 53 359 c 0,5,6
 53 528 53 528 116.5 626 c 128,-1,7
 180 724 180 724 302 724 c 0,8,9
 349 724 349 724 387 709 c 128,-1,10
 425 694 425 694 454 665 c 1,11,-1
 496 739 l 1,12,-1
 526 722 l 1,13,-1
 478 637 l 1,14,15
 513 589 513 589 530 518.5 c 128,-1,16
 547 448 547 448 547 360 c 0,17,18
 547 255 547 255 521.5 171.5 c 128,-1,19
 496 88 496 88 442 39 c 128,-1,20
 388 -10 388 -10 301 -10 c 0,21,22
 251 -10 251 -10 212 6.5 c 128,-1,23
 173 23 173 23 145 53 c 1,24,-1
 97 -30 l 1,0,-1
92 358 m 0,25,26
 92 284 92 284 104.5 223.5 c 128,-1,27
 117 163 117 163 142 120 c 1,28,-1
 434 631 l 1,29,30
 384 688 384 688 302 688 c 0,31,32
 232 688 232 688 185.5 647.5 c 128,-1,33
 139 607 139 607 115.5 532.5 c 128,-1,34
 92 458 92 458 92 358 c 0,25,26
302 26 m 0,35,36
 406 26 406 26 456.5 114.5 c 128,-1,37
 507 203 507 203 507 358 c 0,38,39
 507 516 507 516 456 600 c 1,40,-1
 164 88 l 1,41,42
 189 58 189 58 223.5 42 c 128,-1,43
 258 26 258 26 302 26 c 0,35,36
EndSplineSet
Substitution2: "'c2sc' Capitals to Small Capitals lookup 32 subtable" oslash.sc
Substitution2: "'aalt' Access All Alternates lookup 0 subtable" oslash.sc
EndChar

StartChar: Thorn
Encoding: 222 222 160
Width: 600
GlyphClass: 2
Flags: W
AnchorPoint: "Anchor-3" 300 714 basechar 0
AnchorPoint: "Anchor-0" 300 0 basechar 0
LayerCount: 2
Fore
SplineSet
111 0 m 1,0,-1
 111 714 l 1,1,-1
 150 714 l 1,2,-1
 150 574 l 1,3,-1
 302 574 l 2,4,5
 422 574 422 574 481.5 525 c 128,-1,6
 541 476 541 476 541 373 c 0,7,8
 541 266 541 266 473.5 212.5 c 128,-1,9
 406 159 406 159 280 159 c 2,10,-1
 150 159 l 1,11,-1
 150 0 l 1,12,-1
 111 0 l 1,0,-1
150 195 m 1,13,-1
 274 195 l 2,14,15
 344 195 344 195 394.5 211.5 c 128,-1,16
 445 228 445 228 473 267 c 128,-1,17
 501 306 501 306 501 372 c 0,18,19
 501 460 501 460 451.5 499.5 c 128,-1,20
 402 539 402 539 295 539 c 2,21,-1
 150 539 l 1,22,-1
 150 195 l 1,13,-1
EndSplineSet
Substitution2: "'c2sc' Capitals to Small Capitals lookup 32 subtable" thorn.sc
Substitution2: "'aalt' Access All Alternates lookup 0 subtable" thorn.sc
EndChar

StartChar: germandbls
Encoding: 223 223 161
Width: 600
GlyphClass: 2
Flags: W
AnchorPoint: "Anchor-3" 300 765 basechar 0
AnchorPoint: "Anchor-0" 300 0 basechar 0
LayerCount: 2
Fore
SplineSet
363 -10 m 0,0,1
 316 -10 316 -10 284.5 -1.5 c 128,-1,2
 253 7 253 7 227 18 c 1,3,-1
 227 57 l 1,4,5
 258 42 258 42 291.5 33.5 c 128,-1,6
 325 25 325 25 363 25 c 0,7,8
 428 25 428 25 461 55.5 c 128,-1,9
 494 86 494 86 494 138 c 0,10,11
 494 191 494 191 468.5 220 c 128,-1,12
 443 249 443 249 400 279 c 0,13,14
 370 300 370 300 345.5 319 c 128,-1,15
 321 338 321 338 307 361 c 128,-1,16
 293 384 293 384 293 417 c 0,17,18
 293 452 293 452 307 474.5 c 128,-1,19
 321 497 321 497 341.5 512.5 c 128,-1,20
 362 528 362 528 382 543 c 128,-1,21
 402 558 402 558 416 578.5 c 128,-1,22
 430 599 430 599 430 631 c 0,23,24
 430 678 430 678 396 704 c 128,-1,25
 362 730 362 730 301 730 c 0,26,27
 141 730 141 730 141 560 c 2,28,-1
 141 0 l 1,29,-1
 102 0 l 1,30,-1
 102 567 l 2,31,32
 102 664 102 664 154 714.5 c 128,-1,33
 206 765 206 765 301 765 c 0,34,35
 381 765 381 765 425.5 729 c 128,-1,36
 470 693 470 693 470 633 c 0,37,38
 470 596 470 596 456 572 c 128,-1,39
 442 548 442 548 421.5 531.5 c 128,-1,40
 401 515 401 515 380.5 500 c 128,-1,41
 360 485 360 485 346 466 c 128,-1,42
 332 447 332 447 332 417 c 0,43,44
 332 381 332 381 356 359 c 128,-1,45
 380 337 380 337 425 306 c 0,46,47
 454 286 454 286 479 264.5 c 128,-1,48
 504 243 504 243 519 213 c 128,-1,49
 534 183 534 183 534 137 c 0,50,51
 534 74 534 74 490.5 32 c 128,-1,52
 447 -10 447 -10 363 -10 c 0,0,1
EndSplineSet
Substitution2: "'smcp' Lowercase to Small Capitals lookup 33 subtable" germandbls.sc
Substitution2: "'aalt' Access All Alternates lookup 0 subtable" germandbls.sc
EndChar

StartChar: ae
Encoding: 230 230 168
Width: 600
GlyphClass: 2
Flags: W
AnchorPoint: "Anchor-3" 300 530 basechar 0
AnchorPoint: "Anchor-0" 300 0 basechar 0
LayerCount: 2
Fore
SplineSet
152 -10 m 0,0,1
 93 -10 93 -10 61.5 29 c 128,-1,2
 30 68 30 68 30 132 c 0,3,4
 30 214 30 214 80 252 c 128,-1,5
 130 290 130 290 216 297 c 2,6,-1
 277 301 l 1,7,-1
 277 361 l 2,8,9
 277 436 277 436 250.5 470 c 128,-1,10
 224 504 224 504 174 504 c 0,11,12
 151 504 151 504 124.5 496 c 128,-1,13
 98 488 98 488 70 469 c 1,14,-1
 56 501 l 1,15,16
 82 518 82 518 113 528.5 c 128,-1,17
 144 539 144 539 176 539 c 0,18,19
 232 539 232 539 265 507.5 c 128,-1,20
 298 476 298 476 305 410 c 1,21,22
 318 469 318 469 350 504.5 c 128,-1,23
 382 540 382 540 435 540 c 0,24,25
 504 540 504 540 536 477.5 c 128,-1,26
 568 415 568 415 568 299 c 2,27,-1
 568 266 l 1,28,-1
 313 266 l 1,29,30
 315 25 315 25 454 25 c 0,31,32
 476 25 476 25 498 32 c 128,-1,33
 520 39 520 39 551 61 c 1,34,-1
 551 23 l 1,35,36
 526 5 526 5 502.5 -2.5 c 128,-1,37
 479 -10 479 -10 451 -10 c 0,38,39
 386 -10 386 -10 350.5 29 c 128,-1,40
 315 68 315 68 299 132 c 1,41,42
 286 68 286 68 250 29 c 128,-1,43
 214 -10 214 -10 152 -10 c 0,0,1
315 300 m 1,44,-1
 531 300 l 1,45,46
 531 404 531 404 507.5 454.5 c 128,-1,47
 484 505 484 505 432 505 c 0,48,49
 379 505 379 505 349 449.5 c 128,-1,50
 319 394 319 394 315 300 c 1,44,-1
155 25 m 0,51,52
 195 25 195 25 222 49 c 128,-1,53
 249 73 249 73 263 113.5 c 128,-1,54
 277 154 277 154 277 203 c 2,55,-1
 277 269 l 1,56,-1
 223 265 l 2,57,58
 146 259 146 259 107.5 227 c 128,-1,59
 69 195 69 195 69 131 c 0,60,61
 69 83 69 83 90.5 54 c 128,-1,62
 112 25 112 25 155 25 c 0,51,52
EndSplineSet
Substitution2: "'smcp' Lowercase to Small Capitals lookup 33 subtable" ae.sc
Substitution2: "'aalt' Access All Alternates lookup 0 subtable" ae.sc
EndChar

StartChar: eth
Encoding: 240 240 178
Width: 600
GlyphClass: 2
Flags: W
AnchorPoint: "Anchor-4" 580 760 basechar 0
AnchorPoint: "Anchor-3" 300 759 basechar 0
AnchorPoint: "Anchor-1" 300 265 basechar 0
AnchorPoint: "Anchor-0" 300 0 basechar 0
LayerCount: 2
Fore
SplineSet
301 -10 m 0,0,1
 229 -10 229 -10 176.5 19 c 128,-1,2
 124 48 124 48 95.5 101 c 128,-1,3
 67 154 67 154 67 224 c 0,4,5
 67 299 67 299 97.5 353.5 c 128,-1,6
 128 408 128 408 181.5 437.5 c 128,-1,7
 235 467 235 467 304 467 c 0,8,9
 368 467 368 467 412.5 443.5 c 128,-1,10
 457 420 457 420 482 386 c 1,11,-1
 484 386 l 1,12,13
 467 464 467 464 429.5 529.5 c 128,-1,14
 392 595 392 595 337 646 c 1,15,-1
 208 569 l 1,16,-1
 190 596 l 1,17,-1
 310 668 l 1,18,19
 263 705 263 705 207 730 c 1,20,-1
 225 759 l 1,21,22
 258 744 258 744 287 725.5 c 128,-1,23
 316 707 316 707 341 686 c 1,24,-1
 454 754 l 1,25,-1
 472 726 l 1,26,-1
 367 663 l 1,27,28
 424 609 424 609 461 542 c 128,-1,29
 498 475 498 475 515.5 404.5 c 128,-1,30
 533 334 533 334 533 266 c 0,31,32
 533 136 533 136 474 63 c 128,-1,33
 415 -10 415 -10 301 -10 c 0,0,1
298 25 m 0,34,35
 390 25 390 25 441.5 86 c 128,-1,36
 493 147 493 147 493 252 c 0,37,38
 493 296 493 296 475 337 c 128,-1,39
 457 378 457 378 416.5 405 c 128,-1,40
 376 432 376 432 310 432 c 0,41,42
 218 432 218 432 162.5 377.5 c 128,-1,43
 107 323 107 323 107 224 c 0,44,45
 107 130 107 130 160 77.5 c 128,-1,46
 213 25 213 25 298 25 c 0,34,35
EndSplineSet
Substitution2: "'smcp' Lowercase to Small Capitals lookup 33 subtable" eth.sc
Substitution2: "'aalt' Access All Alternates lookup 0 subtable" eth.sc
EndChar

StartChar: divide
Encoding: 247 247 185
Width: 600
Flags: W
LayerCount: 2
Fore
SplineSet
299 492 m 0,0,1
 282 492 282 492 275 502 c 128,-1,2
 268 512 268 512 268 529 c 256,3,4
 268 546 268 546 275 556 c 128,-1,5
 282 566 282 566 299 566 c 0,6,7
 318 566 318 566 325 556 c 128,-1,8
 332 546 332 546 332 529 c 256,9,10
 332 512 332 512 325 502 c 128,-1,11
 318 492 318 492 299 492 c 0,0,1
72 336 m 1,12,-1
 72 370 l 1,13,-1
 528 370 l 1,14,-1
 528 336 l 1,15,-1
 72 336 l 1,12,-1
299 139 m 0,16,17
 282 139 282 139 275 149.5 c 128,-1,18
 268 160 268 160 268 176 c 256,19,20
 268 192 268 192 275 202.5 c 128,-1,21
 282 213 282 213 299 213 c 0,22,23
 318 213 318 213 325 202.5 c 128,-1,24
 332 192 332 192 332 176 c 256,25,26
 332 160 332 160 325 149.5 c 128,-1,27
 318 139 318 139 299 139 c 0,16,17
EndSplineSet
EndChar

StartChar: oslash
Encoding: 248 248 186
Width: 600
GlyphClass: 2
Flags: W
AnchorPoint: "Anchor-4" 580 530 basechar 0
AnchorPoint: "Anchor-3" 300 530 basechar 0
AnchorPoint: "Anchor-2" 300 10 basechar 0
AnchorPoint: "Anchor-1" 300 265 basechar 0
AnchorPoint: "Anchor-0" 300 0 basechar 0
LayerCount: 2
Fore
SplineSet
96 -28 m 1,0,-1
 69 -8 l 1,1,-1
 127 66 l 1,2,3
 67 139 67 139 67 265 c 0,4,5
 67 394 67 394 130.5 466.5 c 128,-1,6
 194 539 194 539 304 539 c 0,7,8
 353 539 353 539 391 524.5 c 128,-1,9
 429 510 429 510 457 484 c 1,10,-1
 514 557 l 1,11,-1
 541 537 l 1,12,-1
 479 459 l 1,13,14
 506 423 506 423 519.5 374 c 128,-1,15
 533 325 533 325 533 267 c 0,16,17
 533 185 533 185 507 122.5 c 128,-1,18
 481 60 481 60 429 25 c 128,-1,19
 377 -10 377 -10 300 -10 c 0,20,21
 254 -10 254 -10 216.5 3.5 c 128,-1,22
 179 17 179 17 151 41 c 1,23,-1
 96 -28 l 1,0,-1
107 264 m 0,24,25
 107 158 107 158 151 96 c 1,26,-1
 434 455 l 1,27,28
 411 478 411 478 379 491 c 128,-1,29
 347 504 347 504 304 504 c 0,30,31
 210 504 210 504 158.5 440.5 c 128,-1,32
 107 377 107 377 107 264 c 0,24,25
300 25 m 0,33,34
 366 25 366 25 409 55.5 c 128,-1,35
 452 86 452 86 472.5 140.5 c 128,-1,36
 493 195 493 195 493 266 c 0,37,38
 493 314 493 314 484 355 c 128,-1,39
 475 396 475 396 455 428 c 1,40,-1
 173 70 l 1,41,42
 197 48 197 48 228.5 36.5 c 128,-1,43
 260 25 260 25 300 25 c 0,33,34
EndSplineSet
Substitution2: "'smcp' Lowercase to Small Capitals lookup 33 subtable" oslash.sc
Substitution2: "'aalt' Access All Alternates lookup 0 subtable" oslash.sc
EndChar

StartChar: thorn
Encoding: 254 254 192
Width: 600
GlyphClass: 2
Flags: W
AnchorPoint: "Anchor-3" 320 723 basechar 0
AnchorPoint: "Anchor-0" 320 -240 basechar 0
LayerCount: 2
Fore
SplineSet
100 -240 m 1,0,-1
 100 723 l 1,1,-1
 139 723 l 1,2,-1
 139 483 l 2,3,4
 139 446 139 446 136 412 c 1,5,-1
 139 412 l 1,6,7
 151 445 151 445 175.5 474 c 128,-1,8
 200 503 200 503 238 521 c 128,-1,9
 276 539 276 539 328 539 c 0,10,11
 427 539 427 539 480 470.5 c 128,-1,12
 533 402 533 402 533 271 c 0,13,14
 533 134 533 134 476.5 62 c 128,-1,15
 420 -10 420 -10 319 -10 c 0,16,17
 245 -10 245 -10 201 25.5 c 128,-1,18
 157 61 157 61 139 109 c 1,19,-1
 136 109 l 1,20,21
 139 48 139 48 139 -14 c 2,22,-1
 139 -240 l 1,23,-1
 100 -240 l 1,0,-1
316 25 m 0,24,25
 402 25 402 25 447.5 86.5 c 128,-1,26
 493 148 493 148 493 272 c 0,27,28
 493 390 493 390 451 447 c 128,-1,29
 409 504 409 504 324 504 c 0,30,31
 234 504 234 504 186.5 442.5 c 128,-1,32
 139 381 139 381 139 270 c 2,33,-1
 139 263 l 2,34,35
 139 143 139 143 185.5 84 c 128,-1,36
 232 25 232 25 316 25 c 0,24,25
EndSplineSet
Substitution2: "'smcp' Lowercase to Small Capitals lookup 33 subtable" thorn.sc
Substitution2: "'aalt' Access All Alternates lookup 0 subtable" thorn.sc
EndChar

StartChar: dcaron
Encoding: 271 271 209
Width: 600
GlyphClass: 2
Flags: W
AnchorPoint: "Anchor-4" 580 760 basechar 0
AnchorPoint: "Anchor-3" 321 760 basechar 0
AnchorPoint: "Anchor-1" 265 265 basechar 0
AnchorPoint: "Anchor-0" 277 0 basechar 0
LayerCount: 2
Fore
SplineSet
251 -10 m 0,0,1
 154 -10 154 -10 105.5 59 c 128,-1,2
 57 128 57 128 57 257 c 0,3,4
 57 394 57 394 109.5 466.5 c 128,-1,5
 162 539 162 539 258 539 c 0,6,7
 328 539 328 539 366 503.5 c 128,-1,8
 404 468 404 468 421 421 c 1,9,-1
 424 421 l 1,10,11
 421 482 421 482 421 545 c 2,12,-1
 421 760 l 1,13,-1
 460 760 l 1,14,-1
 460 0 l 1,15,-1
 428 0 l 1,16,-1
 424 105 l 1,17,-1
 421 105 l 1,18,19
 401 55 401 55 360.5 22.5 c 128,-1,20
 320 -10 320 -10 251 -10 c 0,0,1
530 600 m 1,21,-1
 530 607 l 1,22,23
 538 623 538 623 547 651 c 128,-1,24
 556 679 556 679 563.5 708.5 c 128,-1,25
 571 738 571 738 574 760 c 1,26,-1
 614 760 l 1,27,-1
 614 754 l 1,28,29
 606 717 606 717 590 675.5 c 128,-1,30
 574 634 574 634 553 600 c 1,31,-1
 530 600 l 1,21,-1
257 25 m 0,32,33
 345 25 345 25 383 87.5 c 128,-1,34
 421 150 421 150 421 260 c 2,35,-1
 421 266 l 2,36,37
 421 379 421 379 382.5 441.5 c 128,-1,38
 344 504 344 504 262 504 c 0,39,40
 182 504 182 504 139.5 442.5 c 128,-1,41
 97 381 97 381 97 256 c 0,42,43
 97 25 97 25 257 25 c 0,32,33
EndSplineSet
Substitution2: "'smcp' Lowercase to Small Capitals lookup 33 subtable" dcaron.sc
Substitution2: "'aalt' Access All Alternates lookup 0 subtable" dcaron.sc
EndChar

StartChar: dcroat
Encoding: 273 273 211
Width: 600
GlyphClass: 2
Flags: W
AnchorPoint: "Anchor-4" 580 760 basechar 0
AnchorPoint: "Anchor-3" 300 760 basechar 0
AnchorPoint: "Anchor-1" 300 265 basechar 0
AnchorPoint: "Anchor-0" 300 0 basechar 0
LayerCount: 2
Fore
SplineSet
280 -10 m 0,0,1
 175 -10 175 -10 121 59 c 128,-1,2
 67 128 67 128 67 257 c 0,3,4
 67 394 67 394 124.5 466 c 128,-1,5
 182 538 182 538 288 538 c 0,6,7
 362 538 362 538 403 502.5 c 128,-1,8
 444 467 444 467 461 420 c 1,9,-1
 464 420 l 1,10,11
 461 482 461 482 461 543 c 2,12,-1
 461 625 l 1,13,-1
 257 625 l 1,14,-1
 257 658 l 1,15,-1
 461 658 l 1,16,-1
 461 760 l 1,17,-1
 500 760 l 1,18,-1
 500 658 l 1,19,-1
 600 658 l 1,20,-1
 600 625 l 1,21,-1
 500 625 l 1,22,-1
 500 0 l 1,23,-1
 468 0 l 1,24,-1
 464 105 l 1,25,-1
 461 105 l 1,26,27
 441 55 441 55 398 22.5 c 128,-1,28
 355 -10 355 -10 280 -10 c 0,0,1
285 25 m 0,29,30
 380 25 380 25 420.5 86.5 c 128,-1,31
 461 148 461 148 461 259 c 2,32,-1
 461 266 l 2,33,34
 461 379 461 379 420 441 c 128,-1,35
 379 503 379 503 290 503 c 0,36,37
 203 503 203 503 155 441.5 c 128,-1,38
 107 380 107 380 107 255 c 0,39,40
 107 25 107 25 285 25 c 0,29,30
EndSplineSet
Substitution2: "'smcp' Lowercase to Small Capitals lookup 33 subtable" dcroat.sc
Substitution2: "'aalt' Access All Alternates lookup 0 subtable" dcroat.sc
EndChar

StartChar: eogonek
Encoding: 281 281 219
Width: 600
GlyphClass: 2
Flags: W
AnchorPoint: "Anchor-4" 580 530 basechar 0
AnchorPoint: "Anchor-3" 300 530 basechar 0
AnchorPoint: "Anchor-2" 313 10 basechar 0
AnchorPoint: "Anchor-0" 320 -218 basechar 0
LayerCount: 2
Fore
SplineSet
336 -10 m 0,0,1
 243 -10 243 -10 185 24 c 128,-1,2
 127 58 127 58 99.5 118 c 128,-1,3
 72 178 72 178 72 256 c 0,4,5
 72 336 72 336 99 400 c 128,-1,6
 126 464 126 464 180.5 501.5 c 128,-1,7
 235 539 235 539 317 539 c 0,8,9
 390 539 390 539 436.5 507 c 128,-1,10
 483 475 483 475 505.5 418.5 c 128,-1,11
 528 362 528 362 528 291 c 2,12,-1
 528 263 l 1,13,-1
 112 263 l 1,14,15
 113 148 113 148 167 86.5 c 128,-1,16
 221 25 221 25 338 25 c 0,17,18
 386 25 386 25 427.5 35 c 128,-1,19
 469 45 469 45 511 63 c 1,20,-1
 511 24 l 1,21,22
 486 4 486 4 459.5 -17.5 c 128,-1,23
 433 -39 433 -39 414.5 -66 c 128,-1,24
 396 -93 396 -93 396 -128 c 0,25,26
 396 -186 396 -186 455 -186 c 0,27,28
 480 -186 480 -186 499 -179 c 1,29,-1
 499 -209 l 1,30,31
 489 -213 489 -213 476 -215.5 c 128,-1,32
 463 -218 463 -218 448 -218 c 0,33,34
 409 -218 409 -218 384.5 -196 c 128,-1,35
 360 -174 360 -174 360 -134 c 0,36,37
 360 -92 360 -92 384 -59 c 128,-1,38
 408 -26 408 -26 444 2 c 1,39,40
 391 -10 391 -10 336 -10 c 0,0,1
113 298 m 1,41,-1
 488 298 l 1,42,43
 487 392 487 392 445 448 c 128,-1,44
 403 504 403 504 317 504 c 0,45,46
 234 504 234 504 178.5 451 c 128,-1,47
 123 398 123 398 113 298 c 1,41,-1
EndSplineSet
Substitution2: "'smcp' Lowercase to Small Capitals lookup 33 subtable" eogonek.sc
Substitution2: "'locl' Localized Forms in Latin lookup 11 subtable" eogonek.loclNAV
Ligature2: "'ccmp' Glyph Composition/Decomposition lookup 6 subtable" e uni0328
AlternateSubs2: "'aalt' Access All Alternates lookup 1 subtable" eogonek.loclNAV eogonek.sc
EndChar

StartChar: Hbar
Encoding: 294 294 232
Width: 600
GlyphClass: 2
Flags: W
AnchorPoint: "Anchor-3" 300 714 basechar 0
AnchorPoint: "Anchor-1" 300 357 basechar 0
AnchorPoint: "Anchor-0" 300 0 basechar 0
LayerCount: 2
Fore
SplineSet
90 0 m 1,0,-1
 90 526 l 1,1,-1
 0 526 l 1,2,-1
 0 561 l 1,3,-1
 90 561 l 1,4,-1
 90 714 l 1,5,-1
 129 714 l 1,6,-1
 129 561 l 1,7,-1
 471 561 l 1,8,-1
 471 714 l 1,9,-1
 510 714 l 1,10,-1
 510 561 l 1,11,-1
 600 561 l 1,12,-1
 600 526 l 1,13,-1
 510 526 l 1,14,-1
 510 0 l 1,15,-1
 471 0 l 1,16,-1
 471 357 l 1,17,-1
 129 357 l 1,18,-1
 129 0 l 1,19,-1
 90 0 l 1,0,-1
129 393 m 1,20,-1
 471 393 l 1,21,-1
 471 526 l 1,22,-1
 129 526 l 1,23,-1
 129 393 l 1,20,-1
EndSplineSet
Substitution2: "'c2sc' Capitals to Small Capitals lookup 32 subtable" hbar.sc
Substitution2: "'aalt' Access All Alternates lookup 0 subtable" hbar.sc
EndChar

StartChar: hbar
Encoding: 295 295 233
Width: 600
GlyphClass: 2
Flags: W
AnchorPoint: "Anchor-3" 118 760 basechar 0
AnchorPoint: "Anchor-1" 300 265 basechar 0
AnchorPoint: "Anchor-0" 300 0 basechar 0
LayerCount: 2
Fore
SplineSet
100 0 m 1,0,-1
 100 625 l 1,1,-1
 0 625 l 1,2,-1
 0 658 l 1,3,-1
 100 658 l 1,4,-1
 100 760 l 1,5,-1
 139 760 l 1,6,-1
 139 658 l 1,7,-1
 343 658 l 1,8,-1
 343 625 l 1,9,-1
 139 625 l 1,10,-1
 139 506 l 2,11,12
 139 483 139 483 138.5 462.5 c 128,-1,13
 138 442 138 442 137 420 c 1,14,-1
 139 420 l 1,15,16
 156 470 156 470 201.5 504.5 c 128,-1,17
 247 539 247 539 324 539 c 0,18,19
 408 539 408 539 456.5 493 c 128,-1,20
 505 447 505 447 505 350 c 2,21,-1
 505 0 l 1,22,-1
 466 0 l 1,23,-1
 466 342 l 2,24,25
 466 427 466 427 427 465.5 c 128,-1,26
 388 504 388 504 318 504 c 0,27,28
 238 504 238 504 188.5 453 c 128,-1,29
 139 402 139 402 139 297 c 2,30,-1
 139 0 l 1,31,-1
 100 0 l 1,0,-1
EndSplineSet
Substitution2: "'smcp' Lowercase to Small Capitals lookup 33 subtable" hbar.sc
Substitution2: "'aalt' Access All Alternates lookup 0 subtable" hbar.sc
EndChar

StartChar: IJ
Encoding: 306 306 243
Width: 600
GlyphClass: 2
LigCaretCntFixed: 1
Flags: W
AnchorPoint: "Anchor-3" 300 714 basechar 0
AnchorPoint: "Anchor-0" 300 0 basechar 0
LayerCount: 2
Fore
SplineSet
285 -14 m 0,0,1
 236 -14 236 -14 190.5 -3 c 128,-1,2
 145 8 145 8 117 25 c 1,3,-1
 117 65 l 1,4,5
 142 48 142 48 187 35 c 128,-1,6
 232 22 232 22 285 22 c 0,7,8
 373 22 373 22 411 68.5 c 128,-1,9
 449 115 449 115 449 209 c 2,10,-1
 449 714 l 1,11,-1
 488 714 l 1,12,-1
 488 200 l 2,13,14
 488 100 488 100 441.5 43 c 128,-1,15
 395 -14 395 -14 285 -14 c 0,0,1
112 158 m 1,16,-1
 112 714 l 1,17,-1
 151 714 l 1,18,-1
 151 158 l 1,19,-1
 112 158 l 1,16,-1
EndSplineSet
Substitution2: "'c2sc' Capitals to Small Capitals lookup 32 subtable" ij.sc
Substitution2: "'aalt' Access All Alternates lookup 0 subtable" ij.sc
LCarets2: 1 0
EndChar

StartChar: ij
Encoding: 307 307 244
Width: 600
GlyphClass: 2
LigCaretCntFixed: 1
Flags: W
AnchorPoint: "Anchor-3" 300 739 basechar 0
AnchorPoint: "Anchor-0" 301 -247 basechar 0
LayerCount: 2
Fore
SplineSet
158 655 m 0,0,1
 138 655 138 655 129 666.5 c 128,-1,2
 120 678 120 678 120 697 c 0,3,4
 120 715 120 715 128.5 727 c 128,-1,5
 137 739 137 739 157 739 c 256,6,7
 177 739 177 739 186 727.5 c 128,-1,8
 195 716 195 716 195 696 c 0,9,10
 195 680 195 680 187 667.5 c 128,-1,11
 179 655 179 655 158 655 c 0,0,1
443 655 m 0,12,13
 423 655 423 655 414 666.5 c 128,-1,14
 405 678 405 678 405 697 c 0,15,16
 405 715 405 715 413.5 727 c 128,-1,17
 422 739 422 739 443 739 c 0,18,19
 462 739 462 739 471 727.5 c 128,-1,20
 480 716 480 716 480 696 c 0,21,22
 480 680 480 680 472 667.5 c 128,-1,23
 464 655 464 655 443 655 c 0,12,13
275 -247 m 0,24,25
 232 -247 232 -247 194 -239 c 128,-1,26
 156 -231 156 -231 132 -220 c 1,27,-1
 132 -182 l 1,28,29
 158 -196 158 -196 198 -203.5 c 128,-1,30
 238 -211 238 -211 275 -211 c 0,31,32
 354 -211 354 -211 389.5 -174.5 c 128,-1,33
 425 -138 425 -138 425 -72 c 2,34,-1
 425 530 l 1,35,-1
 464 530 l 1,36,-1
 464 -81 l 2,37,38
 464 -164 464 -164 414.5 -205.5 c 128,-1,39
 365 -247 365 -247 275 -247 c 0,24,25
138 0 m 1,40,-1
 138 530 l 1,41,-1
 177 530 l 1,42,-1
 177 0 l 1,43,-1
 138 0 l 1,40,-1
EndSplineSet
Substitution2: "'smcp' Lowercase to Small Capitals lookup 33 subtable" ij.sc
Substitution2: "'aalt' Access All Alternates lookup 0 subtable" ij.sc
LCarets2: 1 0
EndChar

StartChar: kgreenlandic
Encoding: 312 312 249
Width: 600
GlyphClass: 2
Flags: W
AnchorPoint: "Anchor-3" 300 530 basechar 0
AnchorPoint: "Anchor-0" 300 0 basechar 0
LayerCount: 2
Fore
SplineSet
133 0 m 1,0,-1
 133 530 l 1,1,-1
 172 530 l 1,2,-1
 172 387 l 2,3,4
 172 342 172 342 171.5 298.5 c 128,-1,5
 171 255 171 255 170 210 c 1,6,-1
 172 210 l 1,7,8
 204 244 204 244 241 282 c 2,9,-1
 482 530 l 1,10,-1
 531 530 l 1,11,-1
 323 313 l 1,12,-1
 550 0 l 1,13,-1
 504 0 l 1,14,-1
 297 288 l 1,15,-1
 172 169 l 1,16,-1
 172 0 l 1,17,-1
 133 0 l 1,0,-1
EndSplineSet
EndChar

StartChar: Lslash
Encoding: 321 321 258
Width: 600
GlyphClass: 2
Flags: W
AnchorPoint: "Anchor-4" 468 714 basechar 0
AnchorPoint: "Anchor-3" 202 714 basechar 0
AnchorPoint: "Anchor-1" 340 357 basechar 0
AnchorPoint: "Anchor-0" 375 0 basechar 0
LayerCount: 2
Fore
SplineSet
183 0 m 1,0,-1
 183 288 l 1,1,-1
 102 237 l 1,2,-1
 83 266 l 1,3,-1
 183 329 l 1,4,-1
 183 714 l 1,5,-1
 222 714 l 1,6,-1
 222 354 l 1,7,-1
 377 452 l 1,8,-1
 396 423 l 1,9,-1
 222 313 l 1,10,-1
 222 37 l 1,11,-1
 551 37 l 1,12,-1
 551 0 l 1,13,-1
 183 0 l 1,0,-1
EndSplineSet
Substitution2: "'c2sc' Capitals to Small Capitals lookup 32 subtable" lslash.sc
Substitution2: "'aalt' Access All Alternates lookup 0 subtable" lslash.sc
EndChar

StartChar: lslash
Encoding: 322 322 259
Width: 600
GlyphClass: 2
Flags: W
AnchorPoint: "Anchor-4" 487 760 basechar 0
AnchorPoint: "Anchor-3" 300 760 basechar 0
AnchorPoint: "Anchor-1" 316 381 basechar 0
AnchorPoint: "Anchor-0" 300 0 basechar 0
LayerCount: 2
Fore
SplineSet
96 0 m 1,0,-1
 96 29 l 1,1,-1
 296 35 l 1,2,-1
 296 333 l 1,3,-1
 179 258 l 1,4,-1
 160 286 l 1,5,-1
 296 373 l 1,6,-1
 296 725 l 1,7,-1
 115 731 l 1,8,-1
 115 760 l 1,9,-1
 335 760 l 1,10,-1
 335 398 l 1,11,-1
 454 474 l 1,12,-1
 473 446 l 1,13,-1
 335 358 l 1,14,-1
 335 35 l 1,15,-1
 532 29 l 1,16,-1
 532 0 l 1,17,-1
 96 0 l 1,0,-1
EndSplineSet
Substitution2: "'smcp' Lowercase to Small Capitals lookup 33 subtable" lslash.sc
Substitution2: "'aalt' Access All Alternates lookup 0 subtable" lslash.sc
EndChar

StartChar: napostrophe
Encoding: 329 329 266
Width: 600
GlyphClass: 2
Flags: W
AnchorPoint: "Anchor-3" 310 530 basechar 0
AnchorPoint: "Anchor-0" 314 0 basechar 0
LayerCount: 2
Fore
SplineSet
-13 469 m 1,0,1
 1 505 1 505 13 548.5 c 128,-1,2
 25 592 25 592 34 635 c 128,-1,3
 43 678 43 678 47 714 c 1,4,-1
 84 714 l 1,5,-1
 90 705 l 1,6,7
 80 645 80 645 59.5 583.5 c 128,-1,8
 39 522 39 522 15 469 c 1,9,-1
 -13 469 l 1,0,1
120 0 m 1,10,-1
 120 530 l 1,11,-1
 152 530 l 1,12,-1
 157 425 l 1,13,-1
 160 425 l 1,14,15
 178 471 178 471 219.5 505 c 128,-1,16
 261 539 261 539 335 539 c 0,17,18
 414 539 414 539 459.5 493.5 c 128,-1,19
 505 448 505 448 505 355 c 2,20,-1
 505 0 l 1,21,-1
 466 0 l 1,22,-1
 466 344 l 2,23,24
 466 428 466 428 430 466 c 128,-1,25
 394 504 394 504 329 504 c 0,26,27
 250 504 250 504 204.5 453 c 128,-1,28
 159 402 159 402 159 297 c 2,29,-1
 159 0 l 1,30,-1
 120 0 l 1,10,-1
EndSplineSet
EndChar

StartChar: Eng
Encoding: 330 330 267
Width: 600
GlyphClass: 2
Flags: W
AnchorPoint: "Anchor-4" 600 714 basechar 0
AnchorPoint: "Anchor-3" 305 714 basechar 0
AnchorPoint: "Anchor-0" 321 -177 basechar 0
LayerCount: 2
Fore
SplineSet
90 0 m 1,0,-1
 90 714 l 1,1,-1
 136 714 l 1,2,-1
 472 66 l 1,3,-1
 474 66 l 1,4,5
 472 106 472 106 472 146 c 128,-1,6
 472 186 472 186 472 220 c 2,7,-1
 472 714 l 1,8,-1
 510 714 l 1,9,-1
 510 0 l 1,10,-1
 510 0 l 1,11,12
 509 -85 509 -85 468.5 -131 c 128,-1,13
 428 -177 428 -177 353 -177 c 0,14,15
 330 -177 330 -177 308 -173 c 128,-1,16
 286 -169 286 -169 274 -164 c 1,17,-1
 274 -129 l 1,18,19
 307 -140 307 -140 352 -140 c 0,20,21
 408 -140 408 -140 440 -106.5 c 128,-1,22
 472 -73 472 -73 472 0 c 1,23,-1
 466 0 l 1,24,-1
 127 656 l 1,25,-1
 125 656 l 1,26,27
 126 619 126 619 127 583 c 128,-1,28
 128 547 128 547 128 503 c 2,29,-1
 128 0 l 1,30,-1
 90 0 l 1,0,-1
EndSplineSet
Substitution2: "'c2sc' Capitals to Small Capitals lookup 32 subtable" eng.sc
AlternateSubs2: "'aalt' Access All Alternates lookup 1 subtable" Eng.alt1 Eng.alt2 Eng.alt3 eng.sc
EndChar

StartChar: eng
Encoding: 331 331 268
Width: 600
GlyphClass: 2
Flags: W
AnchorPoint: "Anchor-4" 580 530 basechar 0
AnchorPoint: "Anchor-3" 309 530 basechar 0
AnchorPoint: "Anchor-0" 313 -240 basechar 0
LayerCount: 2
Fore
SplineSet
100 0 m 1,0,-1
 100 530 l 1,1,-1
 132 530 l 1,2,-1
 137 425 l 1,3,-1
 140 425 l 1,4,5
 158 471 158 471 202 505 c 128,-1,6
 246 539 246 539 325 539 c 0,7,8
 408 539 408 539 456.5 493.5 c 128,-1,9
 505 448 505 448 505 355 c 2,10,-1
 505 -96 l 2,11,12
 505 -168 505 -168 471.5 -204 c 128,-1,13
 438 -240 438 -240 386 -240 c 0,14,15
 364 -240 364 -240 345.5 -237 c 128,-1,16
 327 -234 327 -234 313 -230 c 1,17,-1
 313 -194 l 1,18,19
 330 -201 330 -201 348 -203 c 128,-1,20
 366 -205 366 -205 384 -205 c 0,21,22
 466 -205 466 -205 466 -93 c 2,23,-1
 466 344 l 2,24,25
 466 428 466 428 428 466 c 128,-1,26
 390 504 390 504 319 504 c 0,27,28
 236 504 236 504 187.5 453 c 128,-1,29
 139 402 139 402 139 297 c 2,30,-1
 139 0 l 1,31,-1
 100 0 l 1,0,-1
EndSplineSet
Substitution2: "'smcp' Lowercase to Small Capitals lookup 33 subtable" eng.sc
Substitution2: "'aalt' Access All Alternates lookup 0 subtable" eng.sc
EndChar

StartChar: OE
Encoding: 338 338 275
Width: 600
GlyphClass: 2
Flags: W
AnchorPoint: "Anchor-3" 300 714 basechar 0
AnchorPoint: "Anchor-0" 300 0 basechar 0
LayerCount: 2
Fore
SplineSet
287 -4 m 0,0,1
 166 -4 166 -4 109 89.5 c 128,-1,2
 52 183 52 183 52 359 c 0,3,4
 52 466 52 466 72.5 546.5 c 128,-1,5
 93 627 93 627 145 671.5 c 128,-1,6
 197 716 197 716 292 716 c 0,7,8
 308 716 308 716 323.5 715.5 c 128,-1,9
 339 715 339 715 355 714 c 2,10,-1
 568 714 l 1,11,-1
 568 679 l 1,12,-1
 342 679 l 1,13,-1
 342 393 l 1,14,-1
 554 393 l 1,15,-1
 554 357 l 1,16,-1
 342 357 l 1,17,-1
 342 36 l 1,18,-1
 568 36 l 1,19,-1
 568 0 l 1,20,-1
 348 0 l 2,21,22
 334 -1 334 -1 319 -2.5 c 128,-1,23
 304 -4 304 -4 287 -4 c 0,0,1
284 33 m 0,24,25
 295 33 295 33 304 36 c 1,26,-1
 304 678 l 1,27,28
 295 681 295 681 284 681 c 0,29,30
 206 681 206 681 164 639 c 128,-1,31
 122 597 122 597 106.5 524 c 128,-1,32
 91 451 91 451 91 359 c 0,33,34
 91 208 91 208 137.5 120.5 c 128,-1,35
 184 33 184 33 284 33 c 0,24,25
EndSplineSet
Substitution2: "'c2sc' Capitals to Small Capitals lookup 32 subtable" oe.sc
Substitution2: "'aalt' Access All Alternates lookup 0 subtable" oe.sc
EndChar

StartChar: oe
Encoding: 339 339 276
Width: 600
GlyphClass: 2
Flags: W
AnchorPoint: "Anchor-3" 300 530 basechar 0
AnchorPoint: "Anchor-0" 300 0 basechar 0
LayerCount: 2
Fore
SplineSet
180 -10 m 0,0,1
 107 -10 107 -10 70 64 c 128,-1,2
 33 138 33 138 33 266 c 0,3,4
 33 399 33 399 72.5 469 c 128,-1,5
 112 539 112 539 185 539 c 0,6,7
 240 539 240 539 270 497.5 c 128,-1,8
 300 456 300 456 311 389 c 1,9,10
 324 453 324 453 355 496 c 128,-1,11
 386 539 386 539 438 539 c 0,12,13
 482 539 482 539 508.5 506 c 128,-1,14
 535 473 535 473 547 418.5 c 128,-1,15
 559 364 559 364 559 299 c 2,16,-1
 559 265 l 1,17,-1
 331 265 l 1,18,19
 332 146 332 146 363.5 84.5 c 128,-1,20
 395 23 395 23 455 23 c 0,21,22
 478 23 478 23 500 31 c 128,-1,23
 522 39 522 39 551 59 c 1,24,-1
 551 22 l 1,25,26
 522 4 522 4 500 -3 c 128,-1,27
 478 -10 478 -10 452 -10 c 0,28,29
 392 -10 392 -10 358 31 c 128,-1,30
 324 72 324 72 311 141 c 1,31,32
 298 74 298 74 266.5 32 c 128,-1,33
 235 -10 235 -10 180 -10 c 0,0,1
332 299 m 1,34,-1
 523 299 l 1,35,36
 523 358 523 358 514 404.5 c 128,-1,37
 505 451 505 451 486.5 478.5 c 128,-1,38
 468 506 468 506 437 506 c 0,39,40
 394 506 394 506 365 455 c 128,-1,41
 336 404 336 404 332 299 c 1,34,-1
180 24 m 0,42,43
 219 24 219 24 243.5 55 c 128,-1,44
 268 86 268 86 279 140.5 c 128,-1,45
 290 195 290 195 290 265 c 0,46,47
 290 374 290 374 266 439.5 c 128,-1,48
 242 505 242 505 186 505 c 0,49,50
 128 505 128 505 99 442.5 c 128,-1,51
 70 380 70 380 70 265 c 0,52,53
 70 152 70 152 97 88 c 128,-1,54
 124 24 124 24 180 24 c 0,42,43
EndSplineSet
Substitution2: "'smcp' Lowercase to Small Capitals lookup 33 subtable" oe.sc
Substitution2: "'aalt' Access All Alternates lookup 0 subtable" oe.sc
EndChar

StartChar: Tbar
Encoding: 358 358 295
Width: 600
GlyphClass: 2
Flags: W
AnchorPoint: "Anchor-4" 580 714 basechar 0
AnchorPoint: "Anchor-3" 300 714 basechar 0
AnchorPoint: "Anchor-1" 300 357 basechar 0
AnchorPoint: "Anchor-0" 300 0 basechar 0
LayerCount: 2
Fore
SplineSet
280 0 m 1,0,-1
 280 349 l 1,1,-1
 109 349 l 1,2,-1
 109 384 l 1,3,-1
 280 384 l 1,4,-1
 280 678 l 1,5,-1
 49 678 l 1,6,-1
 49 714 l 1,7,-1
 551 714 l 1,8,-1
 551 678 l 1,9,-1
 320 678 l 1,10,-1
 320 384 l 1,11,-1
 491 384 l 1,12,-1
 491 349 l 1,13,-1
 320 349 l 1,14,-1
 320 0 l 1,15,-1
 280 0 l 1,0,-1
EndSplineSet
Substitution2: "'c2sc' Capitals to Small Capitals lookup 32 subtable" tbar.sc
Substitution2: "'aalt' Access All Alternates lookup 0 subtable" tbar.sc
EndChar

StartChar: tbar
Encoding: 359 359 296
Width: 600
GlyphClass: 2
Flags: W
AnchorPoint: "Anchor-4" 580 663 basechar 0
AnchorPoint: "Anchor-3" 269 663 basechar 0
AnchorPoint: "Anchor-1" 264 265 basechar 0
AnchorPoint: "Anchor-0" 320 0 basechar 0
LayerCount: 2
Fore
SplineSet
78 284 m 1,0,-1
 78 317 l 1,1,-1
 244 317 l 1,2,-1
 244 494 l 1,3,-1
 78 494 l 1,4,-1
 78 524 l 1,5,-1
 243 530 l 1,6,-1
 251 663 l 1,7,-1
 283 663 l 1,8,-1
 283 530 l 1,9,-1
 499 530 l 1,10,-1
 499 494 l 1,11,-1
 283 494 l 1,12,-1
 283 317 l 1,13,-1
 502 317 l 1,14,-1
 502 284 l 1,15,-1
 283 284 l 1,16,-1
 283 182 l 2,17,18
 283 106 283 106 309.5 65.5 c 128,-1,19
 336 25 336 25 410 25 c 0,20,21
 436 25 436 25 457 28.5 c 128,-1,22
 478 32 478 32 495 38 c 1,23,-1
 495 4 l 1,24,25
 477 -2 477 -2 457 -6 c 128,-1,26
 437 -10 437 -10 409 -10 c 0,27,28
 320 -10 320 -10 282 38 c 128,-1,29
 244 86 244 86 244 177 c 2,30,-1
 244 284 l 1,31,-1
 78 284 l 1,0,-1
EndSplineSet
Substitution2: "'smcp' Lowercase to Small Capitals lookup 33 subtable" tbar.sc
Substitution2: "'aalt' Access All Alternates lookup 0 subtable" tbar.sc
EndChar

StartChar: Uogonek
Encoding: 370 370 307
Width: 600
GlyphClass: 2
Flags: W
AnchorPoint: "Anchor-4" 580 714 basechar 0
AnchorPoint: "Anchor-3" 300 714 basechar 0
AnchorPoint: "Anchor-2" 540 10 basechar 0
AnchorPoint: "Anchor-0" 306 -218 basechar 0
LayerCount: 2
Fore
SplineSet
296 -10 m 0,0,1
 188 -10 188 -10 139 58 c 128,-1,2
 90 126 90 126 90 254 c 2,3,-1
 90 714 l 1,4,-1
 129 714 l 1,5,-1
 129 258 l 2,6,7
 129 145 129 145 168.5 85.5 c 128,-1,8
 208 26 208 26 298 26 c 0,9,10
 386 26 386 26 428.5 84 c 128,-1,11
 471 142 471 142 471 258 c 2,12,-1
 471 714 l 1,13,-1
 510 714 l 1,14,-1
 510 252 l 2,15,16
 510 74 510 74 408 16 c 1,17,-1
 408 16 l 1,18,19
 380 -5 380 -5 350 -26 c 128,-1,20
 320 -47 320 -47 299.5 -72 c 128,-1,21
 279 -97 279 -97 279 -131 c 0,22,23
 279 -156 279 -156 293 -171 c 128,-1,24
 307 -186 307 -186 338 -186 c 0,25,26
 363 -186 363 -186 382 -179 c 1,27,-1
 382 -209 l 1,28,29
 372 -213 372 -213 359 -215.5 c 128,-1,30
 346 -218 346 -218 331 -218 c 0,31,32
 292 -218 292 -218 267.5 -197.5 c 128,-1,33
 243 -177 243 -177 243 -134 c 0,34,35
 243 -90 243 -90 268.5 -61.5 c 128,-1,36
 294 -33 294 -33 330 -8 c 1,37,38
 314 -10 314 -10 296 -10 c 0,0,1
EndSplineSet
Substitution2: "'c2sc' Capitals to Small Capitals lookup 32 subtable" uogonek.sc
Substitution2: "'locl' Localized Forms in Latin lookup 11 subtable" Uogonek.loclNAV
Ligature2: "'ccmp' Glyph Composition/Decomposition lookup 6 subtable" U uni0328
AlternateSubs2: "'aalt' Access All Alternates lookup 1 subtable" Uogonek.loclNAV uogonek.sc
EndChar

StartChar: longs
Encoding: 383 383 320
Width: 600
GlyphClass: 2
Flags: W
AnchorPoint: "Anchor-3" 409 765 basechar 0
AnchorPoint: "Anchor-0" 300 0 basechar 0
LayerCount: 2
Fore
SplineSet
253 0 m 1,0,-1
 253 559 l 2,1,2
 253 656 253 656 300.5 710.5 c 128,-1,3
 348 765 348 765 437 765 c 0,4,5
 460 765 460 765 480 762 c 128,-1,6
 500 759 500 759 518 754 c 1,7,-1
 511 719 l 1,8,9
 495 724 495 724 477.5 727 c 128,-1,10
 460 730 460 730 437 730 c 0,11,12
 291 730 291 730 291 554 c 2,13,-1
 291 0 l 1,14,-1
 253 0 l 1,0,-1
EndSplineSet
EndChar

StartChar: florin
Encoding: 402 402 321
Width: 600
GlyphClass: 2
Flags: W
AnchorPoint: "Anchor-3" 370 724 basechar 0
AnchorPoint: "Anchor-0" 287 -240 basechar 0
LayerCount: 2
Fore
SplineSet
180 -240 m 0,0,1
 157 -240 157 -240 139.5 -237 c 128,-1,2
 122 -234 122 -234 110 -231 c 1,3,-1
 110 -195 l 1,4,5
 126 -200 126 -200 143 -202.5 c 128,-1,6
 160 -205 160 -205 179 -205 c 0,7,8
 266 -205 266 -205 266 -87 c 2,9,-1
 266 420 l 1,10,-1
 165 420 l 1,11,-1
 165 446 l 1,12,-1
 266 455 l 1,13,-1
 266 540 l 2,14,15
 266 724 266 724 420 724 c 0,16,17
 445 724 445 724 466.5 720.5 c 128,-1,18
 488 717 488 717 508 711 c 1,19,-1
 499 677 l 1,20,21
 464 689 464 689 418 689 c 0,22,23
 360 689 360 689 332 654 c 128,-1,24
 304 619 304 619 304 538 c 2,25,-1
 304 454 l 1,26,-1
 445 454 l 1,27,-1
 445 420 l 1,28,-1
 305 420 l 1,29,-1
 305 -91 l 2,30,31
 305 -161 305 -161 273.5 -200.5 c 128,-1,32
 242 -240 242 -240 180 -240 c 0,0,1
EndSplineSet
EndChar

StartChar: circumflex
Encoding: 710 710 330
Width: 600
Flags: W
LayerCount: 2
Fore
SplineSet
161 606 m 1,0,-1
 161 613 l 1,1,2
 180 634 180 634 202.5 661 c 128,-1,3
 225 688 225 688 245.5 715.5 c 128,-1,4
 266 743 266 743 279 764 c 1,5,-1
 315 764 l 1,6,7
 327 743 327 743 347.5 715.5 c 128,-1,8
 368 688 368 688 390 660.5 c 128,-1,9
 412 633 412 633 431 613 c 1,10,-1
 431 606 l 1,11,-1
 401 606 l 1,12,13
 374 632 374 632 346 664.5 c 128,-1,14
 318 697 318 697 296 725 c 1,15,16
 274 697 274 697 246 664.5 c 128,-1,17
 218 632 218 632 190 606 c 1,18,-1
 161 606 l 1,0,-1
EndSplineSet
EndChar

StartChar: caron
Encoding: 711 711 331
Width: 600
GlyphClass: 2
Flags: W
AnchorPoint: "Anchor-13" 299 763 basemark 0
AnchorPoint: "Anchor-13" 299 528 mark 0
AnchorPoint: "Anchor-8" 299 528 mark 0
AnchorPoint: "Anchor-3" 299 528 mark 0
LayerCount: 2
Fore
SplineSet
281 606 m 1,0,1
 269 627 269 627 248.5 654.5 c 128,-1,2
 228 682 228 682 206 709 c 128,-1,3
 184 736 184 736 165 756 c 1,4,-1
 165 764 l 1,5,-1
 194 764 l 1,6,7
 222 738 222 738 249.5 706 c 128,-1,8
 277 674 277 674 299 645 c 1,9,10
 321 674 321 674 349.5 706 c 128,-1,11
 378 738 378 738 405 764 c 1,12,-1
 435 764 l 1,13,-1
 435 756 l 1,14,15
 416 736 416 736 393.5 709 c 128,-1,16
 371 682 371 682 350 654.5 c 128,-1,17
 329 627 329 627 317 606 c 1,18,-1
 281 606 l 1,0,1
EndSplineSet
EndChar

StartChar: breve
Encoding: 728 728 333
Width: 600
GlyphClass: 2
Flags: W
AnchorPoint: "Anchor-13" 298 765 basemark 0
AnchorPoint: "Anchor-13" 299 530 mark 0
AnchorPoint: "Anchor-8" 299 530 mark 0
AnchorPoint: "Anchor-3" 299 530 mark 0
LayerCount: 2
Fore
SplineSet
299 606 m 0,0,1
 244 606 244 606 209 636 c 128,-1,2
 174 666 174 666 170 722 c 1,3,-1
 202 722 l 1,4,5
 207 682 207 682 233.5 659.5 c 128,-1,6
 260 637 260 637 300 637 c 0,7,8
 341 637 341 637 366.5 659.5 c 128,-1,9
 392 682 392 682 397 722 c 1,10,-1
 429 722 l 1,11,12
 423 666 423 666 389 636 c 128,-1,13
 355 606 355 606 299 606 c 0,0,1
EndSplineSet
EndChar

StartChar: dotaccent
Encoding: 729 729 334
Width: 600
Flags: W
LayerCount: 2
Fore
SplineSet
300 655 m 0,0,1
 280 655 280 655 271 666.5 c 128,-1,2
 262 678 262 678 262 697 c 0,3,4
 262 715 262 715 270.5 727 c 128,-1,5
 279 739 279 739 300 739 c 0,6,7
 320 739 320 739 328.5 727 c 128,-1,8
 337 715 337 715 337 697 c 0,9,10
 337 680 337 680 329 667.5 c 128,-1,11
 321 655 321 655 300 655 c 0,0,1
EndSplineSet
EndChar

StartChar: ring
Encoding: 730 730 335
Width: 600
Flags: W
LayerCount: 2
Fore
SplineSet
299 610 m 0,0,1
 258 610 258 610 227.5 636 c 128,-1,2
 197 662 197 662 197 710 c 0,3,4
 197 756 197 756 226.5 784 c 128,-1,5
 256 812 256 812 299 812 c 256,6,7
 342 812 342 812 372 784 c 128,-1,8
 402 756 402 756 402 711 c 0,9,10
 402 664 402 664 372 637 c 128,-1,11
 342 610 342 610 299 610 c 0,0,1
299 638 m 0,12,13
 331 638 331 638 351 658.5 c 128,-1,14
 371 679 371 679 371 711 c 0,15,16
 371 742 371 742 351.5 763 c 128,-1,17
 332 784 332 784 300 784 c 0,18,19
 267 784 267 784 247.5 763 c 128,-1,20
 228 742 228 742 228 710 c 256,21,22
 228 678 228 678 248 658 c 128,-1,23
 268 638 268 638 299 638 c 0,12,13
EndSplineSet
EndChar

StartChar: ogonek
Encoding: 731 731 336
Width: 600
Flags: W
LayerCount: 2
Fore
SplineSet
318 -218 m 0,0,1
 280 -218 280 -218 255.5 -196.5 c 128,-1,2
 231 -175 231 -175 231 -134 c 0,3,4
 231 -96 231 -96 256.5 -60 c 128,-1,5
 282 -24 282 -24 330 12 c 1,6,-1
 354 0 l 1,7,8
 320 -28 320 -28 293.5 -59.5 c 128,-1,9
 267 -91 267 -91 267 -128 c 0,10,11
 267 -186 267 -186 323 -186 c 0,12,13
 351 -186 351 -186 370 -179 c 1,14,-1
 370 -209 l 1,15,16
 360 -213 360 -213 347 -215.5 c 128,-1,17
 334 -218 334 -218 318 -218 c 0,0,1
EndSplineSet
EndChar

StartChar: tilde
Encoding: 732 732 337
Width: 600
Flags: W
LayerCount: 2
Fore
SplineSet
134 616 m 1,0,1
 138 667 138 667 163 693.5 c 128,-1,2
 188 720 188 720 228 720 c 0,3,4
 252 720 252 720 270.5 709 c 128,-1,5
 289 698 289 698 305 684 c 128,-1,6
 321 670 321 670 337.5 659 c 128,-1,7
 354 648 354 648 373 648 c 0,8,9
 396 648 396 648 414 662.5 c 128,-1,10
 432 677 432 677 436 720 c 1,11,-1
 466 720 l 1,12,13
 462 669 462 669 436.5 642 c 128,-1,14
 411 615 411 615 372 615 c 0,15,16
 347 615 347 615 328.5 625.5 c 128,-1,17
 310 636 310 636 294.5 650.5 c 128,-1,18
 279 665 279 665 262.5 675.5 c 128,-1,19
 246 686 246 686 225 686 c 256,20,21
 204 686 204 686 187 671.5 c 128,-1,22
 170 657 170 657 165 616 c 1,23,-1
 134 616 l 1,0,1
EndSplineSet
EndChar

StartChar: hungarumlaut
Encoding: 733 733 338
Width: 600
Flags: W
LayerCount: 2
Fore
SplineSet
331 606 m 1,0,-1
 331 613 l 1,1,2
 348 632 348 632 368 659.5 c 128,-1,3
 388 687 388 687 406 715.5 c 128,-1,4
 424 744 424 744 436 766 c 1,5,-1
 479 766 l 1,6,-1
 479 758 l 1,7,8
 466 736 466 736 445.5 708.5 c 128,-1,9
 425 681 425 681 402 654 c 128,-1,10
 379 627 379 627 358 606 c 1,11,-1
 331 606 l 1,0,-1
184 606 m 1,12,-1
 184 613 l 1,13,14
 201 632 201 632 221 659.5 c 128,-1,15
 241 687 241 687 258.5 715.5 c 128,-1,16
 276 744 276 744 288 766 c 1,17,-1
 332 766 l 1,18,-1
 332 758 l 1,19,20
 318 736 318 736 297.5 708.5 c 128,-1,21
 277 681 277 681 254.5 654 c 128,-1,22
 232 627 232 627 211 606 c 1,23,-1
 184 606 l 1,12,-1
EndSplineSet
EndChar

StartChar: tonos
Encoding: 900 900 339
Width: 600
GlyphClass: 2
Flags: W
AnchorPoint: "Anchor-13" 297 760 basemark 0
AnchorPoint: "Anchor-13" 285 530 mark 0
AnchorPoint: "Anchor-8" 285 530 mark 0
AnchorPoint: "Anchor-3" 285 530 mark 0
LayerCount: 2
Fore
SplineSet
267 606 m 1,0,-1
 267 614 l 1,1,2
 279 652 279 652 291.5 706 c 128,-1,3
 304 760 304 760 309 807 c 1,4,-1
 350 807 l 1,5,-1
 350 798 l 1,6,7
 346 769 346 769 336 734.5 c 128,-1,8
 326 700 326 700 315 666 c 128,-1,9
 304 632 304 632 293 606 c 1,10,-1
 267 606 l 1,0,-1
EndSplineSet
EndChar

StartChar: dieresistonos
Encoding: 901 901 340
Width: 600
GlyphClass: 2
Flags: W
AnchorPoint: "Anchor-13" 301 838 basemark 0
AnchorPoint: "Anchor-13" 300 530 mark 0
AnchorPoint: "Anchor-8" 300 530 mark 0
AnchorPoint: "Anchor-3" 300 530 mark 0
LayerCount: 2
Fore
SplineSet
281 671 m 1,0,-1
 281 679 l 1,1,2
 295 713 295 713 308 757.5 c 128,-1,3
 321 802 321 802 327 839 c 1,4,-1
 371 839 l 1,5,-1
 371 830 l 1,6,7
 362 796 362 796 343 751 c 128,-1,8
 324 706 324 706 304 671 c 1,9,-1
 281 671 l 1,0,-1
199 641 m 0,10,11
 182 641 182 641 175.5 651.5 c 128,-1,12
 169 662 169 662 169 679 c 0,13,14
 169 716 169 716 199 716 c 0,15,16
 217 716 217 716 223.5 705 c 128,-1,17
 230 694 230 694 230 679 c 0,18,19
 230 663 230 663 223.5 652 c 128,-1,20
 217 641 217 641 199 641 c 0,10,11
400 641 m 256,21,22
 383 641 383 641 376 651.5 c 128,-1,23
 369 662 369 662 369 679 c 256,24,25
 369 696 369 696 376 706 c 128,-1,26
 383 716 383 716 400 716 c 256,27,28
 417 716 417 716 423.5 705 c 128,-1,29
 430 694 430 694 430 679 c 0,30,31
 430 662 430 662 423.5 651.5 c 128,-1,32
 417 641 417 641 400 641 c 256,21,22
EndSplineSet
EndChar

StartChar: Epsilontonos
Encoding: 904 904 343
Width: 600
GlyphClass: 2
Flags: W
AnchorPoint: "Anchor-3" 324 714 basechar 0
AnchorPoint: "Anchor-0" 333 0 basechar 0
LayerCount: 2
Fore
SplineSet
-23 606 m 1,0,-1
 -23 614 l 1,1,2
 -11 652 -11 652 1.5 706 c 128,-1,3
 14 760 14 760 19 807 c 1,4,-1
 60 807 l 1,5,-1
 60 798 l 1,6,7
 56 769 56 769 46 734.5 c 128,-1,8
 36 700 36 700 25 666 c 128,-1,9
 14 632 14 632 3 606 c 1,10,-1
 -23 606 l 1,0,-1
117 0 m 1,11,-1
 117 714 l 1,12,-1
 511 714 l 1,13,-1
 511 678 l 1,14,-1
 156 678 l 1,15,-1
 156 394 l 1,16,-1
 491 394 l 1,17,-1
 491 358 l 1,18,-1
 156 358 l 1,19,-1
 156 36 l 1,20,-1
 511 36 l 1,21,-1
 511 0 l 1,22,-1
 117 0 l 1,11,-1
EndSplineSet
EndChar

StartChar: Etatonos
Encoding: 905 905 344
Width: 600
GlyphClass: 2
Flags: W
AnchorPoint: "Anchor-3" 318 714 basechar 0
AnchorPoint: "Anchor-1" 318 377 basechar 0
AnchorPoint: "Anchor-0" 318 0 basechar 0
LayerCount: 2
Fore
SplineSet
-31 606 m 1,0,-1
 -31 614 l 1,1,2
 -19 652 -19 652 -6.5 706 c 128,-1,3
 6 760 6 760 11 807 c 1,4,-1
 52 807 l 1,5,-1
 52 798 l 1,6,7
 48 769 48 769 38 734.5 c 128,-1,8
 28 700 28 700 17 666 c 128,-1,9
 6 632 6 632 -5 606 c 1,10,-1
 -31 606 l 1,0,-1
122 0 m 1,11,-1
 122 714 l 1,12,-1
 161 714 l 1,13,-1
 161 393 l 1,14,-1
 471 393 l 1,15,-1
 471 714 l 1,16,-1
 510 714 l 1,17,-1
 510 0 l 1,18,-1
 471 0 l 1,19,-1
 471 357 l 1,20,-1
 161 357 l 1,21,-1
 161 0 l 1,22,-1
 122 0 l 1,11,-1
EndSplineSet
EndChar

StartChar: Upsilontonos
Encoding: 910 910 347
Width: 600
GlyphClass: 2
Flags: W
AnchorPoint: "Anchor-3" 337 714 basechar 0
AnchorPoint: "Anchor-0" 337 0 basechar 0
LayerCount: 2
Fore
SplineSet
-17 606 m 1,0,-1
 -17 614 l 1,1,2
 -5 652 -5 652 7.5 706 c 128,-1,3
 20 760 20 760 25 807 c 1,4,-1
 66 807 l 1,5,-1
 66 798 l 1,6,7
 62 769 62 769 52 734.5 c 128,-1,8
 42 700 42 700 31 666 c 128,-1,9
 20 632 20 632 9 606 c 1,10,-1
 -17 606 l 1,0,-1
317 0 m 1,11,-1
 317 271 l 1,12,-1
 110 714 l 1,13,-1
 151 714 l 1,14,-1
 336 311 l 1,15,-1
 518 714 l 1,16,-1
 560 714 l 1,17,-1
 355 271 l 1,18,-1
 355 0 l 1,19,-1
 317 0 l 1,11,-1
EndSplineSet
EndChar

StartChar: Gamma
Encoding: 915 915 352
Width: 600
GlyphClass: 2
Flags: W
AnchorPoint: "Anchor-3" 340 714 basechar 0
AnchorPoint: "Anchor-0" 340 0 basechar 0
LayerCount: 2
Fore
SplineSet
143 0 m 1,0,-1
 143 714 l 1,1,-1
 511 714 l 1,2,-1
 511 678 l 1,3,-1
 182 678 l 1,4,-1
 182 0 l 1,5,-1
 143 0 l 1,0,-1
EndSplineSet
EndChar

StartChar: uni0394
Encoding: 916 916 353
Width: 600
GlyphClass: 2
Flags: W
AnchorPoint: "Anchor-3" 300 714 basechar 0
AnchorPoint: "Anchor-0" 300 0 basechar 0
LayerCount: 2
Fore
SplineSet
20 0 m 1,0,-1
 20 22 l 1,1,-1
 280 714 l 1,2,-1
 318 714 l 1,3,-1
 580 21 l 1,4,-1
 580 0 l 1,5,-1
 20 0 l 1,0,-1
66 36 m 1,6,-1
 533 36 l 1,7,-1
 343 543 l 2,8,9
 330 579 330 579 318 613.5 c 128,-1,10
 306 648 306 648 299 669 c 1,11,12
 292 647 292 647 281.5 615.5 c 128,-1,13
 271 584 271 584 258 549 c 2,14,-1
 66 36 l 1,6,-1
EndSplineSet
EndChar

StartChar: Theta
Encoding: 920 920 357
Width: 600
GlyphClass: 2
Flags: W
AnchorPoint: "Anchor-4" 600 714 basechar 0
AnchorPoint: "Anchor-3" 300 714 basechar 0
AnchorPoint: "Anchor-2" 301 10 basechar 0
AnchorPoint: "Anchor-1" 300 357 basechar 0
AnchorPoint: "Anchor-0" 300 0 basechar 0
LayerCount: 2
Fore
SplineSet
301 -10 m 0,0,1
 213 -10 213 -10 158.5 39.5 c 128,-1,2
 104 89 104 89 78.5 172.5 c 128,-1,3
 53 256 53 256 53 359 c 0,4,5
 53 528 53 528 116.5 626 c 128,-1,6
 180 724 180 724 302 724 c 0,7,8
 385 724 385 724 439.5 678.5 c 128,-1,9
 494 633 494 633 520.5 551.5 c 128,-1,10
 547 470 547 470 547 360 c 0,11,12
 547 255 547 255 521.5 171.5 c 128,-1,13
 496 88 496 88 442 39 c 128,-1,14
 388 -10 388 -10 301 -10 c 0,0,1
302 26 m 0,15,16
 406 26 406 26 456.5 115 c 128,-1,17
 507 204 507 204 507 358 c 0,18,19
 507 516 507 516 455.5 602 c 128,-1,20
 404 688 404 688 302 688 c 0,21,22
 232 688 232 688 185.5 647.5 c 128,-1,23
 139 607 139 607 115.5 532.5 c 128,-1,24
 92 458 92 458 92 358 c 0,25,26
 92 257 92 257 115 182.5 c 128,-1,27
 138 108 138 108 184.5 67 c 128,-1,28
 231 26 231 26 302 26 c 0,15,16
177 343 m 1,29,-1
 177 379 l 1,30,-1
 424 379 l 1,31,-1
 424 343 l 1,32,-1
 177 343 l 1,29,-1
EndSplineSet
EndChar

StartChar: Lambda
Encoding: 923 923 360
Width: 600
GlyphClass: 2
Flags: W
AnchorPoint: "Anchor-3" 300 714 basechar 0
AnchorPoint: "Anchor-0" 300 0 basechar 0
LayerCount: 2
Fore
SplineSet
20 0 m 1,0,-1
 280 714 l 1,1,-1
 319 714 l 1,2,-1
 580 0 l 1,3,-1
 538 0 l 1,4,-1
 339 546 l 2,5,6
 328 579 328 579 317 609.5 c 128,-1,7
 306 640 306 640 299 665 c 1,8,9
 292 640 292 640 282 611.5 c 128,-1,10
 272 583 272 583 259 547 c 2,11,-1
 62 0 l 1,12,-1
 20 0 l 1,0,-1
EndSplineSet
EndChar

StartChar: Xi
Encoding: 926 926 363
Width: 600
GlyphClass: 2
Flags: W
AnchorPoint: "Anchor-3" 300 714 basechar 0
AnchorPoint: "Anchor-0" 300 0 basechar 0
LayerCount: 2
Fore
SplineSet
110 678 m 1,0,-1
 110 714 l 1,1,-1
 490 714 l 1,2,-1
 490 678 l 1,3,-1
 110 678 l 1,0,-1
140 357 m 1,4,-1
 140 393 l 1,5,-1
 460 393 l 1,6,-1
 460 357 l 1,7,-1
 140 357 l 1,4,-1
90 0 m 1,8,-1
 90 36 l 1,9,-1
 510 36 l 1,10,-1
 510 0 l 1,11,-1
 90 0 l 1,8,-1
EndSplineSet
EndChar

StartChar: Pi
Encoding: 928 928 365
Width: 600
GlyphClass: 2
Flags: W
AnchorPoint: "Anchor-3" 300 714 basechar 0
AnchorPoint: "Anchor-0" 300 0 basechar 0
LayerCount: 2
Fore
SplineSet
90 0 m 1,0,-1
 90 714 l 1,1,-1
 510 714 l 1,2,-1
 510 0 l 1,3,-1
 471 0 l 1,4,-1
 471 678 l 1,5,-1
 129 678 l 1,6,-1
 129 0 l 1,7,-1
 90 0 l 1,0,-1
EndSplineSet
EndChar

StartChar: Sigma
Encoding: 931 931 367
Width: 600
GlyphClass: 2
Flags: W
AnchorPoint: "Anchor-3" 300 714 basechar 0
AnchorPoint: "Anchor-0" 300 0 basechar 0
LayerCount: 2
Fore
SplineSet
111 0 m 1,0,-1
 111 32 l 1,1,-1
 334 372 l 1,2,-1
 117 684 l 1,3,-1
 117 714 l 1,4,-1
 468 714 l 1,5,-1
 468 677 l 1,6,-1
 167 677 l 1,7,-1
 381 374 l 1,8,-1
 160 37 l 1,9,-1
 497 37 l 1,10,-1
 497 0 l 1,11,-1
 111 0 l 1,0,-1
EndSplineSet
EndChar

StartChar: Phi
Encoding: 934 934 370
Width: 600
GlyphClass: 2
Flags: W
AnchorPoint: "Anchor-3" 300 714 basechar 0
AnchorPoint: "Anchor-0" 300 0 basechar 0
LayerCount: 2
Fore
SplineSet
281 -10 m 1,0,-1
 281 99 l 1,1,2
 216 100 216 100 163 131 c 128,-1,3
 110 162 110 162 79 222 c 128,-1,4
 48 282 48 282 48 372 c 0,5,6
 48 498 48 498 111.5 566.5 c 128,-1,7
 175 635 175 635 281 637 c 1,8,-1
 281 724 l 1,9,-1
 319 724 l 1,10,-1
 319 637 l 1,11,12
 422 636 422 636 487 571.5 c 128,-1,13
 552 507 552 507 552 374 c 0,14,15
 552 240 552 240 487 170.5 c 128,-1,16
 422 101 422 101 319 99 c 1,17,-1
 319 -10 l 1,18,-1
 281 -10 l 1,0,-1
281 135 m 1,19,-1
 281 602 l 1,20,21
 194 600 194 600 140.5 543.5 c 128,-1,22
 87 487 87 487 87 372 c 0,23,24
 87 253 87 253 142 194.5 c 128,-1,25
 197 136 197 136 281 135 c 1,19,-1
319 135 m 1,26,27
 405 136 405 136 459 195 c 128,-1,28
 513 254 513 254 513 375 c 0,29,30
 513 493 513 493 460.5 546.5 c 128,-1,31
 408 600 408 600 319 602 c 1,32,-1
 319 135 l 1,26,27
EndSplineSet
EndChar

StartChar: Psi
Encoding: 936 936 372
Width: 600
GlyphClass: 2
Flags: W
AnchorPoint: "Anchor-3" 300 714 basechar 0
AnchorPoint: "Anchor-0" 300 0 basechar 0
LayerCount: 2
Fore
SplineSet
281 0 m 1,0,-1
 281 222 l 1,1,2
 204 224 204 224 152 248 c 128,-1,3
 100 272 100 272 74 328.5 c 128,-1,4
 48 385 48 385 48 482 c 2,5,-1
 48 714 l 1,6,-1
 86 714 l 1,7,-1
 86 485 l 2,8,9
 86 410 86 410 103 360 c 128,-1,10
 120 310 120 310 162 284 c 128,-1,11
 204 258 204 258 281 257 c 1,12,-1
 281 714 l 1,13,-1
 319 714 l 1,14,-1
 319 257 l 1,15,16
 390 259 390 259 433 282 c 128,-1,17
 476 305 476 305 495 354.5 c 128,-1,18
 514 404 514 404 514 485 c 2,19,-1
 514 714 l 1,20,-1
 552 714 l 1,21,-1
 552 477 l 2,22,23
 552 340 552 340 494.5 282 c 128,-1,24
 437 224 437 224 319 222 c 1,25,-1
 319 0 l 1,26,-1
 281 0 l 1,0,-1
EndSplineSet
EndChar

StartChar: uni03A9
Encoding: 937 937 373
Width: 600
GlyphClass: 2
Flags: W
AnchorPoint: "Anchor-3" 299 714 basechar 0
AnchorPoint: "Anchor-0" 300 0 basechar 0
LayerCount: 2
Fore
SplineSet
29 0 m 1,0,-1
 29 35 l 1,1,-1
 189 35 l 1,2,3
 133 85 133 85 93.5 169.5 c 128,-1,4
 54 254 54 254 54 386 c 0,5,6
 54 493 54 493 84.5 569 c 128,-1,7
 115 645 115 645 170.5 685 c 128,-1,8
 226 725 226 725 300 725 c 0,9,10
 413 725 413 725 479 638 c 128,-1,11
 545 551 545 551 545 384 c 0,12,13
 545 250 545 250 507.5 167 c 128,-1,14
 470 84 470 84 411 35 c 1,15,-1
 570 35 l 1,16,-1
 570 0 l 1,17,-1
 357 0 l 1,18,-1
 357 30 l 1,19,20
 430 83 430 83 467.5 169 c 128,-1,21
 505 255 505 255 505 380 c 0,22,23
 505 531 505 531 450 610 c 128,-1,24
 395 689 395 689 301 689 c 0,25,26
 208 689 208 689 151 609 c 128,-1,27
 94 529 94 529 94 381 c 0,28,29
 94 252 94 252 135.5 166.5 c 128,-1,30
 177 81 177 81 241 30 c 1,31,-1
 241 0 l 1,32,-1
 29 0 l 1,0,-1
EndSplineSet
EndChar

StartChar: alpha
Encoding: 945 945 381
Width: 600
GlyphClass: 2
Flags: W
AnchorPoint: "Anchor-3" 300 530 basechar 0
AnchorPoint: "Anchor-0" 288 0 basechar 0
LayerCount: 2
Fore
SplineSet
275 -10 m 0,0,1
 172 -10 172 -10 119.5 60 c 128,-1,2
 67 130 67 130 67 263 c 256,3,4
 67 396 67 396 124 468 c 128,-1,5
 181 540 181 540 282 540 c 0,6,7
 410 540 410 540 450 435 c 1,8,-1
 452 435 l 1,9,10
 454 460 454 460 460 484.5 c 128,-1,11
 466 509 466 509 474 530 c 1,12,-1
 507 530 l 1,13,14
 498 496 498 496 493.5 452 c 128,-1,15
 489 408 489 408 489 344 c 2,16,-1
 489 119 l 2,17,18
 489 65 489 65 501 45 c 128,-1,19
 513 25 513 25 538 25 c 0,20,21
 556 25 556 25 573 30 c 1,22,-1
 573 -2 l 1,23,24
 566 -5 566 -5 554.5 -7.5 c 128,-1,25
 543 -10 543 -10 531 -10 c 0,26,27
 490 -10 490 -10 472 16 c 128,-1,28
 454 42 454 42 452 103 c 1,29,-1
 449 103 l 1,30,31
 430 57 430 57 388.5 23.5 c 128,-1,32
 347 -10 347 -10 275 -10 c 0,0,1
279 25 m 0,33,34
 369 25 369 25 409.5 88 c 128,-1,35
 450 151 450 151 450 259 c 2,36,-1
 450 278 l 2,37,38
 450 397 450 397 408 451 c 128,-1,39
 366 505 366 505 284 505 c 0,40,41
 198 505 198 505 152.5 442 c 128,-1,42
 107 379 107 379 107 263 c 0,43,44
 107 25 107 25 279 25 c 0,33,34
EndSplineSet
EndChar

StartChar: beta
Encoding: 946 946 382
Width: 600
GlyphClass: 2
Flags: W
AnchorPoint: "Anchor-4" 580 765 basechar 0
AnchorPoint: "Anchor-3" 317 765 basechar 0
AnchorPoint: "Anchor-0" 328 0 basechar 0
LayerCount: 2
Fore
SplineSet
100 -240 m 1,0,-1
 100 539 l 2,1,2
 100 644 100 644 155 704.5 c 128,-1,3
 210 765 210 765 313 765 c 0,4,5
 408 765 408 765 463 717 c 128,-1,6
 518 669 518 669 518 580 c 0,7,8
 518 511 518 511 483 463.5 c 128,-1,9
 448 416 448 416 383 404 c 1,10,-1
 383 402 l 1,11,12
 460 391 460 391 503 343 c 128,-1,13
 546 295 546 295 546 208 c 0,14,15
 546 110 546 110 483 52.5 c 128,-1,16
 420 -5 420 -5 311 -5 c 0,17,18
 260 -5 260 -5 220 8.5 c 128,-1,19
 180 22 180 22 139 49 c 1,20,-1
 139 -240 l 1,21,-1
 100 -240 l 1,0,-1
309 29 m 0,22,23
 404 29 404 29 455 77 c 128,-1,24
 506 125 506 125 506 209 c 0,25,26
 506 291 506 291 459 337 c 128,-1,27
 412 383 412 383 309 383 c 2,28,-1
 251 383 l 1,29,-1
 251 418 l 1,30,-1
 307 418 l 2,31,32
 386 418 386 418 432 458.5 c 128,-1,33
 478 499 478 499 478 579 c 0,34,35
 478 650 478 650 435.5 690 c 128,-1,36
 393 730 393 730 312 730 c 0,37,38
 228 730 228 730 183.5 680 c 128,-1,39
 139 630 139 630 139 535 c 2,40,-1
 139 86 l 1,41,42
 177 59 177 59 216.5 44 c 128,-1,43
 256 29 256 29 309 29 c 0,22,23
EndSplineSet
EndChar

StartChar: gamma
Encoding: 947 947 383
Width: 600
GlyphClass: 2
Flags: W
AnchorPoint: "Anchor-4" 580 530 basechar 0
AnchorPoint: "Anchor-3" 309 530 basechar 0
AnchorPoint: "Anchor-0" 307 -240 basechar 0
LayerCount: 2
Fore
SplineSet
242 -240 m 1,0,1
 242 -200 242 -200 248.5 -154 c 128,-1,2
 255 -108 255 -108 265.5 -64 c 128,-1,3
 276 -20 276 -20 288 13 c 1,4,-1
 77 530 l 1,5,-1
 118 530 l 1,6,-1
 264 165 l 2,7,8
 270 150 270 150 283 117.5 c 128,-1,9
 296 85 296 85 305 56 c 1,10,-1
 308 56 l 1,11,12
 316 81 316 81 326 108.5 c 128,-1,13
 336 136 336 136 346 163 c 2,14,-1
 482 530 l 1,15,-1
 523 530 l 1,16,-1
 337 36 l 2,17,18
 309 -36 309 -36 296.5 -104 c 128,-1,19
 284 -172 284 -172 282 -240 c 1,20,-1
 242 -240 l 1,0,1
EndSplineSet
EndChar

StartChar: delta
Encoding: 948 948 384
Width: 600
GlyphClass: 2
Flags: W
AnchorPoint: "Anchor-3" 337 766 basechar 0
AnchorPoint: "Anchor-0" 306 0 basechar 0
LayerCount: 2
Fore
SplineSet
300 -10 m 0,0,1
 194 -10 194 -10 130.5 49 c 128,-1,2
 67 108 67 108 67 212 c 0,3,4
 67 304 67 304 121.5 368 c 128,-1,5
 176 432 176 432 290 466 c 1,6,7
 226 503 226 503 190.5 537.5 c 128,-1,8
 155 572 155 572 155 627 c 0,9,10
 155 694 155 694 203 730 c 128,-1,11
 251 766 251 766 329 766 c 0,12,13
 371 766 371 766 416 755 c 128,-1,14
 461 744 461 744 509 719 c 1,15,-1
 491 687 l 1,16,17
 408 732 408 732 329 732 c 0,18,19
 259 732 259 732 227 704 c 128,-1,20
 195 676 195 676 195 629 c 0,21,22
 195 595 195 595 211.5 571 c 128,-1,23
 228 547 228 547 259 526.5 c 128,-1,24
 290 506 290 506 334 480 c 0,25,26
 391 448 391 448 436 414.5 c 128,-1,27
 481 381 481 381 507 335.5 c 128,-1,28
 533 290 533 290 533 221 c 256,29,30
 533 152 533 152 506 100 c 128,-1,31
 479 48 479 48 426.5 19 c 128,-1,32
 374 -10 374 -10 300 -10 c 0,0,1
301 25 m 0,33,34
 393 25 393 25 443 77.5 c 128,-1,35
 493 130 493 130 493 218 c 0,36,37
 493 299 493 299 450 350.5 c 128,-1,38
 407 402 407 402 324 444 c 1,39,40
 226 419 226 419 166.5 364.5 c 128,-1,41
 107 310 107 310 107 214 c 0,42,43
 107 123 107 123 159.5 74 c 128,-1,44
 212 25 212 25 301 25 c 0,33,34
EndSplineSet
EndChar

StartChar: epsilon
Encoding: 949 949 385
Width: 600
GlyphClass: 2
Flags: W
AnchorPoint: "Anchor-3" 318 530 basechar 0
AnchorPoint: "Anchor-0" 326 0 basechar 0
LayerCount: 2
Fore
SplineSet
326 -10 m 0,0,1
 223 -10 223 -10 174.5 31.5 c 128,-1,2
 126 73 126 73 126 140 c 0,3,4
 126 251 126 251 243 280 c 1,5,-1
 243 283 l 1,6,7
 189 299 189 299 166.5 329 c 128,-1,8
 144 359 144 359 144 402 c 0,9,10
 144 451 144 451 170 481.5 c 128,-1,11
 196 512 196 512 239 526 c 128,-1,12
 282 540 282 540 332 540 c 0,13,14
 388 540 388 540 424 531.5 c 128,-1,15
 460 523 460 523 497 508 c 1,16,-1
 483 475 l 1,17,18
 453 488 453 488 416 496.5 c 128,-1,19
 379 505 379 505 332 505 c 0,20,21
 259 505 259 505 221 478 c 128,-1,22
 183 451 183 451 183 400 c 0,23,24
 183 298 183 298 352 298 c 2,25,-1
 422 298 l 1,26,-1
 422 264 l 1,27,-1
 343 264 l 2,28,29
 258 264 258 264 211.5 234.5 c 128,-1,30
 165 205 165 205 165 141 c 0,31,32
 165 88 165 88 205.5 56.5 c 128,-1,33
 246 25 246 25 327 25 c 0,34,35
 380 25 380 25 420 34 c 128,-1,36
 460 43 460 43 497 57 c 1,37,-1
 497 21 l 1,38,39
 470 9 470 9 427 -0.5 c 128,-1,40
 384 -10 384 -10 326 -10 c 0,0,1
EndSplineSet
EndChar

StartChar: zeta
Encoding: 950 950 386
Width: 600
GlyphClass: 2
Flags: W
AnchorPoint: "Anchor-3" 339 760 basechar 0
AnchorPoint: "Anchor-0" 337 -197 basechar 0
LayerCount: 2
Fore
SplineSet
417 -197 m 1,0,1
 444 -163 444 -163 459 -131.5 c 128,-1,2
 474 -100 474 -100 474 -74 c 0,3,4
 474 -34 474 -34 445 -17 c 128,-1,5
 416 0 416 0 345 11 c 0,6,7
 241 28 241 28 192 79.5 c 128,-1,8
 143 131 143 131 143 224 c 0,9,10
 143 293 143 293 163.5 351.5 c 128,-1,11
 184 410 184 410 224.5 466.5 c 128,-1,12
 265 523 265 523 326 586 c 128,-1,13
 387 649 387 649 468 727 c 1,14,15
 441 726 441 726 412 725.5 c 128,-1,16
 383 725 383 725 349 725 c 2,17,-1
 175 725 l 1,18,-1
 175 760 l 1,19,-1
 519 760 l 1,20,-1
 519 729 l 1,21,22
 424 640 424 640 359.5 572.5 c 128,-1,23
 295 505 295 505 256.5 449 c 128,-1,24
 218 393 218 393 200.5 339.5 c 128,-1,25
 183 286 183 286 183 225 c 0,26,27
 183 142 183 142 228 100.5 c 128,-1,28
 273 59 273 59 365 44 c 0,29,30
 436 31 436 31 474.5 9 c 128,-1,31
 513 -13 513 -13 513 -69 c 0,32,33
 513 -102 513 -102 498.5 -134 c 128,-1,34
 484 -166 484 -166 459 -197 c 1,35,-1
 417 -197 l 1,0,1
EndSplineSet
EndChar

StartChar: eta
Encoding: 951 951 387
Width: 600
GlyphClass: 2
Flags: W
AnchorPoint: "Anchor-4" 580 530 basechar 0
AnchorPoint: "Anchor-3" 306 530 basechar 0
AnchorPoint: "Anchor-0" 298 -241 basechar 0
LayerCount: 2
Fore
SplineSet
100 0 m 1,0,-1
 100 530 l 1,1,-1
 132 530 l 1,2,-1
 137 425 l 1,3,-1
 140 425 l 1,4,5
 158 471 158 471 202 505 c 128,-1,6
 246 539 246 539 325 539 c 0,7,8
 408 539 408 539 456.5 493.5 c 128,-1,9
 505 448 505 448 505 355 c 2,10,-1
 505 -241 l 1,11,-1
 466 -241 l 1,12,-1
 466 344 l 2,13,14
 466 428 466 428 428 466 c 128,-1,15
 390 504 390 504 319 504 c 0,16,17
 236 504 236 504 187.5 453 c 128,-1,18
 139 402 139 402 139 297 c 2,19,-1
 139 0 l 1,20,-1
 100 0 l 1,0,-1
EndSplineSet
EndChar

StartChar: theta
Encoding: 952 952 388
Width: 600
GlyphClass: 2
Flags: W
AnchorPoint: "Anchor-4" 580 773 basechar 0
AnchorPoint: "Anchor-3" 301 773 basechar 0
AnchorPoint: "Anchor-0" 299 0 basechar 0
LayerCount: 2
Fore
SplineSet
298 -10 m 0,0,1
 188 -10 188 -10 131 88.5 c 128,-1,2
 74 187 74 187 74 389 c 0,3,4
 74 581 74 581 131.5 677 c 128,-1,5
 189 773 189 773 300 773 c 0,6,7
 525 773 525 773 525 391 c 0,8,9
 525 188 525 188 467.5 89 c 128,-1,10
 410 -10 410 -10 298 -10 c 0,0,1
113 410 m 1,11,-1
 485 410 l 1,12,13
 481 738 481 738 300 738 c 256,14,15
 119 738 119 738 113 410 c 1,11,-1
298 25 m 0,16,17
 392 25 392 25 437.5 112.5 c 128,-1,18
 483 200 483 200 486 376 c 1,19,-1
 113 376 l 1,20,21
 118 25 118 25 298 25 c 0,16,17
EndSplineSet
EndChar

StartChar: iota
Encoding: 953 953 389
Width: 600
GlyphClass: 2
Flags: W
AnchorPoint: "Anchor-3" 284 530 basechar 0
AnchorPoint: "Anchor-0" 377 0 basechar 0
LayerCount: 2
Fore
SplineSet
398 -10 m 0,0,1
 334 -10 334 -10 299 25 c 128,-1,2
 264 60 264 60 264 140 c 2,3,-1
 264 530 l 1,4,-1
 302 530 l 1,5,-1
 302 146 l 2,6,7
 302 81 302 81 327 53 c 128,-1,8
 352 25 352 25 402 25 c 0,9,10
 418 25 418 25 434.5 27 c 128,-1,11
 451 29 451 29 464 32 c 1,12,-1
 464 -1 l 1,13,14
 453 -5 453 -5 434.5 -7.5 c 128,-1,15
 416 -10 416 -10 398 -10 c 0,0,1
EndSplineSet
EndChar

StartChar: lambda
Encoding: 955 955 391
Width: 600
GlyphClass: 2
Flags: W
AnchorPoint: "Anchor-3" 301 766 basechar 0
AnchorPoint: "Anchor-0" 299 0 basechar 0
LayerCount: 2
Fore
SplineSet
519 -8 m 0,0,1
 490 -8 490 -8 473 8.5 c 128,-1,2
 456 25 456 25 445 58 c 2,3,-1
 329 396 l 2,4,5
 320 422 320 422 311.5 445.5 c 128,-1,6
 303 469 303 469 298 490 c 1,7,-1
 296 490 l 1,8,9
 288 468 288 468 280 446 c 128,-1,10
 272 424 272 424 262 402 c 2,11,-1
 92 0 l 1,12,-1
 49 0 l 1,13,-1
 279 535 l 1,14,-1
 245 637 l 2,15,16
 227 690 227 690 205.5 710.5 c 128,-1,17
 184 731 184 731 149 731 c 0,18,19
 135 731 135 731 123.5 728.5 c 128,-1,20
 112 726 112 726 103 724 c 1,21,-1
 103 759 l 1,22,23
 114 762 114 762 126.5 764 c 128,-1,24
 139 766 139 766 156 766 c 0,25,26
 206 766 206 766 232.5 740 c 128,-1,27
 259 714 259 714 282 647 c 2,28,-1
 480 75 l 2,29,30
 490 47 490 47 501 36.5 c 128,-1,31
 512 26 512 26 527 26 c 0,32,33
 535 26 535 26 541.5 27 c 128,-1,34
 548 28 548 28 553 30 c 1,35,-1
 553 -2 l 1,36,37
 541 -8 541 -8 519 -8 c 0,0,1
EndSplineSet
EndChar

StartChar: uni03BC
Encoding: 956 956 392
Width: 600
GlyphClass: 2
Flags: W
AnchorPoint: "Anchor-4" 580 530 basechar 0
AnchorPoint: "Anchor-3" 300 530 basechar 0
AnchorPoint: "Anchor-2" 540 10 basechar 0
AnchorPoint: "Anchor-0" 300 -240 basechar 0
LayerCount: 2
Fore
SplineSet
95 -240 m 1,0,-1
 95 530 l 1,1,-1
 134 530 l 1,2,-1
 134 197 l 2,3,4
 134 108 134 108 171 66.5 c 128,-1,5
 208 25 208 25 282 25 c 0,6,7
 364 25 364 25 412.5 76.5 c 128,-1,8
 461 128 461 128 461 233 c 2,9,-1
 461 530 l 1,10,-1
 500 530 l 1,11,-1
 500 0 l 1,12,-1
 468 0 l 1,13,-1
 463 104 l 1,14,-1
 460 104 l 1,15,16
 441 58 441 58 397.5 24 c 128,-1,17
 354 -10 354 -10 277 -10 c 0,18,19
 180 -10 180 -10 134 49 c 1,20,-1
 134 -240 l 1,21,-1
 95 -240 l 1,0,-1
EndSplineSet
EndChar

StartChar: nu
Encoding: 957 957 393
Width: 600
GlyphClass: 2
Flags: W
AnchorPoint: "Anchor-3" 316 530 basechar 0
AnchorPoint: "Anchor-0" 320 0 basechar 0
LayerCount: 2
Fore
SplineSet
264 0 m 1,0,-1
 81 530 l 1,1,-1
 123 530 l 1,2,-1
 266 104 l 2,3,4
 270 89 270 89 276.5 70.5 c 128,-1,5
 283 52 283 52 287 39 c 1,6,-1
 289 39 l 1,7,8
 380 128 380 128 430 248 c 128,-1,9
 480 368 480 368 480 530 c 1,10,-1
 519 530 l 1,11,12
 519 359 519 359 464.5 232 c 128,-1,13
 410 105 410 105 301 0 c 1,14,-1
 264 0 l 1,0,-1
EndSplineSet
EndChar

StartChar: xi
Encoding: 958 958 394
Width: 600
GlyphClass: 2
Flags: W
AnchorPoint: "Anchor-3" 339 760 basechar 0
AnchorPoint: "Anchor-0" 337 -197 basechar 0
LayerCount: 2
Fore
SplineSet
394 -197 m 1,0,1
 422 -156 422 -156 435 -127 c 128,-1,2
 448 -98 448 -98 448 -72 c 0,3,4
 448 -44 448 -44 434.5 -29.5 c 128,-1,5
 421 -15 421 -15 391.5 -5.5 c 128,-1,6
 362 4 362 4 314 15 c 0,7,8
 281 22 281 22 247 33.5 c 128,-1,9
 213 45 213 45 184 65 c 128,-1,10
 155 85 155 85 137.5 118.5 c 128,-1,11
 120 152 120 152 120 205 c 0,12,13
 120 289 120 289 164.5 335.5 c 128,-1,14
 209 382 209 382 279 399 c 1,15,-1
 279 402 l 1,16,17
 219 414 219 414 185.5 451 c 128,-1,18
 152 488 152 488 152 553 c 0,19,20
 152 606 152 606 174 641 c 128,-1,21
 196 676 196 676 233 697 c 128,-1,22
 270 718 270 718 313 728 c 1,23,24
 288 726 288 726 263 725.5 c 128,-1,25
 238 725 238 725 198 725 c 2,26,-1
 151 725 l 1,27,-1
 151 760 l 1,28,-1
 473 760 l 1,29,-1
 473 726 l 1,30,-1
 441 726 l 2,31,32
 397 726 397 726 352.5 717 c 128,-1,33
 308 708 308 708 271.5 687.5 c 128,-1,34
 235 667 235 667 213 633.5 c 128,-1,35
 191 600 191 600 191 551 c 0,36,37
 191 483 191 483 238.5 451 c 128,-1,38
 286 419 286 419 380 419 c 2,39,-1
 450 419 l 1,40,-1
 450 385 l 1,41,-1
 379 385 l 2,42,43
 316 385 316 385 266.5 366 c 128,-1,44
 217 347 217 347 188.5 307.5 c 128,-1,45
 160 268 160 268 160 206 c 0,46,47
 160 148 160 148 184 118 c 128,-1,48
 208 88 208 88 248 73 c 128,-1,49
 288 58 288 58 337 47 c 0,50,51
 384 36 384 36 417.5 23.5 c 128,-1,52
 451 11 451 11 468.5 -9.5 c 128,-1,53
 486 -30 486 -30 486 -67 c 0,54,55
 486 -98 486 -98 473 -129 c 128,-1,56
 460 -160 460 -160 435 -197 c 1,57,-1
 394 -197 l 1,0,1
EndSplineSet
EndChar

StartChar: pi
Encoding: 960 960 396
Width: 600
GlyphClass: 2
Flags: W
AnchorPoint: "Anchor-3" 308 530 basechar 0
AnchorPoint: "Anchor-0" 308 0 basechar 0
LayerCount: 2
Fore
SplineSet
499 -10 m 0,0,1
 455 -10 455 -10 431 17 c 128,-1,2
 407 44 407 44 407 97 c 2,3,-1
 407 496 l 1,4,-1
 191 496 l 1,5,-1
 191 0 l 1,6,-1
 152 0 l 1,7,-1
 152 496 l 1,8,-1
 45 496 l 1,9,-1
 45 519 l 1,10,-1
 128 530 l 1,11,-1
 555 530 l 1,12,-1
 555 496 l 1,13,-1
 446 496 l 1,14,-1
 446 105 l 2,15,16
 446 25 446 25 506 25 c 0,17,18
 521 25 521 25 530.5 27 c 128,-1,19
 540 29 540 29 547 31 c 1,20,-1
 547 -3 l 1,21,22
 540 -5 540 -5 527.5 -7.5 c 128,-1,23
 515 -10 515 -10 499 -10 c 0,0,1
EndSplineSet
EndChar

StartChar: rho
Encoding: 961 961 397
Width: 600
GlyphClass: 2
Flags: W
AnchorPoint: "Anchor-3" 316 530 basechar 0
AnchorPoint: "Anchor-0" 300 -240 basechar 0
LayerCount: 2
Fore
SplineSet
100 -240 m 1,0,-1
 100 282 l 2,1,2
 100 409 100 409 155 474.5 c 128,-1,3
 210 540 210 540 317 540 c 256,4,5
 424 540 424 540 478.5 470.5 c 128,-1,6
 533 401 533 401 533 266 c 0,7,8
 533 134 533 134 474.5 62 c 128,-1,9
 416 -10 416 -10 306 -10 c 0,10,11
 251 -10 251 -10 209.5 5.5 c 128,-1,12
 168 21 168 21 139 44 c 1,13,-1
 136 44 l 1,14,15
 138 14 138 14 138.5 -12 c 128,-1,16
 139 -38 139 -38 139 -70 c 2,17,-1
 139 -240 l 1,18,-1
 100 -240 l 1,0,-1
308 25 m 0,19,20
 397 25 397 25 445 86 c 128,-1,21
 493 147 493 147 493 266 c 0,22,23
 493 383 493 383 450.5 443.5 c 128,-1,24
 408 504 408 504 316 504 c 256,25,26
 224 504 224 504 181.5 445.5 c 128,-1,27
 139 387 139 387 139 276 c 2,28,-1
 139 83 l 1,29,30
 170 56 170 56 213 40.5 c 128,-1,31
 256 25 256 25 308 25 c 0,19,20
EndSplineSet
EndChar

StartChar: sigma1
Encoding: 962 962 398
Width: 600
GlyphClass: 2
Flags: W
AnchorPoint: "Anchor-3" 354 530 basechar 0
AnchorPoint: "Anchor-0" 342 -205 basechar 0
LayerCount: 2
Fore
SplineSet
382 -197 m 1,0,1
 409 -161 409 -161 423.5 -130 c 128,-1,2
 438 -99 438 -99 438 -70 c 0,3,4
 438 -42 438 -42 424.5 -27.5 c 128,-1,5
 411 -13 411 -13 382.5 -4 c 128,-1,6
 354 5 354 5 309 15 c 0,7,8
 236 31 236 31 187 60 c 128,-1,9
 138 89 138 89 113.5 138 c 128,-1,10
 89 187 89 187 89 264 c 0,11,12
 89 397 89 397 158.5 468.5 c 128,-1,13
 228 540 228 540 356 540 c 0,14,15
 394 540 394 540 426.5 534 c 128,-1,16
 459 528 459 528 486 517 c 1,17,-1
 477 482 l 1,18,19
 449 492 449 492 418.5 498 c 128,-1,20
 388 504 388 504 354 504 c 0,21,22
 242 504 242 504 185.5 441.5 c 128,-1,23
 129 379 129 379 129 263 c 0,24,25
 129 192 129 192 151 151 c 128,-1,26
 173 110 173 110 217.5 86.5 c 128,-1,27
 262 63 262 63 332 47 c 0,28,29
 375 37 375 37 407.5 26 c 128,-1,30
 440 15 440 15 458.5 -5.5 c 128,-1,31
 477 -26 477 -26 477 -65 c 0,32,33
 477 -105 477 -105 460 -137 c 128,-1,34
 443 -169 443 -169 423 -197 c 1,35,-1
 382 -197 l 1,0,1
EndSplineSet
EndChar

StartChar: sigma
Encoding: 963 963 399
Width: 600
GlyphClass: 2
Flags: W
AnchorPoint: "Anchor-3" 292 530 basechar 0
AnchorPoint: "Anchor-0" 292 0 basechar 0
LayerCount: 2
Fore
SplineSet
292 -10 m 0,0,1
 218 -10 218 -10 168 22.5 c 128,-1,2
 118 55 118 55 92.5 113.5 c 128,-1,3
 67 172 67 172 67 250 c 0,4,5
 67 384 67 384 135.5 457 c 128,-1,6
 204 530 204 530 344 530 c 2,7,-1
 555 530 l 1,8,-1
 555 495 l 1,9,-1
 431 495 l 1,10,11
 472 442 472 442 495 384.5 c 128,-1,12
 518 327 518 327 518 251 c 0,13,14
 518 132 518 132 459.5 61 c 128,-1,15
 401 -10 401 -10 292 -10 c 0,0,1
294 25 m 0,16,17
 385 25 385 25 431.5 85.5 c 128,-1,18
 478 146 478 146 478 250 c 0,19,20
 478 326 478 326 454.5 384 c 128,-1,21
 431 442 431 442 388 495 c 1,22,-1
 344 495 l 2,23,24
 221 495 221 495 164 431.5 c 128,-1,25
 107 368 107 368 107 250 c 0,26,27
 107 184 107 184 127 133.5 c 128,-1,28
 147 83 147 83 188.5 54 c 128,-1,29
 230 25 230 25 294 25 c 0,16,17
EndSplineSet
EndChar

StartChar: tau
Encoding: 964 964 400
Width: 600
GlyphClass: 2
Flags: W
AnchorPoint: "Anchor-3" 297 530 basechar 0
AnchorPoint: "Anchor-0" 339 0 basechar 0
LayerCount: 2
Fore
SplineSet
389 -9 m 0,0,1
 316 -9 316 -9 282 31.5 c 128,-1,2
 248 72 248 72 248 150 c 2,3,-1
 248 495 l 1,4,-1
 103 495 l 1,5,-1
 103 519 l 1,6,-1
 176 530 l 1,7,-1
 496 530 l 1,8,-1
 496 495 l 1,9,-1
 287 495 l 1,10,-1
 287 156 l 2,11,12
 287 90 287 90 310.5 57 c 128,-1,13
 334 24 334 24 394 24 c 0,14,15
 414 24 414 24 434.5 27.5 c 128,-1,16
 455 31 455 31 471 36 c 1,17,-1
 471 3 l 1,18,19
 457 -2 457 -2 435 -5.5 c 128,-1,20
 413 -9 413 -9 389 -9 c 0,0,1
EndSplineSet
EndChar

StartChar: upsilon
Encoding: 965 965 401
Width: 600
GlyphClass: 2
Flags: W
AnchorPoint: "Anchor-3" 300 530 basechar 0
AnchorPoint: "Anchor-0" 300 0 basechar 0
LayerCount: 2
Fore
SplineSet
301 -10 m 0,0,1
 200 -10 200 -10 150 52 c 128,-1,2
 100 114 100 114 100 233 c 2,3,-1
 100 530 l 1,4,-1
 139 530 l 1,5,-1
 139 237 l 2,6,7
 139 128 139 128 180.5 76.5 c 128,-1,8
 222 25 222 25 304 25 c 0,9,10
 482 25 482 25 482 293 c 0,11,12
 482 354 482 354 475 413 c 128,-1,13
 468 472 468 472 452 530 c 1,14,-1
 492 530 l 1,15,16
 521 418 521 418 521 292 c 0,17,18
 521 -10 521 -10 301 -10 c 0,0,1
EndSplineSet
EndChar

StartChar: phi
Encoding: 966 966 402
Width: 600
GlyphClass: 2
Flags: W
AnchorPoint: "Anchor-3" 296 530 basechar 0
AnchorPoint: "Anchor-0" 296 -240 basechar 0
LayerCount: 2
Fore
SplineSet
277 -240 m 1,0,-1
 277 -10 l 1,1,2
 171 -5 171 -5 119 69.5 c 128,-1,3
 67 144 67 144 67 266 c 0,4,5
 67 352 67 352 92 415.5 c 128,-1,6
 117 479 117 479 164 536 c 1,7,-1
 194 518 l 1,8,9
 150 464 150 464 128 407 c 128,-1,10
 106 350 106 350 106 269 c 0,11,12
 106 158 106 158 147.5 94 c 128,-1,13
 189 30 189 30 277 25 c 1,14,-1
 277 369 l 2,15,16
 277 451 277 451 303 495.5 c 128,-1,17
 329 540 329 540 385 540 c 0,18,19
 434 540 434 540 467 508 c 128,-1,20
 500 476 500 476 516.5 420 c 128,-1,21
 533 364 533 364 533 293 c 0,22,23
 533 159 533 159 477 78.5 c 128,-1,24
 421 -2 421 -2 316 -10 c 1,25,-1
 316 -240 l 1,26,-1
 277 -240 l 1,0,-1
315 25 m 1,27,28
 397 30 397 30 445 98.5 c 128,-1,29
 493 167 493 167 493 292 c 0,30,31
 493 354 493 354 480.5 402 c 128,-1,32
 468 450 468 450 444.5 477.5 c 128,-1,33
 421 505 421 505 387 505 c 0,34,35
 345 505 345 505 330 467.5 c 128,-1,36
 315 430 315 430 315 369 c 2,37,-1
 315 25 l 1,27,28
EndSplineSet
EndChar

StartChar: chi
Encoding: 967 967 403
Width: 600
GlyphClass: 2
Flags: W
AnchorPoint: "Anchor-4" 580 530 basechar 0
AnchorPoint: "Anchor-3" 294 530 basechar 0
AnchorPoint: "Anchor-0" 294 -243 basechar 0
LayerCount: 2
Fore
SplineSet
483 -243 m 0,0,1
 436 -243 436 -243 412.5 -215.5 c 128,-1,2
 389 -188 389 -188 373 -138 c 2,3,-1
 291 123 l 1,4,-1
 125 -240 l 1,5,-1
 82 -240 l 1,6,-1
 271 162 l 1,7,-1
 179 444 l 2,8,9
 168 478 168 478 154 490.5 c 128,-1,10
 140 503 140 503 121 503 c 0,11,12
 110 503 110 503 101.5 501 c 128,-1,13
 93 499 93 499 85 496 c 1,14,-1
 85 529 l 1,15,16
 92 532 92 532 103.5 534.5 c 128,-1,17
 115 537 115 537 129 537 c 0,18,19
 162 537 162 537 181.5 518.5 c 128,-1,20
 201 500 201 500 213 462 c 2,21,-1
 297 196 l 1,22,-1
 450 530 l 1,23,-1
 491 530 l 1,24,-1
 318 158 l 1,25,-1
 405 -116 l 2,26,27
 422 -171 422 -171 440.5 -189.5 c 128,-1,28
 459 -208 459 -208 488 -208 c 0,29,30
 498 -208 498 -208 507 -207 c 128,-1,31
 516 -206 516 -206 523 -204 c 1,32,-1
 523 -237 l 1,33,34
 516 -239 516 -239 506 -241 c 128,-1,35
 496 -243 496 -243 483 -243 c 0,0,1
EndSplineSet
EndChar

StartChar: psi
Encoding: 968 968 404
Width: 600
GlyphClass: 2
Flags: W
AnchorPoint: "Anchor-3" 310 759 basechar 0
AnchorPoint: "Anchor-0" 310 -240 basechar 0
LayerCount: 2
Fore
SplineSet
291 -240 m 1,0,-1
 291 -6 l 1,1,2
 191 -2 191 -2 145.5 69.5 c 128,-1,3
 100 141 100 141 100 264 c 2,4,-1
 100 530 l 1,5,-1
 137 530 l 1,6,-1
 137 267 l 2,7,8
 137 159 137 159 172.5 96.5 c 128,-1,9
 208 34 208 34 291 29 c 1,10,-1
 291 759 l 1,11,-1
 328 759 l 1,12,-1
 328 29 l 1,13,14
 417 34 417 34 455.5 105 c 128,-1,15
 494 176 494 176 494 300 c 0,16,17
 494 364 494 364 486 419 c 128,-1,18
 478 474 478 474 462 530 c 1,19,-1
 500 530 l 1,20,21
 516 475 516 475 524.5 420.5 c 128,-1,22
 533 366 533 366 533 300 c 0,23,24
 533 210 533 210 512.5 143 c 128,-1,25
 492 76 492 76 447 37 c 128,-1,26
 402 -2 402 -2 328 -6 c 1,27,-1
 328 -240 l 1,28,-1
 291 -240 l 1,0,-1
EndSplineSet
EndChar

StartChar: omega
Encoding: 969 969 405
Width: 600
GlyphClass: 2
Flags: W
AnchorPoint: "Anchor-3" 300 530 basechar 0
AnchorPoint: "Anchor-0" 300 0 basechar 0
LayerCount: 2
Fore
SplineSet
200 -10 m 0,0,1
 138 -10 138 -10 102.5 55.5 c 128,-1,2
 67 121 67 121 67 253 c 0,3,4
 67 332 67 332 82.5 397 c 128,-1,5
 98 462 98 462 127 530 c 1,6,-1
 166 530 l 1,7,8
 136 460 136 460 121 394 c 128,-1,9
 106 328 106 328 106 254 c 0,10,11
 106 138 106 138 131 82 c 128,-1,12
 156 26 156 26 204 26 c 0,13,14
 283 26 283 26 283 180 c 2,15,-1
 283 340 l 1,16,-1
 319 340 l 1,17,-1
 319 180 l 2,18,19
 319 26 319 26 396 26 c 0,20,21
 446 26 446 26 470 85 c 128,-1,22
 494 144 494 144 494 253 c 0,23,24
 494 327 494 327 479 395 c 128,-1,25
 464 463 464 463 434 530 c 1,26,-1
 473 530 l 1,27,28
 501 465 501 465 517 397.5 c 128,-1,29
 533 330 533 330 533 254 c 0,30,31
 533 182 533 182 520 122 c 128,-1,32
 507 62 507 62 477.5 26 c 128,-1,33
 448 -10 448 -10 399 -10 c 0,34,35
 358 -10 358 -10 334 15 c 128,-1,36
 310 40 310 40 301 86 c 1,37,-1
 299 86 l 1,38,39
 290 40 290 40 264.5 15 c 128,-1,40
 239 -10 239 -10 200 -10 c 0,0,1
EndSplineSet
EndChar

StartChar: afii10051
Encoding: 1026 1026 412
Width: 600
GlyphClass: 2
Flags: W
AnchorPoint: "Anchor-3" 195 714 basechar 0
AnchorPoint: "Anchor-0" 300 0 basechar 0
LayerCount: 2
Fore
SplineSet
358 -10 m 0,0,1
 324 -10 324 -10 303 -1 c 1,2,-1
 303 36 l 1,3,4
 316 31 316 31 330 28.5 c 128,-1,5
 344 26 344 26 357 26 c 0,6,7
 409 26 409 26 438 58.5 c 128,-1,8
 467 91 467 91 467 159 c 2,9,-1
 467 257 l 2,10,11
 467 325 467 325 431.5 358 c 128,-1,12
 396 391 396 391 314 391 c 2,13,-1
 174 391 l 1,14,-1
 174 0 l 1,15,-1
 136 0 l 1,16,-1
 136 678 l 1,17,-1
 0 678 l 1,18,-1
 0 714 l 1,19,-1
 378 714 l 1,20,-1
 378 678 l 1,21,-1
 174 678 l 1,22,-1
 174 426 l 1,23,-1
 323 426 l 2,24,25
 505 426 505 426 505 261 c 2,26,-1
 505 154 l 2,27,28
 505 75 505 75 466.5 32.5 c 128,-1,29
 428 -10 428 -10 358 -10 c 0,0,1
EndSplineSet
EndChar

StartChar: afii10053
Encoding: 1028 1028 414
Width: 600
GlyphClass: 2
Flags: W
AnchorPoint: "Anchor-3" 386 714 basechar 0
AnchorPoint: "Anchor-0" 380 0 basechar 0
LayerCount: 2
Fore
SplineSet
376 -10 m 0,0,1
 269 -10 269 -10 197 36 c 128,-1,2
 125 82 125 82 89 163 c 128,-1,3
 53 244 53 244 53 350 c 0,4,5
 53 462 53 462 92.5 546 c 128,-1,6
 132 630 132 630 207.5 677 c 128,-1,7
 283 724 283 724 390 724 c 0,8,9
 436 724 436 724 480 715 c 128,-1,10
 524 706 524 706 564 686 c 1,11,-1
 550 651 l 1,12,13
 510 673 510 673 469 680.5 c 128,-1,14
 428 688 428 688 392 688 c 0,15,16
 296 688 296 688 232 648.5 c 128,-1,17
 168 609 168 609 133 540.5 c 128,-1,18
 98 472 98 472 93 385 c 1,19,-1
 472 385 l 1,20,-1
 472 350 l 1,21,-1
 93 350 l 1,22,23
 95 255 95 255 125 182 c 128,-1,24
 155 109 155 109 217.5 67.5 c 128,-1,25
 280 26 280 26 380 26 c 0,26,27
 424 26 424 26 468.5 34 c 128,-1,28
 513 42 513 42 549 55 c 1,29,-1
 549 21 l 1,30,31
 515 7 515 7 468.5 -1.5 c 128,-1,32
 422 -10 422 -10 376 -10 c 0,0,1
EndSplineSet
EndChar

StartChar: afii10058
Encoding: 1033 1033 419
Width: 600
GlyphClass: 2
Flags: W
AnchorPoint: "Anchor-3" 272 714 basechar 0
AnchorPoint: "Anchor-0" 300 0 basechar 0
LayerCount: 2
Fore
SplineSet
53 -9 m 0,0,1
 28 -9 28 -9 10 -1 c 1,2,-1
 10 34 l 1,3,4
 29 27 29 27 50 27 c 0,5,6
 88 27 88 27 106 67 c 128,-1,7
 124 107 124 107 133 175 c 0,8,9
 139 221 139 221 145 284 c 128,-1,10
 151 347 151 347 156.5 419 c 128,-1,11
 162 491 162 491 166.5 566.5 c 128,-1,12
 171 642 171 642 174 714 c 1,13,-1
 362 714 l 1,14,-1
 362 396 l 1,15,-1
 420 396 l 2,16,17
 501 396 501 396 543.5 350 c 128,-1,18
 586 304 586 304 586 203 c 0,19,20
 586 103 586 103 545 51.5 c 128,-1,21
 504 0 504 0 426 0 c 2,22,-1
 325 0 l 1,23,-1
 325 678 l 1,24,-1
 208 678 l 1,25,26
 205 619 205 619 201 548 c 128,-1,27
 197 477 197 477 191.5 405 c 128,-1,28
 186 333 186 333 180 270.5 c 128,-1,29
 174 208 174 208 169 166 c 0,30,31
 158 82 158 82 132.5 36.5 c 128,-1,32
 107 -9 107 -9 53 -9 c 0,0,1
362 35 m 1,33,-1
 422 35 l 2,34,35
 548 35 548 35 548 202 c 0,36,37
 548 288 548 288 515.5 324 c 128,-1,38
 483 360 483 360 417 360 c 2,39,-1
 362 360 l 1,40,-1
 362 35 l 1,33,-1
EndSplineSet
EndChar

StartChar: afii10059
Encoding: 1034 1034 420
Width: 600
GlyphClass: 2
Flags: W
AnchorPoint: "Anchor-3" 202 714 basechar 0
AnchorPoint: "Anchor-0" 300 0 basechar 0
LayerCount: 2
Fore
SplineSet
58 0 m 1,0,-1
 58 714 l 1,1,-1
 96 714 l 1,2,-1
 96 396 l 1,3,-1
 308 396 l 1,4,-1
 308 714 l 1,5,-1
 347 714 l 1,6,-1
 347 396 l 1,7,-1
 419 396 l 2,8,9
 500 396 500 396 543 350 c 128,-1,10
 586 304 586 304 586 203 c 0,11,12
 586 104 586 104 544.5 52 c 128,-1,13
 503 0 503 0 424 0 c 2,14,-1
 308 0 l 1,15,-1
 308 360 l 1,16,-1
 96 360 l 1,17,-1
 96 0 l 1,18,-1
 58 0 l 1,0,-1
347 35 m 1,19,-1
 419 35 l 2,20,21
 546 35 546 35 546 202 c 0,22,23
 546 288 546 288 513.5 324 c 128,-1,24
 481 360 481 360 414 360 c 2,25,-1
 347 360 l 1,26,-1
 347 35 l 1,19,-1
EndSplineSet
EndChar

StartChar: afii10060
Encoding: 1035 1035 421
Width: 600
GlyphClass: 2
Flags: W
AnchorPoint: "Anchor-3" 197 714 basechar 0
AnchorPoint: "Anchor-0" 320 0 basechar 0
LayerCount: 2
Fore
SplineSet
136 0 m 1,0,-1
 136 678 l 1,1,-1
 0 678 l 1,2,-1
 0 714 l 1,3,-1
 382 714 l 1,4,-1
 382 678 l 1,5,-1
 174 678 l 1,6,-1
 174 426 l 1,7,-1
 338 426 l 2,8,9
 423 426 423 426 464 387 c 128,-1,10
 505 348 505 348 505 262 c 2,11,-1
 505 0 l 1,12,-1
 467 0 l 1,13,-1
 467 258 l 2,14,15
 467 327 467 327 435.5 358.5 c 128,-1,16
 404 390 404 390 331 390 c 2,17,-1
 174 390 l 1,18,-1
 174 0 l 1,19,-1
 136 0 l 1,0,-1
EndSplineSet
EndChar

StartChar: afii10145
Encoding: 1039 1039 424
Width: 600
GlyphClass: 2
Flags: W
AnchorPoint: "Anchor-3" 300 714 basechar 0
AnchorPoint: "Anchor-0" 300 -178 basechar 0
LayerCount: 2
Fore
SplineSet
281 -178 m 1,0,-1
 281 0 l 1,1,-1
 90 0 l 1,2,-1
 90 714 l 1,3,-1
 128 714 l 1,4,-1
 128 36 l 1,5,-1
 472 36 l 1,6,-1
 472 714 l 1,7,-1
 510 714 l 1,8,-1
 510 0 l 1,9,-1
 319 0 l 1,10,-1
 319 -178 l 1,11,-1
 281 -178 l 1,0,-1
EndSplineSet
EndChar

StartChar: afii10018
Encoding: 1041 1041 426
Width: 600
GlyphClass: 2
Flags: W
AnchorPoint: "Anchor-3" 300 714 basechar 0
AnchorPoint: "Anchor-0" 300 0 basechar 0
LayerCount: 2
Fore
SplineSet
111 0 m 1,0,-1
 111 714 l 1,1,-1
 513 714 l 1,2,-1
 513 678 l 1,3,-1
 149 678 l 1,4,-1
 149 397 l 1,5,-1
 307 397 l 2,6,7
 419 397 419 397 480 354 c 128,-1,8
 541 311 541 311 541 204 c 0,9,10
 541 103 541 103 483.5 51.5 c 128,-1,11
 426 0 426 0 317 0 c 2,12,-1
 111 0 l 1,0,-1
149 35 m 1,13,-1
 311 35 l 2,14,15
 408 35 408 35 454.5 75.5 c 128,-1,16
 501 116 501 116 501 204 c 0,17,18
 501 266 501 266 477.5 300.5 c 128,-1,19
 454 335 454 335 409.5 348.5 c 128,-1,20
 365 362 365 362 302 362 c 2,21,-1
 149 362 l 1,22,-1
 149 35 l 1,13,-1
EndSplineSet
EndChar

StartChar: afii10021
Encoding: 1044 1044 429
Width: 600
GlyphClass: 2
Flags: W
AnchorPoint: "Anchor-3" 376 714 basechar 0
AnchorPoint: "Anchor-0" 300 -178 basechar 0
LayerCount: 2
Fore
SplineSet
28 -178 m 1,0,-1
 28 36 l 1,1,-1
 77 36 l 1,2,3
 114 103 114 103 145 186 c 128,-1,4
 176 269 176 269 199.5 359.5 c 128,-1,5
 223 450 223 450 237.5 541 c 128,-1,6
 252 632 252 632 255 714 c 1,7,-1
 490 714 l 1,8,-1
 490 36 l 1,9,-1
 562 36 l 1,10,-1
 562 -178 l 1,11,-1
 524 -178 l 1,12,-1
 524 0 l 1,13,-1
 66 0 l 1,14,-1
 66 -178 l 1,15,-1
 28 -178 l 1,0,-1
120 36 m 1,16,-1
 452 36 l 1,17,-1
 452 678 l 1,18,-1
 291 678 l 1,19,20
 287 600 287 600 272.5 514 c 128,-1,21
 258 428 258 428 235 342.5 c 128,-1,22
 212 257 212 257 183 178 c 128,-1,23
 154 99 154 99 120 36 c 1,16,-1
EndSplineSet
EndChar

StartChar: afii10024
Encoding: 1046 1046 431
Width: 600
GlyphClass: 2
Flags: W
AnchorPoint: "Anchor-3" 300 714 basechar 0
AnchorPoint: "Anchor-0" 300 0 basechar 0
LayerCount: 2
Fore
SplineSet
24 0 m 1,0,-1
 241 366 l 1,1,-1
 33 714 l 1,2,-1
 77 714 l 1,3,-1
 282 368 l 1,4,-1
 282 714 l 1,5,-1
 319 714 l 1,6,-1
 319 368 l 1,7,-1
 530 714 l 1,8,-1
 574 714 l 1,9,-1
 359 366 l 1,10,-1
 584 0 l 1,11,-1
 540 0 l 1,12,-1
 319 363 l 1,13,-1
 319 0 l 1,14,-1
 282 0 l 1,15,-1
 282 363 l 1,16,-1
 69 0 l 1,17,-1
 24 0 l 1,0,-1
EndSplineSet
EndChar

StartChar: afii10025
Encoding: 1047 1047 432
Width: 600
GlyphClass: 2
Flags: W
AnchorPoint: "Anchor-3" 300 714 basechar 0
AnchorPoint: "Anchor-0" 300 0 basechar 0
LayerCount: 2
Fore
SplineSet
279 -10 m 0,0,1
 215 -10 215 -10 164.5 2.5 c 128,-1,2
 114 15 114 15 80 34 c 1,3,-1
 80 75 l 1,4,5
 115 54 115 54 167 39.5 c 128,-1,6
 219 25 219 25 280 25 c 0,7,8
 384 25 384 25 438 69 c 128,-1,9
 492 113 492 113 492 195 c 0,10,11
 492 276 492 276 436 315 c 128,-1,12
 380 354 380 354 264 354 c 2,13,-1
 151 354 l 1,14,-1
 151 389 l 1,15,-1
 270 389 l 2,16,17
 377 389 377 389 428 429 c 128,-1,18
 479 469 479 469 479 540 c 0,19,20
 479 612 479 612 434 650.5 c 128,-1,21
 389 689 389 689 304 689 c 0,22,23
 236 689 236 689 193 668.5 c 128,-1,24
 150 648 150 648 112 623 c 1,25,-1
 92 652 l 1,26,27
 132 680 132 680 182 702 c 128,-1,28
 232 724 232 724 305 724 c 0,29,30
 409 724 409 724 463.5 675 c 128,-1,31
 518 626 518 626 518 542 c 0,32,33
 518 470 518 470 478.5 428.5 c 128,-1,34
 439 387 439 387 373 373 c 1,35,-1
 373 371 l 1,36,37
 452 356 452 356 492 313 c 128,-1,38
 532 270 532 270 532 196 c 0,39,40
 532 99 532 99 468 44.5 c 128,-1,41
 404 -10 404 -10 279 -10 c 0,0,1
EndSplineSet
EndChar

StartChar: afii10026
Encoding: 1048 1048 433
Width: 600
GlyphClass: 2
Flags: W
AnchorPoint: "Anchor-3" 300 714 basechar 0
AnchorPoint: "Anchor-0" 280 0 basechar 0
LayerCount: 2
Fore
SplineSet
90 0 m 1,0,-1
 90 714 l 1,1,-1
 128 714 l 1,2,-1
 128 174 l 2,3,4
 128 146 128 146 127 123.5 c 128,-1,5
 126 101 126 101 125 72 c 1,6,-1
 128 72 l 1,7,-1
 472 714 l 1,8,-1
 510 714 l 1,9,-1
 510 0 l 1,10,-1
 472 0 l 1,11,-1
 472 531 l 2,12,13
 472 564 472 564 473 589.5 c 128,-1,14
 474 615 474 615 475 642 c 1,15,-1
 472 642 l 1,16,-1
 129 0 l 1,17,-1
 90 0 l 1,0,-1
EndSplineSet
EndChar

StartChar: afii10028
Encoding: 1050 1050 435
Width: 600
GlyphClass: 2
Flags: W
AnchorPoint: "Anchor-3" 300 714 basechar 0
AnchorPoint: "Anchor-0" 313 0 basechar 0
LayerCount: 2
Fore
SplineSet
90 0 m 1,0,-1
 90 714 l 1,1,-1
 128 714 l 1,2,-1
 128 368 l 1,3,-1
 481 714 l 1,4,-1
 532 714 l 1,5,-1
 176 367 l 1,6,-1
 542 0 l 1,7,-1
 491 0 l 1,8,-1
 128 365 l 1,9,-1
 128 0 l 1,10,-1
 90 0 l 1,0,-1
EndSplineSet
EndChar

StartChar: afii10029
Encoding: 1051 1051 436
Width: 600
GlyphClass: 2
Flags: W
AnchorPoint: "Anchor-3" 380 714 basechar 0
AnchorPoint: "Anchor-0" 300 0 basechar 0
LayerCount: 2
Fore
SplineSet
61 -11 m 0,0,1
 28 -11 28 -11 9 -1 c 1,2,-1
 9 35 l 1,3,4
 20 30 20 30 31.5 27.5 c 128,-1,5
 43 25 43 25 59 25 c 0,6,7
 93 25 93 25 114.5 51 c 128,-1,8
 136 77 136 77 149.5 124.5 c 128,-1,9
 163 172 163 172 174 235 c 0,10,11
 189 320 189 320 201 406.5 c 128,-1,12
 213 493 213 493 222 572.5 c 128,-1,13
 231 652 231 652 237 714 c 1,14,-1
 510 714 l 1,15,-1
 510 0 l 1,16,-1
 472 0 l 1,17,-1
 472 678 l 1,18,-1
 270 678 l 1,19,20
 264 612 264 612 255.5 534 c 128,-1,21
 247 456 247 456 235.5 376 c 128,-1,22
 224 296 224 296 211 225 c 0,23,24
 198 156 198 156 181.5 103 c 128,-1,25
 165 50 165 50 136.5 19.5 c 128,-1,26
 108 -11 108 -11 61 -11 c 0,0,1
EndSplineSet
EndChar

StartChar: afii10033
Encoding: 1055 1055 440
Width: 600
GlyphClass: 2
Flags: W
AnchorPoint: "Anchor-3" 300 714 basechar 0
AnchorPoint: "Anchor-0" 300 0 basechar 0
LayerCount: 2
Fore
SplineSet
90 0 m 1,0,-1
 90 714 l 1,1,-1
 510 714 l 1,2,-1
 510 0 l 1,3,-1
 472 0 l 1,4,-1
 472 678 l 1,5,-1
 128 678 l 1,6,-1
 128 0 l 1,7,-1
 90 0 l 1,0,-1
EndSplineSet
EndChar

StartChar: afii10037
Encoding: 1059 1059 444
Width: 600
GlyphClass: 2
Flags: W
AnchorPoint: "Anchor-3" 300 714 basechar 0
AnchorPoint: "Anchor-0" 200 0 basechar 0
LayerCount: 2
Fore
SplineSet
146 -10 m 0,0,1
 114 -10 114 -10 97 -5.5 c 128,-1,2
 80 -1 80 -1 66 5 c 1,3,-1
 66 43 l 1,4,5
 100 26 100 26 144 26 c 0,6,7
 203 26 203 26 234.5 67 c 128,-1,8
 266 108 266 108 295 182 c 1,9,-1
 47 714 l 1,10,-1
 89 714 l 1,11,-1
 287 287 l 2,12,13
 296 268 296 268 302.5 253 c 128,-1,14
 309 238 309 238 317 219 c 1,15,-1
 318 219 l 1,16,17
 324 235 324 235 330 252 c 128,-1,18
 336 269 336 269 342 284 c 2,19,-1
 511 714 l 1,20,-1
 553 714 l 1,21,-1
 326 152 l 2,22,23
 306 104 306 104 283 67.5 c 128,-1,24
 260 31 260 31 227 10.5 c 128,-1,25
 194 -10 194 -10 146 -10 c 0,0,1
EndSplineSet
EndChar

StartChar: afii10038
Encoding: 1060 1060 445
Width: 600
GlyphClass: 2
Flags: W
AnchorPoint: "Anchor-3" 300 714 basechar 0
AnchorPoint: "Anchor-0" 300 0 basechar 0
LayerCount: 2
Fore
SplineSet
281 -10 m 1,0,-1
 281 99 l 1,1,2
 212 100 212 100 158 132 c 128,-1,3
 104 164 104 164 73.5 224.5 c 128,-1,4
 43 285 43 285 43 373 c 0,5,6
 43 498 43 498 107 566 c 128,-1,7
 171 634 171 634 281 637 c 1,8,-1
 281 724 l 1,9,-1
 319 724 l 1,10,-1
 319 637 l 1,11,12
 427 636 427 636 492 570.5 c 128,-1,13
 557 505 557 505 557 374 c 256,14,15
 557 243 557 243 492 172.5 c 128,-1,16
 427 102 427 102 319 99 c 1,17,-1
 319 -10 l 1,18,-1
 281 -10 l 1,0,-1
281 135 m 1,19,-1
 281 602 l 1,20,21
 191 600 191 600 136.5 542.5 c 128,-1,22
 82 485 82 485 82 372 c 0,23,24
 82 254 82 254 138 195 c 128,-1,25
 194 136 194 136 281 135 c 1,19,-1
319 135 m 1,26,27
 408 137 408 137 463 196 c 128,-1,28
 518 255 518 255 518 375 c 0,29,30
 518 492 518 492 464.5 546 c 128,-1,31
 411 600 411 600 319 602 c 1,32,-1
 319 135 l 1,26,27
EndSplineSet
EndChar

StartChar: afii10040
Encoding: 1062 1062 447
Width: 600
GlyphClass: 2
Flags: W
AnchorPoint: "Anchor-3" 300 714 basechar 0
AnchorPoint: "Anchor-0" 300 -180 basechar 0
LayerCount: 2
Fore
SplineSet
90 0 m 1,0,-1
 90 714 l 1,1,-1
 128 714 l 1,2,-1
 128 36 l 1,3,-1
 472 36 l 1,4,-1
 472 714 l 1,5,-1
 510 714 l 1,6,-1
 510 36 l 1,7,-1
 600 36 l 1,8,-1
 600 -177 l 1,9,-1
 562 -177 l 1,10,-1
 562 0 l 1,11,-1
 90 0 l 1,0,-1
EndSplineSet
EndChar

StartChar: afii10041
Encoding: 1063 1063 448
Width: 600
GlyphClass: 2
Flags: W
AnchorPoint: "Anchor-3" 300 714 basechar 0
AnchorPoint: "Anchor-0" 300 0 basechar 0
LayerCount: 2
Fore
SplineSet
472 0 m 1,0,-1
 472 315 l 1,1,2
 424 292 424 292 376 277.5 c 128,-1,3
 328 263 328 263 273 263 c 0,4,5
 176 263 176 263 133 308.5 c 128,-1,6
 90 354 90 354 90 440 c 2,7,-1
 90 714 l 1,8,-1
 128 714 l 1,9,-1
 128 447 l 2,10,11
 128 374 128 374 161 336.5 c 128,-1,12
 194 299 194 299 278 299 c 0,13,14
 329 299 329 299 376 312 c 128,-1,15
 423 325 423 325 472 348 c 1,16,-1
 472 714 l 1,17,-1
 510 714 l 1,18,-1
 510 0 l 1,19,-1
 472 0 l 1,0,-1
EndSplineSet
EndChar

StartChar: afii10042
Encoding: 1064 1064 449
Width: 600
GlyphClass: 2
Flags: W
AnchorPoint: "Anchor-3" 300 714 basechar 0
AnchorPoint: "Anchor-0" 300 0 basechar 0
LayerCount: 2
Fore
SplineSet
58 0 m 1,0,-1
 58 714 l 1,1,-1
 96 714 l 1,2,-1
 96 36 l 1,3,-1
 281 36 l 1,4,-1
 281 714 l 1,5,-1
 319 714 l 1,6,-1
 319 36 l 1,7,-1
 504 36 l 1,8,-1
 504 714 l 1,9,-1
 542 714 l 1,10,-1
 542 0 l 1,11,-1
 58 0 l 1,0,-1
EndSplineSet
EndChar

StartChar: afii10043
Encoding: 1065 1065 450
Width: 600
GlyphClass: 2
Flags: W
AnchorPoint: "Anchor-3" 300 714 basechar 0
AnchorPoint: "Anchor-0" 300 -177 basechar 0
LayerCount: 2
Fore
SplineSet
58 0 m 1,0,-1
 58 714 l 1,1,-1
 96 714 l 1,2,-1
 96 36 l 1,3,-1
 281 36 l 1,4,-1
 281 714 l 1,5,-1
 319 714 l 1,6,-1
 319 36 l 1,7,-1
 504 36 l 1,8,-1
 504 714 l 1,9,-1
 542 714 l 1,10,-1
 542 36 l 1,11,-1
 600 36 l 1,12,-1
 600 -177 l 1,13,-1
 562 -177 l 1,14,-1
 562 0 l 1,15,-1
 58 0 l 1,0,-1
EndSplineSet
EndChar

StartChar: afii10044
Encoding: 1066 1066 451
Width: 600
GlyphClass: 2
Flags: W
AnchorPoint: "Anchor-3" 300 714 basechar 0
AnchorPoint: "Anchor-0" 300 0 basechar 0
LayerCount: 2
Fore
SplineSet
131 0 m 1,0,-1
 131 678 l 1,1,-1
 0 678 l 1,2,-1
 0 714 l 1,3,-1
 169 714 l 1,4,-1
 169 397 l 1,5,-1
 314 397 l 2,6,7
 425 397 425 397 486.5 353.5 c 128,-1,8
 548 310 548 310 548 204 c 0,9,10
 548 104 548 104 490 52 c 128,-1,11
 432 0 432 0 324 0 c 2,12,-1
 131 0 l 1,0,-1
169 35 m 1,13,-1
 318 35 l 2,14,15
 414 35 414 35 461.5 75.5 c 128,-1,16
 509 116 509 116 509 204 c 0,17,18
 509 266 509 266 485 300.5 c 128,-1,19
 461 335 461 335 416.5 348.5 c 128,-1,20
 372 362 372 362 309 362 c 2,21,-1
 169 362 l 1,22,-1
 169 35 l 1,13,-1
EndSplineSet
EndChar

StartChar: afii10045
Encoding: 1067 1067 452
Width: 600
GlyphClass: 2
Flags: W
AnchorPoint: "Anchor-3" 300 714 basechar 0
AnchorPoint: "Anchor-0" 300 0 basechar 0
LayerCount: 2
Fore
SplineSet
58 0 m 1,0,-1
 58 714 l 1,1,-1
 96 714 l 1,2,-1
 96 397 l 1,3,-1
 189 397 l 2,4,5
 296 397 296 397 355 353.5 c 128,-1,6
 414 310 414 310 414 204 c 0,7,8
 414 104 414 104 358.5 52 c 128,-1,9
 303 0 303 0 199 0 c 2,10,-1
 58 0 l 1,0,-1
504 0 m 1,11,-1
 504 714 l 1,12,-1
 542 714 l 1,13,-1
 542 0 l 1,14,-1
 504 0 l 1,11,-1
96 35 m 1,15,-1
 192 35 l 2,16,17
 284 35 284 35 329.5 75.5 c 128,-1,18
 375 116 375 116 375 204 c 0,19,20
 375 266 375 266 352 300.5 c 128,-1,21
 329 335 329 335 286.5 348.5 c 128,-1,22
 244 362 244 362 184 362 c 2,23,-1
 96 362 l 1,24,-1
 96 35 l 1,15,-1
EndSplineSet
EndChar

StartChar: afii10046
Encoding: 1068 1068 453
Width: 600
GlyphClass: 2
Flags: W
AnchorPoint: "Anchor-3" 300 714 basechar 0
AnchorPoint: "Anchor-0" 300 0 basechar 0
LayerCount: 2
Fore
SplineSet
111 0 m 1,0,-1
 111 714 l 1,1,-1
 149 714 l 1,2,-1
 149 397 l 1,3,-1
 294 397 l 2,4,5
 405 397 405 397 466.5 353.5 c 128,-1,6
 528 310 528 310 528 204 c 0,7,8
 528 104 528 104 470 52 c 128,-1,9
 412 0 412 0 304 0 c 2,10,-1
 111 0 l 1,0,-1
149 35 m 1,11,-1
 298 35 l 2,12,13
 394 35 394 35 441.5 75.5 c 128,-1,14
 489 116 489 116 489 204 c 0,15,16
 489 266 489 266 465 300.5 c 128,-1,17
 441 335 441 335 396.5 348.5 c 128,-1,18
 352 362 352 362 289 362 c 2,19,-1
 149 362 l 1,20,-1
 149 35 l 1,11,-1
EndSplineSet
EndChar

StartChar: afii10048
Encoding: 1070 1070 455
Width: 600
GlyphClass: 2
Flags: W
AnchorPoint: "Anchor-3" 300 714 basechar 0
AnchorPoint: "Anchor-0" 300 0 basechar 0
LayerCount: 2
Fore
SplineSet
77 0 m 1,0,-1
 77 714 l 1,1,-1
 115 714 l 1,2,-1
 115 393 l 1,3,-1
 223 393 l 1,4,5
 226 552 226 552 266.5 638.5 c 128,-1,6
 307 725 307 725 388 725 c 0,7,8
 478 725 478 725 512.5 630.5 c 128,-1,9
 547 536 547 536 547 360 c 0,10,11
 547 249 547 249 531.5 165.5 c 128,-1,12
 516 82 516 82 481 36 c 128,-1,13
 446 -10 446 -10 386 -10 c 256,14,15
 326 -10 326 -10 290 35.5 c 128,-1,16
 254 81 254 81 238.5 163.5 c 128,-1,17
 223 246 223 246 223 357 c 1,18,-1
 115 357 l 1,19,-1
 115 0 l 1,20,-1
 77 0 l 1,0,-1
386 26 m 0,21,22
 429 26 429 26 455.5 66.5 c 128,-1,23
 482 107 482 107 494.5 181.5 c 128,-1,24
 507 256 507 256 507 358 c 0,25,26
 507 518 507 518 480.5 603.5 c 128,-1,27
 454 689 454 689 388 689 c 0,28,29
 324 689 324 689 293 600.5 c 128,-1,30
 262 512 262 512 262 360 c 0,31,32
 262 204 262 204 290.5 115 c 128,-1,33
 319 26 319 26 386 26 c 0,21,22
EndSplineSet
EndChar

StartChar: afii10066
Encoding: 1073 1073 458
Width: 600
GlyphClass: 2
Flags: W
AnchorPoint: "Anchor-3" 300 763 basechar 0
AnchorPoint: "Anchor-0" 300 0 basechar 0
LayerCount: 2
Fore
SplineSet
303 -10 m 0,0,1
 237 -10 237 -10 192 16 c 128,-1,2
 147 42 147 42 119.5 88 c 128,-1,3
 92 134 92 134 79.5 194 c 128,-1,4
 67 254 67 254 67 322 c 0,5,6
 67 460 67 460 99 544 c 128,-1,7
 131 628 131 628 194 671 c 1,8,9
 236 709 236 709 313 730 c 128,-1,10
 390 751 390 751 500 763 c 1,11,-1
 505 728 l 1,12,13
 391 715 391 715 321.5 696 c 128,-1,14
 252 677 252 677 214 644 c 0,15,16
 166 607 166 607 138 539 c 128,-1,17
 110 471 110 471 106 373 c 1,18,-1
 108 373 l 1,19,20
 138 428 138 428 194 460.5 c 128,-1,21
 250 493 250 493 322 493 c 0,22,23
 423 493 423 493 478 431.5 c 128,-1,24
 533 370 533 370 533 251 c 0,25,26
 533 175 533 175 508.5 116 c 128,-1,27
 484 57 484 57 433 23.5 c 128,-1,28
 382 -10 382 -10 303 -10 c 0,0,1
306 25 m 0,29,30
 372 25 372 25 413.5 53.5 c 128,-1,31
 455 82 455 82 474.5 133 c 128,-1,32
 494 184 494 184 494 250 c 0,33,34
 494 354 494 354 448 406 c 128,-1,35
 402 458 402 458 318 458 c 0,36,37
 247 458 247 458 193.5 423.5 c 128,-1,38
 140 389 140 389 106 324 c 1,39,40
 106 266 106 266 115.5 212.5 c 128,-1,41
 125 159 125 159 147.5 116.5 c 128,-1,42
 170 74 170 74 208.5 49.5 c 128,-1,43
 247 25 247 25 306 25 c 0,29,30
EndSplineSet
Substitution2: "'locl' Localized Forms in Cyrillic lookup 19 subtable" afii10066.loclSRB
Substitution2: "'aalt' Access All Alternates lookup 0 subtable" afii10066.loclSRB
EndChar

StartChar: afii10067
Encoding: 1074 1074 459
Width: 600
GlyphClass: 2
Flags: W
AnchorPoint: "Anchor-3" 300 530 basechar 0
AnchorPoint: "Anchor-0" 300 0 basechar 0
LayerCount: 2
Fore
SplineSet
141 0 m 1,0,-1
 141 530 l 1,1,-1
 320 530 l 2,2,3
 408 530 408 530 447 495 c 128,-1,4
 486 460 486 460 486 402 c 0,5,6
 486 352 486 352 462 323 c 128,-1,7
 438 294 438 294 397 283 c 1,8,-1
 397 280 l 1,9,10
 449 272 449 272 478 239 c 128,-1,11
 507 206 507 206 507 149 c 0,12,13
 507 79 507 79 462.5 39.5 c 128,-1,14
 418 0 418 0 328 0 c 2,15,-1
 141 0 l 1,0,-1
179 297 m 1,16,-1
 316 297 l 2,17,18
 385 297 385 297 416 323 c 128,-1,19
 447 349 447 349 447 400 c 0,20,21
 447 444 447 444 417 470 c 128,-1,22
 387 496 387 496 316 496 c 2,23,-1
 179 496 l 1,24,-1
 179 297 l 1,16,-1
179 34 m 1,25,-1
 320 34 l 2,26,27
 468 34 468 34 468 150 c 0,28,29
 468 210 468 210 429.5 236.5 c 128,-1,30
 391 263 391 263 317 263 c 2,31,-1
 179 263 l 1,32,-1
 179 34 l 1,25,-1
EndSplineSet
EndChar

StartChar: afii10068
Encoding: 1075 1075 460
Width: 600
GlyphClass: 2
Flags: W
AnchorPoint: "Anchor-3" 322 530 basechar 0
AnchorPoint: "Anchor-0" 300 0 basechar 0
LayerCount: 2
Fore
SplineSet
180 0 m 1,0,-1
 180 530 l 1,1,-1
 485 530 l 1,2,-1
 485 495 l 1,3,-1
 218 495 l 1,4,-1
 218 0 l 1,5,-1
 180 0 l 1,0,-1
EndSplineSet
EndChar

StartChar: afii10069
Encoding: 1076 1076 461
Width: 600
GlyphClass: 2
Flags: W
AnchorPoint: "Anchor-3" 350 530 basechar 0
AnchorPoint: "Anchor-0" 302 -178 basechar 0
LayerCount: 2
Fore
SplineSet
61 -178 m 1,0,-1
 61 35 l 1,1,-1
 94 35 l 1,2,3
 222 223 222 223 227 530 c 1,4,-1
 472 530 l 1,5,-1
 472 35 l 1,6,-1
 539 35 l 1,7,-1
 539 -178 l 1,8,-1
 502 -178 l 1,9,-1
 502 0 l 1,10,-1
 98 0 l 1,11,-1
 98 -178 l 1,12,-1
 61 -178 l 1,0,-1
137 35 m 1,13,-1
 435 35 l 1,14,-1
 435 496 l 1,15,-1
 262 496 l 1,16,17
 257 356 257 356 226.5 243 c 128,-1,18
 196 130 196 130 137 35 c 1,13,-1
EndSplineSet
EndChar

StartChar: afii10072
Encoding: 1078 1078 463
Width: 600
GlyphClass: 2
Flags: W
AnchorPoint: "Anchor-3" 300 530 basechar 0
AnchorPoint: "Anchor-0" 300 0 basechar 0
LayerCount: 2
Fore
SplineSet
20 0 m 1,0,-1
 241 272 l 1,1,-1
 35 530 l 1,2,-1
 80 530 l 1,3,-1
 281 273 l 1,4,-1
 281 530 l 1,5,-1
 318 530 l 1,6,-1
 318 273 l 1,7,-1
 519 530 l 1,8,-1
 564 530 l 1,9,-1
 359 272 l 1,10,-1
 580 0 l 1,11,-1
 534 0 l 1,12,-1
 318 269 l 1,13,-1
 318 0 l 1,14,-1
 281 0 l 1,15,-1
 281 269 l 1,16,-1
 66 0 l 1,17,-1
 20 0 l 1,0,-1
EndSplineSet
EndChar

StartChar: afii10073
Encoding: 1079 1079 464
Width: 600
GlyphClass: 2
Flags: W
AnchorPoint: "Anchor-3" 320 530 basechar 0
AnchorPoint: "Anchor-0" 320 0 basechar 0
LayerCount: 2
Fore
SplineSet
276 -10 m 0,0,1
 209 -10 209 -10 160.5 2.5 c 128,-1,2
 112 15 112 15 83 29 c 1,3,-1
 83 69 l 1,4,5
 123 49 123 49 170 36.5 c 128,-1,6
 217 24 217 24 277 24 c 0,7,8
 365 24 365 24 415.5 57 c 128,-1,9
 466 90 466 90 466 152 c 0,10,11
 466 212 466 212 416.5 238 c 128,-1,12
 367 264 367 264 271 264 c 2,13,-1
 182 264 l 1,14,-1
 182 298 l 1,15,-1
 269 298 l 2,16,17
 351 298 351 298 398 324 c 128,-1,18
 445 350 445 350 445 403 c 0,19,20
 445 505 445 505 291 505 c 0,21,22
 232 505 232 505 190.5 493 c 128,-1,23
 149 481 149 481 114 465 c 1,24,-1
 99 497 l 1,25,26
 135 514 135 514 181.5 527 c 128,-1,27
 228 540 228 540 292 540 c 0,28,29
 390 540 390 540 436.5 504.5 c 128,-1,30
 483 469 483 469 483 405 c 0,31,32
 483 313 483 313 381 285 c 1,33,-1
 381 283 l 1,34,35
 446 271 446 271 475.5 235.5 c 128,-1,36
 505 200 505 200 505 150 c 0,37,38
 505 74 505 74 444 32 c 128,-1,39
 383 -10 383 -10 276 -10 c 0,0,1
EndSplineSet
EndChar

StartChar: afii10074
Encoding: 1080 1080 465
Width: 600
GlyphClass: 2
Flags: W
AnchorPoint: "Anchor-3" 302 530 basechar 0
AnchorPoint: "Anchor-0" 308 0 basechar 0
LayerCount: 2
Fore
SplineSet
100 0 m 1,0,-1
 100 530 l 1,1,-1
 137 530 l 1,2,-1
 137 136 l 2,3,4
 137 111 137 111 136.5 92.5 c 128,-1,5
 136 74 136 74 135 50 c 1,6,-1
 454 530 l 1,7,-1
 500 530 l 1,8,-1
 500 0 l 1,9,-1
 463 0 l 1,10,-1
 463 401 l 2,11,12
 463 424 463 424 463.5 442 c 128,-1,13
 464 460 464 460 465 482 c 1,14,-1
 143 0 l 1,15,-1
 100 0 l 1,0,-1
EndSplineSet
EndChar

